{"glyphs":{"0":{"ha":966,"x_min":195,"x_max":1006,"o":"m 355 512 q 331 329 331 404 q 340 248 331 282 q 507 102 380 102 q 739 248 631 102 q 846 512 806 339 q 871 693 871 618 q 861 776 871 740 q 696 922 823 922 q 463 776 570 922 q 355 512 394 683 m 220 511 q 358 829 265 709 q 722 1038 521 1038 q 990 829 926 1038 q 1006 706 1006 775 q 982 512 1006 622 q 844 195 937 315 q 479 -14 681 -14 q 212 195 278 -14 q 195 319 195 248 q 220 511 195 406 z "},"1":{"ha":484,"x_min":173,"x_max":532,"o":"m 173 -27 l 391 918 l 192 772 l 224 911 l 422 1051 q 532 962 532 1051 q 527 918 532 943 l 323 34 l 180 -27 l 173 -27 z "},"2":{"ha":889,"x_min":128,"x_max":933,"o":"m 267 0 q 128 95 128 0 q 133 134 128 113 q 538 496 180 351 q 786 718 753 584 q 795 785 795 755 q 777 857 795 829 q 637 922 736 922 q 404 776 513 922 l 397 776 l 300 829 q 664 1038 462 1038 q 892 939 827 1038 q 933 798 933 878 q 922 711 933 756 q 590 397 880 522 q 260 159 287 267 q 258 144 258 151 q 293 115 258 115 l 605 115 q 724 195 685 115 l 730 195 l 821 146 q 578 0 747 0 l 267 0 z "},"3":{"ha":848,"x_min":133,"x_max":885,"o":"m 133 195 q 255 248 133 195 l 262 248 q 428 102 304 102 q 599 170 524 102 q 684 319 663 229 q 692 382 692 354 q 671 456 692 428 q 520 509 632 509 l 458 586 l 746 909 l 389 909 l 391 916 l 467 1024 l 782 1024 q 885 957 885 1024 q 882 930 885 945 q 789 793 869 879 l 618 616 q 780 546 718 614 q 831 405 831 490 q 820 320 831 366 q 675 85 787 180 q 401 -14 560 -14 q 133 195 199 -14 z "},"4":{"ha":805,"x_min":108,"x_max":852,"o":"m 492 -27 l 555 243 l 221 243 q 108 311 108 243 q 111 335 108 321 q 169 435 121 383 l 741 1051 q 852 962 852 1051 q 846 918 852 943 l 717 358 l 833 358 l 832 351 l 756 243 l 690 243 l 642 34 l 499 -27 l 492 -27 m 581 358 l 696 856 l 238 358 l 581 358 z "},"5":{"ha":861,"x_min":146,"x_max":939,"o":"m 146 195 l 269 248 l 275 248 q 441 102 317 102 q 612 170 537 102 q 698 319 677 229 q 705 378 705 351 q 673 471 705 436 q 538 522 624 522 q 399 479 468 522 l 274 548 l 428 878 q 671 1024 497 1024 l 939 1024 l 937 1017 l 861 909 l 654 909 q 535 829 575 909 l 419 598 q 566 642 490 642 q 785 560 709 642 q 844 404 844 498 q 833 320 844 366 q 688 85 800 180 q 414 -14 573 -14 q 146 195 212 -14 z "},"6":{"ha":927,"x_min":195,"x_max":990,"o":"m 990 829 l 868 776 l 861 776 q 696 922 820 922 q 463 776 570 922 q 355 512 395 684 q 633 654 475 654 q 862 554 790 654 q 909 403 909 488 q 899 320 909 363 q 753 85 867 181 q 479 -14 638 -14 q 212 195 277 -14 q 195 319 195 250 q 220 512 195 405 q 358 829 267 711 q 722 1038 521 1038 q 990 829 924 1038 m 607 537 q 440 471 522 537 q 350 319 374 416 q 343 266 343 291 q 370 175 343 214 q 507 102 420 102 q 684 174 606 102 q 764 319 743 229 q 772 385 772 355 q 751 466 772 433 q 607 537 704 537 z "},"7":{"ha":664,"x_min":157,"x_max":809,"o":"m 157 31 l 674 909 l 216 909 l 218 916 l 294 1024 l 701 1024 q 809 941 809 1024 q 804 902 810 924 q 724 750 797 871 l 273 -27 l 267 -27 l 157 31 z "},"8":{"ha":887,"x_min":166,"x_max":911,"o":"m 176 321 q 332 549 207 454 q 391 585 358 570 q 333 718 333 643 q 339 768 333 742 q 471 972 371 903 q 683 1038 564 1038 q 865 972 800 1038 q 911 847 911 926 q 902 768 911 812 q 766 585 878 661 q 809 549 792 570 q 867 390 867 479 q 859 320 867 357 q 714 85 829 182 q 439 -14 598 -14 q 212 85 281 -14 q 166 237 166 151 q 176 321 166 276 m 467 102 q 645 174 566 102 q 724 319 703 228 q 730 370 730 346 q 706 454 730 418 q 564 519 663 519 q 391 454 467 519 q 311 319 332 404 q 303 256 303 285 q 326 174 303 208 q 467 102 372 102 m 755 889 q 659 930 724 930 q 543 889 593 930 q 477 778 493 848 q 471 726 471 748 q 484 677 471 694 q 588 625 526 625 q 715 677 656 625 q 769 778 754 711 q 774 823 774 802 q 755 889 774 861 z "},"9":{"ha":927,"x_min":174,"x_max":969,"o":"m 174 195 l 296 248 l 302 248 q 468 102 344 102 q 701 248 594 102 q 808 512 768 340 q 530 370 689 370 q 302 470 374 370 q 254 621 254 536 q 264 704 254 661 q 410 939 297 843 q 684 1038 526 1038 q 952 829 887 1038 q 969 705 969 774 q 944 512 969 619 q 806 195 897 313 q 441 -14 643 -14 q 174 195 239 -14 m 557 487 q 724 553 642 487 q 814 705 790 608 q 821 758 821 733 q 793 849 821 810 q 657 922 744 922 q 480 850 557 922 q 400 705 420 795 q 392 639 392 669 q 413 558 392 591 q 557 487 460 487 z "}," ":{"ha":543,"x_min":0,"x_max":0,"o":""},"!":{"ha":407,"x_min":135,"x_max":514,"o":"m 138 69 q 175 128 146 104 q 239 153 204 153 q 291 128 273 153 q 304 90 304 111 q 301 69 304 79 q 264 11 292 33 q 199 -14 233 -14 q 147 12 165 -14 q 135 48 135 27 q 138 69 135 57 m 507 1051 l 514 1051 l 351 346 l 208 285 l 201 285 l 364 990 l 507 1051 z "},"\"":{"ha":507,"x_min":257,"x_max":648,"o":"m 641 1051 l 648 1051 l 572 723 l 454 673 l 448 673 l 524 1001 l 641 1051 m 450 1051 l 457 1051 l 381 723 l 264 673 l 257 673 l 333 1001 l 450 1051 z "},"#":{"ha":928,"x_min":183,"x_max":981,"o":"m 338 151 l 385 353 l 183 353 l 184 359 l 267 476 l 414 476 l 431 549 l 229 549 l 230 556 l 312 673 l 459 673 l 493 820 l 623 875 l 629 875 l 583 673 l 656 673 l 690 820 l 819 875 l 826 875 l 779 673 l 981 673 l 980 666 l 898 549 l 751 549 l 734 476 l 936 476 l 935 469 l 852 353 l 705 353 l 671 205 l 542 151 l 535 151 l 582 353 l 509 353 l 475 205 l 345 151 l 338 151 m 537 476 l 610 476 l 627 549 l 554 549 l 537 476 z "},"$":{"ha":861,"x_min":146,"x_max":878,"o":"m 146 195 l 269 248 l 275 248 q 415 103 311 117 l 512 522 q 386 589 437 545 q 327 714 327 639 q 334 768 327 740 q 468 968 363 889 q 630 1035 541 1023 l 657 1153 l 737 1187 l 744 1187 l 709 1036 q 878 883 834 1021 l 759 832 l 752 832 q 682 918 733 903 l 616 634 q 800 528 737 608 q 843 396 843 473 q 833 320 842 359 q 682 90 805 192 q 468 -10 584 5 l 440 -129 l 361 -163 l 354 -163 l 389 -13 q 146 195 208 0 m 543 656 l 603 916 q 536 881 567 906 q 472 778 487 840 q 468 747 468 761 q 487 692 469 713 q 543 656 505 671 m 586 503 l 495 109 q 614 180 554 126 q 697 324 675 234 q 703 367 703 347 q 680 439 703 408 q 586 503 650 482 z "},"%":{"ha":1392,"x_min":271,"x_max":1358,"o":"m 1216 258 q 1225 326 1225 296 q 1209 391 1225 366 q 1139 429 1186 429 q 1053 393 1091 429 q 982 258 1003 347 q 973 190 973 220 q 990 122 973 149 q 1059 86 1013 86 q 1147 123 1108 86 q 1216 258 1195 168 m 850 260 q 975 460 877 378 q 1162 529 1055 529 q 1316 461 1268 529 q 1358 327 1358 403 q 1350 258 1358 294 q 1223 54 1320 137 q 1037 -14 1143 -14 q 882 55 930 -14 q 841 186 841 113 q 850 260 841 222 m 646 766 q 654 834 654 804 q 639 900 654 874 q 568 938 616 938 q 482 902 521 938 q 412 766 433 855 q 403 699 403 728 q 420 631 403 657 q 489 595 443 595 q 576 631 538 595 q 646 766 625 677 m 279 768 q 404 969 307 886 q 591 1038 485 1038 q 746 970 698 1038 q 787 836 787 911 q 779 766 787 803 q 652 563 750 646 q 467 495 572 495 q 311 564 359 495 q 271 694 271 621 q 279 768 271 731 m 497 -27 l 412 19 l 1131 1051 l 1138 1051 l 1223 1005 l 504 -27 l 497 -27 z "},"&":{"ha":1059,"x_min":164,"x_max":1067,"o":"m 534 -27 q 208 83 283 -27 q 164 229 164 146 q 175 317 164 271 q 328 543 207 455 q 391 583 366 571 q 334 718 334 642 q 340 771 334 743 q 471 972 370 903 q 684 1038 566 1038 q 884 883 836 1038 l 765 832 l 758 832 q 656 922 733 922 q 536 880 587 922 q 469 771 482 836 q 465 739 465 755 q 485 677 465 705 q 592 628 517 632 q 722 624 667 624 q 721 601 721 617 q 724 536 721 579 q 768 418 728 456 l 972 663 l 979 663 l 1067 606 l 863 362 q 965 270 924 332 q 985 179 985 239 q 966 34 985 121 l 823 -27 l 816 -27 q 852 183 852 127 q 787 271 852 230 l 534 -27 m 587 516 q 409 468 470 516 q 309 316 332 406 q 302 258 302 286 q 325 167 302 208 q 501 103 361 103 l 691 326 q 587 516 607 366 z "},"'":{"ha":316,"x_min":257,"x_max":457,"o":"m 450 1051 l 457 1051 l 381 723 l 264 673 l 257 673 l 333 1001 l 450 1051 z "},"(":{"ha":531,"x_min":198,"x_max":748,"o":"m 409 -163 l 402 -163 q 214 60 265 -113 q 198 184 198 115 q 222 376 198 270 l 285 648 q 423 964 330 842 q 713 1187 554 1137 l 720 1187 l 748 1086 q 528 911 612 1028 q 420 648 460 819 l 358 376 q 334 194 334 269 q 343 113 334 147 q 483 -62 376 -5 l 409 -163 z "},")":{"ha":531,"x_min":20,"x_max":570,"o":"m 47 -163 l 20 -62 q 239 113 153 -5 q 347 376 307 204 l 409 648 q 434 829 434 753 q 424 911 434 877 q 285 1086 389 1030 l 359 1187 l 366 1187 q 553 964 500 1137 q 570 839 570 909 q 545 648 570 753 l 482 376 q 344 60 437 183 q 54 -163 213 -113 l 47 -163 z "},"*":{"ha":802,"x_min":250,"x_max":895,"o":"m 699 1051 l 705 1051 l 655 835 l 804 922 l 893 848 l 895 843 l 682 741 l 848 640 l 844 634 l 720 560 l 612 648 l 575 486 l 446 431 l 439 431 l 488 648 l 340 560 l 252 634 l 250 640 l 462 741 l 296 843 l 301 848 l 424 922 l 532 835 l 569 996 l 699 1051 z "},"+":{"ha":823,"x_min":205,"x_max":854,"o":"m 656 822 l 663 822 l 606 574 l 854 574 l 852 567 l 770 450 l 577 450 l 532 257 l 404 202 l 397 202 l 454 450 l 205 450 l 208 457 l 289 574 l 482 574 l 527 767 l 656 822 z "},",":{"ha":413,"x_min":79,"x_max":322,"o":"m 274 189 l 281 189 q 322 72 322 136 q 317 23 322 49 q 100 -194 290 -106 l 79 -160 q 189 -14 172 -83 q 193 18 193 3 q 131 127 193 81 l 274 189 z "},"-":{"ha":823,"x_min":205,"x_max":854,"o":"m 205 450 l 208 457 l 289 574 l 854 574 l 852 567 l 770 450 l 205 450 z "},".":{"ha":407,"x_min":135,"x_max":304,"o":"m 138 69 q 175 128 146 104 q 239 153 204 153 q 291 128 273 153 q 304 90 304 111 q 301 69 304 81 q 264 11 291 33 q 199 -14 234 -14 q 147 12 165 -14 q 135 47 135 28 q 138 69 135 57 z "},"/":{"ha":661,"x_min":-5,"x_max":901,"o":"m 81 -95 l -5 -49 l 809 1119 l 816 1119 l 901 1073 l 87 -95 l 81 -95 z "},":":{"ha":407,"x_min":135,"x_max":406,"o":"m 240 511 q 277 570 248 545 q 341 594 307 594 q 393 570 376 594 q 406 531 406 552 q 404 511 406 523 q 366 452 393 475 q 302 428 336 428 q 250 453 268 428 q 237 489 237 469 q 240 511 237 498 m 138 69 q 175 128 146 104 q 239 153 204 153 q 291 128 273 153 q 304 90 304 111 q 301 69 304 81 q 264 11 291 33 q 199 -14 234 -14 q 147 12 165 -14 q 135 47 135 28 q 138 69 135 57 z "},";":{"ha":407,"x_min":79,"x_max":406,"o":"m 274 189 l 281 189 q 322 72 322 136 q 317 23 322 49 q 100 -194 290 -106 l 79 -160 q 189 -14 172 -83 q 193 18 193 3 q 131 127 193 81 l 274 189 m 240 511 q 277 570 248 545 q 341 594 307 594 q 393 570 376 594 q 406 531 406 552 q 404 511 406 523 q 366 452 393 475 q 302 428 336 428 q 250 453 268 428 q 237 489 237 469 q 240 511 237 498 z "},"<":{"ha":907,"x_min":205,"x_max":932,"o":"m 205 450 l 208 457 l 290 574 l 904 812 l 932 695 l 930 688 l 423 500 l 844 313 l 842 306 l 760 189 l 205 450 z "},"=":{"ha":823,"x_min":177,"x_max":882,"o":"m 234 574 l 236 581 l 317 697 l 882 697 l 881 690 l 799 574 l 234 574 m 177 327 l 179 334 l 260 450 l 825 450 l 824 444 l 742 327 l 177 327 z "},">":{"ha":907,"x_min":206,"x_max":933,"o":"m 932 551 l 931 544 l 848 427 l 235 189 l 206 306 l 208 313 l 715 500 l 294 688 l 296 695 l 379 812 l 932 551 z "},"?":{"ha":833,"x_min":273,"x_max":906,"o":"m 323 69 q 361 128 332 104 q 425 153 390 153 q 477 128 459 153 q 490 90 490 111 q 487 69 490 81 q 450 11 477 33 q 385 -14 420 -14 q 333 12 351 -14 q 321 47 321 28 q 323 69 321 57 m 273 829 q 637 1038 435 1038 q 865 939 799 1038 q 906 799 906 879 q 895 711 906 758 q 590 402 848 509 q 518 308 534 379 l 372 245 l 366 245 q 541 490 408 427 q 761 711 729 578 q 770 779 770 749 q 749 857 769 826 q 610 922 708 922 q 377 776 486 922 l 370 776 l 273 829 z "},"@":{"ha":947,"x_min":130,"x_max":930,"o":"m 690 -27 l 625 -27 q 441 34 494 -18 q 391 153 391 83 q 397 203 391 176 q 524 389 423 321 q 736 454 608 445 l 792 454 q 793 476 793 465 q 770 564 793 519 q 631 644 727 644 q 398 498 506 644 q 292 234 333 410 q 267 53 267 128 q 277 -30 267 5 q 442 -176 320 -176 l 416 -292 q 148 -83 215 -292 q 130 43 130 -28 q 155 234 130 127 q 294 551 202 433 q 659 760 456 760 q 882 646 805 760 q 930 489 930 575 q 920 410 930 451 l 833 34 l 690 -27 m 770 349 q 592 311 647 348 q 524 214 536 273 q 522 189 522 201 q 551 117 522 151 q 708 80 584 80 l 770 349 z "},"A":{"ha":986,"x_min":116,"x_max":1027,"o":"m 116 -27 l 240 512 q 378 829 286 709 q 743 1038 541 1038 q 1010 829 945 1038 q 1027 705 1027 775 q 1002 512 1027 620 q 865 212 956 311 q 752 115 809 150 l 945 115 l 943 109 l 867 0 l 492 0 l 494 7 l 570 115 q 745 243 669 146 q 852 454 827 347 l 363 454 l 266 34 l 123 -27 l 116 -27 m 391 570 l 879 570 q 891 692 891 639 q 882 776 891 740 q 716 922 843 922 q 483 777 589 922 q 391 570 428 701 z "},"B":{"ha":947,"x_min":116,"x_max":970,"o":"m 116 -27 l 240 512 q 378 829 286 709 q 743 1038 541 1038 q 919 975 857 1038 q 970 843 970 924 q 962 774 970 811 q 814 580 937 658 q 871 537 846 566 q 927 387 927 474 q 918 313 927 353 q 781 93 886 178 q 503 0 665 0 l 372 0 l 374 7 l 450 115 l 530 115 q 707 182 629 115 q 781 309 762 229 q 789 368 789 340 q 768 444 789 412 q 622 513 724 513 l 491 513 l 492 519 l 568 628 l 648 628 q 768 672 717 628 q 829 777 814 712 q 833 817 833 798 q 814 882 833 854 q 716 922 784 922 q 483 776 590 922 q 376 512 416 684 l 266 34 l 123 -27 l 116 -27 z "},"C":{"ha":926,"x_min":195,"x_max":990,"o":"m 919 321 q 844 195 892 258 q 479 -14 683 -14 q 212 195 277 -14 q 195 319 195 249 q 220 512 195 404 q 358 829 266 710 q 722 1038 521 1038 q 990 829 925 1038 l 868 776 l 861 776 q 696 922 822 922 q 463 776 570 922 q 355 512 394 683 q 331 329 331 404 q 340 248 331 283 q 507 102 380 102 q 739 248 632 102 l 912 321 l 919 321 z "},"D":{"ha":986,"x_min":116,"x_max":1027,"o":"m 116 -27 l 240 512 q 378 829 286 709 q 743 1038 541 1038 q 1010 829 947 1038 q 1027 706 1027 775 q 1002 512 1027 622 q 867 213 964 341 q 503 0 707 0 l 372 0 l 374 7 l 450 115 l 530 115 q 762 266 655 115 q 867 512 833 365 q 891 693 891 618 q 882 776 891 740 q 716 922 843 922 q 483 776 590 922 q 376 512 416 684 l 266 34 l 123 -27 l 116 -27 z "},"E":{"ha":926,"x_min":195,"x_max":990,"o":"m 919 321 q 844 195 892 258 q 479 -14 683 -14 q 212 195 277 -14 q 195 319 195 249 q 220 512 195 404 q 358 829 266 710 q 722 1038 521 1038 q 990 829 925 1038 l 868 776 l 861 776 q 696 922 822 922 q 463 776 570 922 q 370 570 408 701 l 776 570 l 774 563 l 699 454 l 344 454 q 331 328 331 382 q 340 248 331 281 q 507 102 382 102 q 739 248 632 102 l 912 321 l 919 321 z "},"F":{"ha":833,"x_min":116,"x_max":1010,"o":"m 116 -27 l 240 512 q 378 829 286 711 q 743 1038 541 1038 q 1010 829 945 1038 l 888 776 l 882 776 q 716 922 842 922 q 483 776 590 922 q 391 570 428 701 l 776 570 l 774 563 l 699 454 l 363 454 l 266 34 l 123 -27 l 116 -27 z "},"G":{"ha":966,"x_min":195,"x_max":996,"o":"m 996 570 l 982 512 q 844 195 937 316 q 479 -14 682 -14 q 212 195 277 -14 q 195 319 195 249 q 220 512 195 404 q 358 829 266 710 q 722 1038 521 1038 q 990 829 925 1038 l 868 776 l 861 776 q 696 922 822 922 q 463 776 571 922 q 355 512 394 684 q 331 329 331 404 q 340 248 331 283 q 507 102 380 102 q 739 248 631 102 q 832 454 795 323 l 576 454 l 578 461 l 654 570 l 996 570 z "},"H":{"ha":986,"x_min":130,"x_max":1027,"o":"m 130 -27 l 364 990 l 507 1051 l 514 1051 l 403 570 l 879 570 q 891 692 891 639 q 882 776 891 740 q 742 950 850 893 l 817 1051 l 823 1051 q 1010 829 960 1001 q 1027 704 1027 774 q 1002 512 1027 620 q 865 212 956 312 q 752 115 810 150 l 945 115 l 943 109 l 867 0 l 492 0 l 494 7 l 570 115 q 745 243 669 146 q 852 454 827 347 l 376 454 l 279 34 l 136 -27 l 130 -27 z "},"I":{"ha":407,"x_min":129,"x_max":514,"o":"m 130 -27 l 364 990 l 507 1051 l 514 1051 l 279 34 l 136 -27 l 130 -27 z "},"J":{"ha":887,"x_min":99,"x_max":960,"o":"m 99 195 l 221 248 l 228 248 q 394 102 268 102 q 627 248 520 102 q 734 512 695 342 l 819 879 q 791 909 825 909 l 431 909 l 433 916 l 509 1024 l 819 1024 q 960 923 960 1024 q 954 879 960 903 l 869 512 q 731 195 824 316 q 367 -14 570 -14 q 99 195 164 -14 z "},"K":{"ha":917,"x_min":130,"x_max":996,"o":"m 130 -27 l 364 990 l 507 1051 l 514 1051 l 396 541 l 882 1051 l 889 1051 l 996 995 l 605 593 q 859 477 776 593 q 895 368 895 428 q 888 317 895 344 q 696 115 859 184 l 876 115 l 874 109 l 798 0 l 423 0 l 425 7 l 500 115 q 652 176 588 130 q 753 317 734 235 q 756 345 756 331 q 726 422 756 387 q 578 477 678 477 q 414 408 490 477 q 332 260 352 350 l 279 34 l 136 -27 l 130 -27 z "},"L":{"ha":751,"x_min":163,"x_max":782,"o":"m 305 0 q 163 102 163 0 q 169 145 163 121 l 364 990 l 507 1051 l 514 1051 l 304 145 q 332 115 298 115 l 566 115 q 684 195 646 115 l 691 195 l 782 146 q 539 0 707 0 l 305 0 z "},"M":{"ha":1592,"x_min":195,"x_max":1634,"o":"m 722 -27 l 846 512 q 871 693 871 618 q 861 776 871 740 q 696 922 823 922 q 463 776 570 922 q 355 512 395 683 q 331 330 331 406 q 340 248 331 283 q 480 74 372 131 l 406 -27 l 399 -27 q 212 195 262 23 q 195 320 195 250 q 220 512 195 405 q 358 829 266 710 q 722 1038 520 1038 q 989 833 922 1038 q 1349 1038 1149 1038 q 1617 829 1551 1038 q 1634 705 1634 775 q 1609 512 1634 620 q 1472 212 1562 311 q 1358 115 1415 150 l 1551 115 l 1550 109 l 1474 0 l 1099 0 l 1100 7 l 1176 115 q 1352 243 1275 146 q 1473 512 1435 348 q 1497 693 1497 618 q 1488 776 1497 740 q 1322 922 1449 922 q 1089 776 1196 922 q 982 512 1022 684 l 872 34 l 729 -27 l 722 -27 z "},"N":{"ha":986,"x_min":116,"x_max":1027,"o":"m 116 -27 l 240 512 q 378 829 286 709 q 743 1038 541 1038 q 1010 829 945 1038 q 1027 705 1027 775 q 1002 512 1027 620 q 865 212 956 311 q 752 115 809 150 l 945 115 l 943 109 l 867 0 l 492 0 l 494 7 l 570 115 q 745 243 669 146 q 867 512 829 348 q 891 693 891 618 q 882 776 891 740 q 716 922 843 922 q 483 776 589 922 q 376 512 416 684 l 266 34 l 123 -27 l 116 -27 z "},"O":{"ha":966,"x_min":195,"x_max":1006,"o":"m 355 512 q 331 329 331 404 q 340 248 331 282 q 507 102 380 102 q 739 248 631 102 q 846 512 806 339 q 871 693 871 618 q 861 776 871 740 q 696 922 823 922 q 463 776 570 922 q 355 512 394 683 m 220 511 q 358 829 265 709 q 722 1038 521 1038 q 990 829 926 1038 q 1006 706 1006 775 q 982 512 1006 622 q 844 195 937 315 q 479 -14 681 -14 q 212 195 278 -14 q 195 319 195 248 q 220 511 195 406 z "},"P":{"ha":932,"x_min":116,"x_max":1018,"o":"m 116 -27 l 240 512 q 378 829 286 709 q 743 1038 541 1038 q 981 913 912 1038 q 1018 767 1018 845 q 1008 682 1018 726 q 876 464 981 564 q 547 339 745 339 l 416 339 l 418 346 l 494 454 l 574 454 q 771 517 702 454 q 872 682 850 589 q 881 752 881 720 q 848 859 881 815 q 716 922 802 922 q 483 776 591 922 q 376 512 416 685 l 266 34 l 123 -27 l 116 -27 z "},"Q":{"ha":966,"x_min":195,"x_max":1006,"o":"m 479 -14 q 212 195 277 -14 q 195 319 195 249 q 220 512 195 404 q 358 829 266 710 q 722 1038 521 1038 q 990 829 926 1038 q 1006 706 1006 775 q 982 512 1006 622 q 844 195 937 315 q 760 104 802 142 l 859 -107 l 726 -163 l 719 -163 l 569 160 l 702 216 l 709 216 l 710 212 q 739 248 725 229 q 846 512 806 338 q 871 693 871 618 q 861 776 871 740 q 696 922 823 922 q 463 776 570 922 q 355 512 395 684 q 330 329 330 404 q 340 248 330 282 q 426 122 368 156 l 479 -14 z "},"R":{"ha":975,"x_min":116,"x_max":1018,"o":"m 116 -27 l 240 512 q 378 829 286 709 q 743 1038 541 1038 q 981 913 912 1038 q 1018 767 1018 845 q 1008 682 1018 726 q 876 464 981 565 q 722 368 808 399 l 880 29 l 748 -27 l 741 -27 l 570 339 l 416 339 l 418 346 l 494 454 l 574 454 q 771 517 702 454 q 872 682 850 589 q 881 752 881 720 q 848 859 881 815 q 716 922 802 922 q 483 776 591 922 q 376 512 416 685 l 266 34 l 123 -27 l 116 -27 z "},"S":{"ha":821,"x_min":126,"x_max":858,"o":"m 126 195 q 248 248 126 195 l 255 248 q 421 102 295 102 q 594 180 509 102 q 677 324 655 235 q 682 366 682 347 q 660 438 682 408 q 528 513 620 492 q 366 589 428 535 q 307 715 307 639 q 313 768 307 739 q 448 968 342 890 q 657 1038 541 1038 q 858 883 809 1038 l 739 832 l 732 832 q 631 922 707 922 q 516 881 566 922 q 452 778 467 840 q 448 747 448 761 q 468 692 448 713 q 595 634 505 653 q 779 528 717 608 q 823 396 823 473 q 813 320 823 359 q 662 90 785 193 q 394 -14 540 -14 q 126 195 191 -14 z "},"T":{"ha":723,"x_min":206,"x_max":956,"o":"m 288 -27 l 504 909 l 422 909 q 303 829 341 909 l 296 829 l 206 878 q 449 1024 280 1024 l 956 1024 l 954 1017 l 878 909 l 640 909 l 437 34 l 294 -27 l 288 -27 z "},"U":{"ha":1000,"x_min":195,"x_max":1107,"o":"m 1107 1051 l 982 512 q 844 195 937 316 q 479 -14 682 -14 q 212 195 277 -14 q 195 319 195 250 q 220 512 195 405 q 357 812 267 713 q 470 909 414 875 l 277 909 l 279 916 l 355 1024 l 730 1024 l 728 1017 l 652 909 q 477 781 553 878 q 355 512 392 673 q 331 330 331 405 q 340 248 331 282 q 507 102 381 102 q 739 248 631 102 q 846 512 807 340 l 957 990 l 1100 1051 l 1107 1051 z "},"V":{"ha":1000,"x_min":229,"x_max":1040,"o":"m 364 990 l 507 1051 l 514 1051 l 389 512 q 363 326 363 398 q 374 248 363 278 q 541 102 429 102 q 773 248 665 102 q 880 512 839 336 q 905 692 905 618 q 895 776 905 741 q 755 950 861 895 l 830 1051 l 837 1051 q 1024 829 972 1001 q 1040 705 1040 774 q 1016 512 1040 619 q 878 195 971 316 q 513 -14 715 -14 q 245 195 311 -14 q 229 319 229 249 q 254 512 229 404 l 364 990 z "},"W":{"ha":1592,"x_min":195,"x_max":1633,"o":"m 1107 1051 l 982 512 q 958 330 958 405 q 967 248 958 282 q 1133 102 1008 102 q 1366 248 1257 102 q 1473 512 1434 340 q 1497 694 1497 619 q 1488 776 1497 741 q 1348 950 1456 893 l 1423 1051 l 1430 1051 q 1617 829 1566 1001 q 1633 704 1633 774 q 1609 512 1633 621 q 1470 195 1563 317 q 1106 -14 1310 -14 q 840 191 907 -14 q 479 -14 679 -14 q 212 195 277 -14 q 195 319 195 250 q 220 512 195 405 q 357 812 267 713 q 470 909 414 875 l 277 909 l 279 916 l 355 1024 l 730 1024 l 728 1017 l 652 909 q 477 781 553 878 q 355 512 392 673 q 331 330 331 405 q 340 248 331 282 q 507 102 381 102 q 739 248 631 102 q 846 512 807 340 l 957 990 l 1100 1051 l 1107 1051 z "},"X":{"ha":867,"x_min":75,"x_max":1029,"o":"m 180 -27 l 75 28 l 458 495 q 317 675 357 570 q 281 865 281 768 q 296 990 281 928 l 439 1051 l 446 1051 q 425 885 425 960 q 454 730 425 797 q 546 601 486 653 l 916 1051 l 923 1051 l 1029 995 l 642 525 q 785 347 744 445 q 822 159 822 256 q 807 34 822 98 l 664 -27 l 657 -27 q 679 142 679 65 q 653 293 679 227 q 554 419 626 361 l 186 -27 l 180 -27 z "},"Y":{"ha":930,"x_min":218,"x_max":1038,"o":"m 366 647 q 356 566 356 604 q 388 451 356 498 q 532 376 437 376 q 702 446 625 376 q 799 606 778 515 l 888 990 l 1031 1051 l 1038 1051 l 803 34 l 660 -27 l 653 -27 l 742 359 q 506 260 634 260 q 254 399 331 260 q 218 546 218 464 q 231 647 218 593 q 311 803 250 734 q 470 909 370 869 l 277 909 l 279 916 l 355 1024 l 730 1024 l 728 1017 l 652 909 q 454 800 541 882 q 366 647 387 736 z "},"Z":{"ha":819,"x_min":100,"x_max":909,"o":"m 212 0 q 100 67 100 0 q 102 91 100 78 q 208 265 118 165 l 767 909 l 336 909 l 338 916 l 414 1024 l 794 1024 q 909 956 909 1024 q 907 932 909 945 q 798 759 889 861 l 239 115 l 555 115 q 674 195 635 115 l 681 195 l 772 146 q 529 0 697 0 l 212 0 z "},"[":{"ha":586,"x_min":126,"x_max":826,"o":"m 464 -163 l 268 -163 q 126 -61 126 -163 q 132 -18 126 -41 l 376 1042 q 579 1187 410 1187 l 826 1187 l 825 1180 l 749 1072 l 553 1072 q 512 1042 519 1072 l 267 -18 q 294 -47 260 -47 l 541 -47 l 540 -54 l 464 -163 z "},"\\":{"ha":661,"x_min":254,"x_max":642,"o":"m 529 -95 l 254 1073 l 361 1119 l 368 1119 l 642 -49 l 536 -95 l 529 -95 z "},"]":{"ha":586,"x_min":-3,"x_max":696,"o":"m -3 -163 l -2 -156 l 74 -47 l 270 -47 q 311 -18 304 -47 l 555 1042 q 528 1072 562 1072 l 281 1072 l 283 1078 l 359 1187 l 555 1187 q 696 1085 696 1187 q 691 1042 696 1065 l 446 -18 q 243 -163 413 -163 l -3 -163 z "},"^":{"ha":896,"x_min":272,"x_max":964,"o":"m 718 1051 l 725 1051 l 964 738 l 834 682 l 827 682 l 655 901 l 383 682 l 376 682 l 272 738 l 588 996 l 718 1051 z "},"_":{"ha":823,"x_min":37,"x_max":686,"o":"m 37 -278 l 39 -271 l 121 -155 l 686 -155 l 684 -161 l 602 -278 l 37 -278 z "},"`":{"ha":439,"x_min":331,"x_max":526,"o":"m 464 1051 l 471 1051 l 526 817 l 438 780 l 431 780 l 331 994 l 464 1051 z "},"a":{"ha":795,"x_min":171,"x_max":779,"o":"m 385 -14 q 184 143 234 -14 q 171 239 171 186 q 188 373 171 300 q 290 603 222 516 q 564 760 412 760 q 764 603 717 760 q 777 507 777 559 q 760 373 777 446 l 701 118 q 726 88 694 88 l 779 88 l 777 81 l 701 -27 q 559 75 559 -27 q 565 118 559 94 l 624 373 q 643 509 643 457 q 638 555 643 535 q 536 644 613 644 q 394 555 460 644 q 323 373 353 498 q 304 239 304 291 q 310 191 304 211 q 410 102 334 102 l 463 102 l 460 95 l 385 -14 z "},"b":{"ha":795,"x_min":191,"x_max":797,"o":"m 351 990 l 494 1051 l 500 1051 l 344 373 q 325 236 325 288 q 330 191 325 210 q 431 102 355 102 q 574 191 508 102 q 644 373 615 248 q 663 507 663 455 q 658 555 663 535 q 557 644 633 644 l 505 644 l 507 651 l 583 760 q 783 603 734 760 q 797 507 797 560 q 780 373 797 446 q 678 143 747 231 q 404 -14 555 -14 q 204 143 256 -14 q 191 237 191 184 q 208 373 191 296 l 351 990 z "},"c":{"ha":745,"x_min":170,"x_max":763,"o":"m 722 256 q 658 143 695 191 q 384 -14 536 -14 q 184 143 236 -14 q 170 237 170 184 q 188 373 170 298 q 290 603 219 511 q 563 760 410 760 q 763 605 715 760 l 644 555 l 637 555 q 536 644 613 644 q 393 555 459 644 q 323 373 352 498 q 304 237 304 289 q 309 191 304 210 q 411 102 335 102 q 553 191 488 102 l 715 256 l 722 256 z "},"d":{"ha":796,"x_min":171,"x_max":917,"o":"m 917 1051 l 760 373 q 659 143 728 231 q 385 -14 536 -14 q 184 143 236 -14 q 171 238 171 184 q 188 373 171 298 q 381 631 226 537 l 214 631 l 215 637 l 291 746 l 608 746 l 607 739 l 531 631 q 393 519 436 574 q 323 373 342 454 q 304 239 304 291 q 310 191 304 211 q 412 102 334 102 q 555 192 489 102 q 624 373 595 247 l 767 990 l 910 1051 l 917 1051 z "},"e":{"ha":765,"x_min":170,"x_max":777,"o":"m 722 256 q 658 143 695 191 q 384 -14 536 -14 q 184 143 236 -14 q 170 237 170 184 q 188 373 170 299 q 290 603 219 511 q 563 760 410 760 q 734 687 679 760 q 777 566 777 631 q 770 517 777 542 q 658 336 745 413 q 444 259 571 259 l 391 259 l 393 266 l 469 374 q 583 414 542 374 q 639 518 623 452 q 643 549 643 534 q 625 606 643 583 q 536 644 597 644 q 393 555 453 644 q 323 373 350 490 q 304 237 304 289 q 309 191 304 210 q 411 102 335 102 q 553 191 488 102 l 715 256 l 722 256 z "},"f":{"ha":567,"x_min":116,"x_max":739,"o":"m 116 -27 l 273 651 q 374 881 305 792 q 647 1038 496 1038 l 739 1038 l 737 1031 l 661 922 l 621 922 q 478 833 545 922 q 414 678 442 785 l 656 678 l 654 671 l 578 563 l 388 563 l 266 34 l 123 -27 l 116 -27 z "},"g":{"ha":795,"x_min":157,"x_max":777,"o":"m 384 -14 q 184 143 235 -14 q 170 237 170 184 q 188 373 170 299 q 290 603 220 515 q 563 760 412 760 q 763 603 713 760 q 777 507 777 560 q 760 373 777 446 l 695 95 q 594 -135 663 -44 q 321 -292 475 -292 l 157 -292 l 159 -285 l 235 -176 l 347 -176 q 490 -87 431 -176 q 559 95 534 -19 l 624 373 q 643 507 643 455 q 637 555 643 535 q 536 644 613 644 q 393 554 458 644 q 323 373 352 498 q 304 237 304 290 q 309 191 304 211 q 410 102 334 102 l 462 102 l 460 95 l 384 -14 z "},"h":{"ha":808,"x_min":130,"x_max":809,"o":"m 130 -27 l 364 990 l 507 1051 l 514 1051 l 431 689 q 597 760 509 760 q 797 603 753 760 q 809 507 809 559 q 792 373 809 446 q 599 115 754 210 l 766 115 l 765 109 l 689 0 l 372 0 l 373 7 l 449 115 q 587 227 545 173 q 656 373 638 293 q 676 511 676 458 q 671 555 676 537 q 569 644 647 644 q 427 555 493 644 q 357 373 387 499 l 279 34 l 136 -27 l 130 -27 z "},"i":{"ha":407,"x_min":157,"x_max":508,"o":"m 342 954 q 379 1013 350 989 q 443 1038 408 1038 q 495 1013 477 1038 q 508 975 508 996 q 505 954 508 966 q 468 896 495 918 q 404 871 438 871 q 351 897 370 871 q 339 932 339 913 q 342 954 339 942 m 299 -27 q 157 75 157 -27 q 163 118 157 94 l 300 712 l 443 773 l 450 773 l 298 118 q 324 88 292 88 l 376 88 l 375 81 l 299 -27 z "},"j":{"ha":407,"x_min":-83,"x_max":508,"o":"m 342 954 q 379 1013 350 989 q 443 1038 408 1038 q 495 1013 477 1038 q 508 975 508 996 q 505 954 508 966 q 468 896 495 918 q 404 871 438 871 q 351 897 370 871 q 339 932 339 913 q 342 954 339 942 m -81 -292 l 2 -170 q 86 -94 46 -147 q 156 88 127 -39 l 300 712 l 443 773 l 450 773 l 292 88 q 190 -142 259 -54 q -83 -298 67 -298 l -81 -292 z "},"k":{"ha":800,"x_min":130,"x_max":823,"o":"m 130 -27 l 364 990 l 507 1051 l 514 1051 l 384 486 l 710 773 l 717 773 l 823 717 l 574 510 q 718 447 668 497 q 768 330 768 395 q 763 285 768 308 q 591 115 739 181 l 759 115 l 758 109 l 682 0 l 364 0 l 366 7 l 441 115 q 553 172 502 133 q 627 285 612 216 q 631 313 631 300 q 605 374 631 349 q 510 401 578 401 q 398 366 448 401 q 330 252 347 330 l 279 34 l 136 -27 l 130 -27 z "},"l":{"ha":407,"x_min":157,"x_max":514,"o":"m 299 -27 q 157 75 157 -27 q 163 118 157 94 l 364 990 l 507 1051 l 514 1051 l 298 118 q 324 88 292 88 l 376 88 l 375 81 l 299 -27 z "},"m":{"ha":1211,"x_min":172,"x_max":1213,"o":"m 532 -27 l 624 373 q 643 509 643 456 q 638 555 643 536 q 536 644 616 644 q 394 555 460 644 q 323 373 353 499 q 306 241 306 298 q 310 191 306 214 q 401 74 326 102 l 327 -27 l 320 -27 q 184 143 214 19 q 172 243 172 191 q 188 373 172 304 q 290 603 220 513 q 564 760 412 760 q 752 635 699 760 q 999 760 864 760 q 1200 603 1149 760 q 1213 508 1213 561 q 1196 373 1213 446 q 1002 115 1158 209 l 1170 115 l 1168 109 l 1093 0 l 775 0 l 777 7 l 852 115 q 990 227 949 173 q 1060 373 1042 292 q 1079 508 1079 455 q 1074 555 1079 536 q 972 644 1051 644 q 829 555 895 644 q 760 373 789 499 l 682 34 l 538 -27 l 532 -27 z "},"n":{"ha":775,"x_min":96,"x_max":777,"o":"m 566 115 q 734 115 566 115 l 732 109 l 656 0 l 339 0 l 340 7 l 416 115 q 554 227 512 173 q 624 373 606 293 q 643 509 643 456 q 637 555 643 536 q 536 644 614 644 q 393 555 459 644 q 323 373 353 499 l 245 34 l 102 -27 l 96 -27 l 188 373 q 290 603 220 515 q 563 760 412 760 q 763 603 718 760 q 777 502 777 556 q 760 373 777 441 q 566 115 722 209 z "},"o":{"ha":775,"x_min":170,"x_max":777,"o":"m 323 373 q 304 237 304 289 q 309 191 304 210 q 411 102 335 102 q 553 191 487 102 q 624 373 595 248 q 643 509 643 456 q 637 555 643 536 q 536 644 614 644 q 391 553 456 644 q 323 373 352 498 m 188 372 q 290 603 220 515 q 563 760 412 760 q 763 603 713 760 q 777 507 777 560 q 760 373 777 448 q 658 143 725 228 q 384 -14 534 -14 q 184 142 236 -14 q 170 235 170 184 q 188 372 170 294 z "},"p":{"ha":789,"x_min":45,"x_max":791,"o":"m 45 -305 l 201 373 q 303 603 234 515 q 577 760 426 760 q 777 603 726 760 q 791 508 791 562 q 774 373 791 449 q 581 115 736 209 l 748 115 l 747 109 l 671 0 l 353 0 l 355 7 l 431 115 q 568 227 526 173 q 638 373 620 293 q 657 509 657 456 q 652 555 657 536 q 550 644 629 644 q 407 554 473 644 q 338 373 367 499 l 195 -244 l 52 -305 l 45 -305 z "},"q":{"ha":789,"x_min":171,"x_max":777,"o":"m 617 -244 l 474 -305 l 467 -305 l 624 373 q 643 510 643 458 q 638 555 643 536 q 536 644 612 644 q 394 555 460 644 q 323 373 353 498 q 304 239 304 291 q 310 191 304 211 q 410 102 334 102 l 463 102 l 460 95 l 385 -14 q 184 143 234 -14 q 171 239 171 186 q 188 373 171 298 q 290 603 222 516 q 564 760 412 760 q 764 603 711 760 q 777 509 777 562 q 760 373 777 450 l 617 -244 z "},"r":{"ha":492,"x_min":96,"x_max":654,"o":"m 96 -27 l 188 373 q 290 603 220 515 q 563 760 412 760 l 654 760 l 652 753 l 576 644 l 536 644 q 393 555 459 644 q 323 373 353 499 l 245 34 l 102 -27 l 96 -27 z "},"s":{"ha":680,"x_min":114,"x_max":677,"o":"m 114 141 q 233 191 114 141 l 239 191 q 341 102 264 102 q 467 151 415 102 q 521 238 509 190 q 524 265 524 252 q 504 317 524 296 q 408 357 474 347 q 279 409 323 371 q 234 510 234 448 q 240 559 234 532 q 363 715 261 652 q 513 760 434 760 q 677 631 647 760 l 559 581 l 552 581 q 486 644 536 644 q 416 624 446 644 q 370 557 380 600 q 367 537 367 546 q 389 497 367 510 q 488 464 420 479 q 616 404 572 446 q 659 294 659 363 q 652 231 659 265 q 535 62 633 143 q 314 -14 443 -14 q 114 141 162 -14 z "},"t":{"ha":511,"x_min":159,"x_max":670,"o":"m 351 -27 q 210 75 210 -27 q 215 118 210 94 l 334 631 l 159 631 l 161 637 l 237 746 l 360 746 l 416 990 l 559 1051 l 566 1051 l 496 746 l 670 746 l 669 739 l 593 631 l 469 631 l 351 118 q 376 88 344 88 l 429 88 l 427 81 l 351 -27 z "},"u":{"ha":795,"x_min":172,"x_max":852,"o":"m 852 773 l 760 373 q 658 143 727 231 q 385 -14 535 -14 q 184 143 229 -14 q 172 242 172 189 q 188 373 172 303 q 381 631 227 538 l 214 631 l 215 637 l 291 746 l 608 746 l 607 739 l 531 631 q 393 519 436 574 q 323 373 342 454 q 304 239 304 291 q 310 191 304 211 q 412 102 334 102 q 554 191 488 102 q 624 373 595 247 l 702 712 l 845 773 l 852 773 z "},"v":{"ha":795,"x_min":191,"x_max":795,"o":"m 286 712 l 429 773 l 436 773 l 344 373 q 325 237 325 289 q 330 191 325 210 q 431 102 355 102 q 574 191 508 102 q 644 373 615 247 q 662 505 662 448 q 658 555 662 532 q 567 672 642 643 l 641 773 l 648 773 q 784 603 754 727 q 795 503 795 555 q 780 373 795 442 q 677 143 749 234 q 404 -14 555 -14 q 204 143 252 -14 q 191 238 191 185 q 208 373 191 298 l 286 712 z "},"w":{"ha":1211,"x_min":170,"x_max":1211,"o":"m 852 773 l 760 373 q 741 237 741 290 q 745 191 741 210 q 847 102 768 102 q 989 191 924 102 q 1060 373 1031 247 q 1078 505 1078 448 q 1074 555 1078 532 q 983 672 1057 643 l 1057 773 l 1063 773 q 1200 603 1170 727 q 1211 503 1211 555 q 1196 373 1211 442 q 1094 143 1164 235 q 820 -14 973 -14 q 631 111 685 -14 q 385 -14 519 -14 q 184 143 235 -14 q 170 238 170 185 q 188 373 170 300 q 381 631 226 537 l 214 631 l 215 637 l 291 746 l 608 746 l 607 739 l 531 631 q 393 519 435 573 q 323 373 342 454 q 304 238 304 291 q 310 191 304 210 q 412 102 332 102 q 554 191 488 102 q 624 373 595 247 l 702 712 l 845 773 l 852 773 z "},"x":{"ha":715,"x_min":75,"x_max":813,"o":"m 186 -27 l 180 -27 l 75 28 l 347 353 q 233 488 266 406 q 218 579 218 526 q 235 712 218 635 l 378 773 l 385 773 q 353 574 353 635 q 359 536 353 552 q 425 446 381 476 l 701 773 l 707 773 l 813 717 l 538 390 q 659 258 627 336 q 673 168 673 221 q 656 34 673 109 l 513 -27 l 506 -27 q 536 172 536 103 q 532 210 536 195 q 461 299 520 267 l 186 -27 z "},"y":{"ha":809,"x_min":157,"x_max":852,"o":"m 852 773 l 695 95 q 594 -135 663 -44 q 321 -292 475 -292 l 157 -292 l 159 -285 l 235 -176 l 347 -176 q 490 -87 432 -176 q 547 54 529 -26 q 384 -14 465 -14 q 184 143 232 -14 q 171 238 171 185 q 188 373 171 298 q 381 631 224 537 l 214 631 l 215 637 l 291 746 l 608 746 l 607 739 l 531 631 q 393 519 436 574 q 323 373 342 454 q 304 239 304 291 q 310 191 304 211 q 412 102 334 102 q 554 191 488 102 q 624 373 595 247 l 702 712 l 845 773 l 852 773 z "},"z":{"ha":714,"x_min":86,"x_max":751,"o":"m 199 0 q 86 67 86 0 q 89 91 86 78 q 213 258 102 157 l 612 631 l 259 631 l 260 637 l 336 746 l 638 746 q 751 679 751 746 q 748 655 751 668 q 625 491 735 595 l 225 115 l 464 115 q 583 195 544 115 l 589 195 l 680 146 q 437 0 606 0 l 199 0 z "},"{":{"ha":611,"x_min":138,"x_max":851,"o":"m 488 -163 q 260 -64 334 -163 q 213 85 213 -2 q 224 176 213 129 l 287 450 l 138 450 l 140 457 l 221 574 l 315 574 l 379 848 q 526 1088 413 995 q 800 1187 645 1187 l 851 1187 l 850 1180 l 773 1072 q 601 1004 675 1072 q 515 848 537 945 l 359 176 q 351 105 351 138 q 372 20 351 55 q 515 -47 416 -47 l 566 -47 l 565 -54 l 488 -163 z "},"|":{"ha":452,"x_min":132,"x_max":556,"o":"m 132 -163 l 432 1137 l 549 1187 l 556 1187 l 256 -113 l 139 -163 l 132 -163 z "},"}":{"ha":611,"x_min":-3,"x_max":709,"o":"m -3 -163 l -2 -156 l 75 -47 q 247 20 173 -47 q 333 176 311 79 l 488 848 q 497 920 497 887 q 475 1004 497 970 q 333 1072 431 1072 l 281 1072 l 283 1078 l 359 1187 q 588 1088 515 1187 q 635 938 635 1025 q 624 848 635 895 l 560 574 l 709 574 l 708 567 l 626 450 l 532 450 l 469 176 q 321 -64 435 29 q 48 -163 203 -163 l -3 -163 z "},"~":{"ha":772,"x_min":193,"x_max":818,"o":"m 193 395 q 410 640 250 640 q 546 572 501 640 q 619 515 583 515 q 684 585 668 515 l 811 640 l 818 640 q 601 395 762 395 q 465 464 510 395 q 391 520 429 520 q 326 450 342 520 l 200 395 l 193 395 z "}," ":{"ha":543,"x_min":0,"x_max":0,"o":""},"¡":{"ha":407,"x_min":130,"x_max":509,"o":"m 506 955 q 469 896 498 920 q 405 871 439 871 q 353 896 370 871 q 340 935 340 913 q 342 955 340 945 q 380 1013 352 991 q 444 1038 410 1038 q 496 1013 478 1038 q 509 976 509 997 q 506 955 509 967 m 136 -27 l 130 -27 l 292 678 l 435 739 l 442 739 l 279 34 l 136 -27 z "},"¢":{"ha":745,"x_min":170,"x_max":763,"o":"m 307 -163 l 342 -10 q 184 143 228 10 q 170 237 170 184 q 188 373 170 296 q 290 603 220 514 q 518 756 393 736 l 546 875 l 625 909 l 632 909 l 597 758 q 763 605 720 741 l 644 555 l 637 555 q 570 639 619 623 l 447 107 q 553 191 504 123 l 715 256 l 722 256 q 658 143 695 191 q 420 -12 551 5 l 393 -129 l 313 -163 l 307 -163 m 369 110 l 491 636 q 393 555 439 617 q 323 373 352 498 q 304 237 304 290 q 309 191 304 211 q 369 110 326 129 z "},"£":{"ha":867,"x_min":102,"x_max":925,"o":"m 102 0 l 103 7 l 179 115 l 230 115 l 297 406 l 195 406 l 197 412 l 273 521 l 323 521 l 363 694 q 517 960 404 871 q 724 1038 615 1038 q 925 883 876 1038 l 806 833 l 800 833 q 698 922 775 922 q 578 873 623 922 q 499 694 528 817 l 459 521 l 736 521 l 735 514 l 659 406 l 433 406 l 366 115 l 792 115 l 791 109 l 715 0 l 102 0 z "},"¤":{"ha":946,"x_min":155,"x_max":1028,"o":"m 155 228 l 257 311 q 237 417 237 359 q 248 507 237 459 q 353 708 273 623 l 286 796 l 292 801 l 422 844 l 461 795 q 668 846 553 846 q 852 795 783 846 l 913 844 l 1025 801 l 1028 796 l 920 708 q 943 597 943 656 q 932 506 943 555 q 827 305 905 391 l 895 217 l 888 212 l 757 169 l 718 218 q 511 167 627 167 q 323 223 392 167 l 269 180 l 158 223 l 155 228 m 539 289 q 713 359 632 289 q 797 507 776 412 q 804 566 804 541 q 782 654 804 616 q 640 724 742 724 q 466 654 547 724 q 382 507 402 600 q 375 444 375 473 q 397 358 375 395 q 539 289 441 289 z "},"¥":{"ha":867,"x_min":190,"x_max":1034,"o":"m 344 -27 l 417 292 l 190 292 l 192 298 l 273 415 l 424 415 l 401 515 l 241 515 l 243 522 l 325 639 l 375 639 l 298 995 l 429 1051 l 436 1051 l 522 639 l 677 639 l 964 1051 l 970 1051 l 1034 1017 l 765 639 l 890 639 l 888 632 l 806 515 l 677 515 l 606 415 l 838 415 l 837 408 l 755 292 l 553 292 l 494 34 l 351 -27 l 344 -27 m 591 515 l 548 515 l 558 468 l 591 515 z "},"¦":{"ha":452,"x_min":132,"x_max":556,"o":"m 132 -163 l 262 398 l 379 448 l 386 448 l 256 -113 l 139 -163 l 132 -163 m 549 1187 l 556 1187 l 427 626 l 309 576 l 302 576 l 432 1137 l 549 1187 z "},"§":{"ha":766,"x_min":195,"x_max":807,"o":"m 195 115 l 314 165 l 321 165 q 387 102 337 102 q 457 122 427 102 q 503 189 492 146 q 506 209 506 200 q 484 249 506 236 q 385 282 452 267 q 256 342 301 300 q 212 452 212 384 q 220 515 212 482 q 338 684 240 604 l 406 595 q 352 508 363 556 q 349 481 349 494 q 369 429 349 450 q 465 389 399 399 q 594 337 550 375 q 638 236 638 299 q 632 186 638 213 q 510 31 610 93 q 359 -14 439 -14 q 195 115 226 -14 m 807 909 l 688 859 l 682 859 q 616 922 666 922 q 546 902 577 922 q 499 835 507 877 q 497 817 497 825 q 519 775 497 789 q 618 742 551 756 q 747 682 702 724 q 790 572 790 641 q 782 509 790 543 q 665 340 760 419 l 597 429 q 651 516 642 470 q 654 542 654 530 q 633 595 654 572 q 537 635 606 625 q 409 687 454 649 q 364 788 364 725 q 370 838 364 811 q 492 994 392 932 q 643 1038 564 1038 q 807 909 777 1038 z "},"¨":{"ha":570,"x_min":318,"x_max":691,"o":"m 525 954 q 562 1013 533 989 q 626 1038 591 1038 q 678 1013 661 1038 q 691 975 691 996 q 688 954 691 966 q 651 896 678 918 q 587 871 621 871 q 534 897 553 871 q 522 932 522 913 q 525 954 522 942 m 321 954 q 358 1013 329 989 q 422 1038 387 1038 q 474 1013 456 1038 q 487 975 487 996 q 484 954 487 966 q 447 896 474 918 q 382 871 417 871 q 330 897 349 871 q 318 932 318 913 q 321 954 318 942 z "},"©":{"ha":950,"x_min":208,"x_max":978,"o":"m 777 429 q 730 343 758 381 q 532 232 650 232 q 385 346 421 232 q 376 413 376 376 q 389 512 376 458 q 462 678 413 616 q 661 791 550 791 q 812 663 779 791 l 730 627 l 712 627 q 642 700 697 700 q 541 636 589 700 q 490 512 509 594 q 479 425 479 460 q 483 388 479 404 q 554 324 501 324 q 652 388 604 324 l 749 429 l 777 429 m 684 903 q 819 873 758 903 q 921 787 877 846 q 974 661 963 731 q 978 608 978 635 q 966 511 978 564 q 905 363 948 431 q 794 237 863 295 q 652 151 727 181 q 504 122 580 122 q 367 151 428 122 q 266 237 308 180 q 212 363 223 296 q 208 415 208 388 q 220 511 208 461 q 281 661 239 593 q 393 787 326 731 q 534 874 463 846 q 684 903 608 903 m 671 848 q 543 824 606 848 q 421 749 481 800 q 324 640 362 700 q 271 515 286 581 l 270 511 q 261 435 261 472 q 265 384 261 409 q 312 275 274 330 q 398 201 347 224 q 516 176 451 176 q 645 201 581 176 q 767 275 707 225 q 862 383 824 323 q 916 511 899 440 q 926 593 926 553 q 922 641 926 618 q 876 749 911 701 q 789 824 839 801 q 671 848 736 848 z "},"ª":{"ha":648,"x_min":205,"x_max":678,"o":"m 524 617 l 530 644 q 465 624 498 624 q 367 666 395 624 q 347 732 347 696 q 351 766 347 748 q 417 868 363 825 q 531 909 468 909 q 581 893 559 909 q 580 916 581 911 q 539 953 569 953 l 446 953 l 451 973 l 497 1038 l 559 1038 q 669 952 642 1038 q 677 900 677 929 q 668 831 677 869 l 627 652 l 543 617 l 524 617 m 444 768 q 449 726 439 741 q 486 709 460 709 q 532 726 509 709 q 557 766 551 742 q 549 807 562 790 q 513 824 536 824 q 468 808 487 824 q 444 768 450 792 m 205 450 l 208 457 l 289 574 l 678 574 l 677 567 l 595 450 l 205 450 z "},"«":{"ha":819,"x_min":226,"x_max":872,"o":"m 606 206 l 487 537 l 760 871 l 766 871 l 872 815 l 644 539 l 744 262 l 613 206 l 606 206 m 345 206 l 226 537 l 498 871 l 505 871 l 611 815 l 383 539 l 483 262 l 352 206 l 345 206 z "},"¬":{"ha":823,"x_min":205,"x_max":854,"o":"m 205 450 l 208 457 l 289 574 l 854 574 l 852 567 l 644 273 l 498 273 l 635 450 l 205 450 z "},"­":{"ha":823,"x_min":205,"x_max":854,"o":"m 205 450 l 208 457 l 289 574 l 854 574 l 852 567 l 770 450 l 205 450 z "},"®":{"ha":950,"x_min":208,"x_max":978,"o":"m 684 903 q 819 873 758 903 q 921 787 877 846 q 974 661 963 731 q 978 608 978 635 q 966 511 978 564 q 905 363 948 431 q 794 237 863 295 q 652 151 727 181 q 504 122 580 122 q 367 151 428 122 q 266 237 308 180 q 212 363 223 296 q 208 416 208 389 q 220 511 208 462 q 281 661 239 593 q 393 787 324 730 q 533 873 460 843 q 684 903 605 903 m 671 848 q 543 824 606 848 q 421 749 481 800 q 324 640 362 700 q 271 515 286 581 l 270 511 q 260 435 260 472 q 265 384 260 408 q 312 275 274 332 q 337 245 323 258 l 398 507 q 471 674 422 611 q 670 787 558 787 q 800 718 762 787 q 821 637 821 681 q 816 593 821 622 q 743 473 802 527 q 680 429 714 446 l 755 266 l 767 275 q 862 383 823 323 q 916 511 899 441 q 926 594 926 555 q 922 641 926 618 q 876 749 911 700 q 789 824 840 800 q 671 848 736 848 m 500 507 l 497 496 l 586 496 q 671 522 642 496 q 714 593 706 553 q 718 623 718 609 q 704 669 718 650 q 649 696 685 696 q 550 631 598 696 q 500 507 519 589 m 361 223 q 398 201 380 210 q 516 176 449 176 q 645 201 581 176 q 730 248 688 218 l 669 221 l 652 221 l 567 404 l 476 404 l 442 258 l 361 223 z "},"¯":{"ha":823,"x_min":310,"x_max":958,"o":"m 310 901 l 311 907 l 393 1024 l 958 1024 l 956 1017 l 875 901 l 310 901 z "},"°":{"ha":704,"x_min":271,"x_max":787,"o":"m 646 766 q 654 834 654 804 q 639 900 654 874 q 568 938 616 938 q 482 902 521 938 q 412 766 433 855 q 403 699 403 728 q 420 631 403 657 q 489 595 443 595 q 576 631 538 595 q 646 766 625 677 m 279 768 q 404 969 307 886 q 591 1038 485 1038 q 746 970 698 1038 q 787 836 787 911 q 779 766 787 803 q 652 563 750 646 q 467 495 572 495 q 311 564 359 495 q 271 694 271 621 q 279 768 271 731 z "},"±":{"ha":823,"x_min":140,"x_max":881,"o":"m 140 165 l 141 172 l 223 288 l 788 288 l 787 281 l 705 165 l 140 165 m 690 938 l 633 690 l 881 690 l 879 683 l 798 566 l 604 566 l 559 373 l 430 318 l 423 318 l 481 566 l 233 566 l 234 573 l 316 690 l 509 690 l 554 883 l 683 938 l 690 938 z "},"²":{"ha":583,"x_min":233,"x_max":667,"o":"m 316 495 q 246 517 266 495 q 233 555 233 532 q 235 579 233 567 q 452 776 267 703 q 559 861 549 814 q 563 889 563 877 q 556 920 563 906 q 498 946 542 946 q 399 882 447 946 l 381 882 l 315 918 q 519 1038 410 1038 q 646 983 610 1038 q 667 905 667 949 q 662 857 667 880 q 485 695 639 761 q 372 636 406 661 q 334 593 337 610 q 337 587 332 587 l 493 587 q 538 627 520 587 l 559 627 l 618 595 q 472 495 571 495 l 316 495 z "},"³":{"ha":573,"x_min":243,"x_max":655,"o":"m 243 610 l 326 646 l 343 646 q 416 573 357 573 q 487 602 456 573 q 523 665 514 627 q 525 682 525 673 q 515 711 525 698 q 444 732 500 732 l 401 785 l 532 932 l 368 932 l 374 957 l 422 1024 l 590 1024 q 655 979 655 1024 q 652 960 655 972 q 601 882 646 930 l 538 817 q 599 781 574 808 q 629 702 629 747 q 625 665 629 685 q 545 536 608 588 q 392 483 479 483 q 243 610 277 483 z "},"´":{"ha":439,"x_min":290,"x_max":567,"o":"m 454 1051 l 461 1051 l 567 994 l 368 780 l 361 780 l 290 817 l 454 1051 z "},"µ":{"ha":816,"x_min":52,"x_max":872,"o":"m 872 773 l 780 373 q 679 143 747 231 q 405 -14 557 -14 q 266 37 319 -14 l 201 -244 l 58 -305 l 52 -305 l 208 373 q 401 631 246 537 l 234 631 l 235 637 l 311 746 l 629 746 l 627 739 l 551 631 q 414 519 456 574 q 344 373 363 454 q 325 239 325 291 q 330 191 325 211 q 432 102 355 102 q 574 191 509 102 q 644 373 615 247 l 722 712 l 865 773 l 872 773 z "},"¶":{"ha":800,"x_min":253,"x_max":841,"o":"m 523 -27 l 623 410 q 470 376 548 376 q 302 454 362 376 q 253 610 253 518 q 265 709 253 656 q 421 963 302 867 q 623 1038 513 1038 q 792 966 735 1038 q 841 812 841 904 q 828 709 841 764 l 673 34 l 623 13 l 798 771 l 754 771 l 574 -8 l 530 -27 l 523 -27 z "},"·":{"ha":407,"x_min":237,"x_max":406,"o":"m 240 511 q 277 570 248 545 q 341 594 307 594 q 393 570 376 594 q 406 531 406 552 q 404 511 406 523 q 366 452 393 475 q 302 428 336 428 q 250 453 268 428 q 237 489 237 469 q 240 511 237 498 z "},"¸":{"ha":413,"x_min":71,"x_max":309,"o":"m 189 189 q 309 14 309 116 q 304 -28 309 -7 q 193 -194 284 -121 l 186 -194 l 71 -133 q 195 8 175 -75 q 198 37 198 22 q 152 155 198 94 l 189 189 z "},"¹":{"ha":456,"x_min":296,"x_max":513,"o":"m 296 481 l 400 933 l 300 860 l 327 975 l 438 1051 q 502 1029 485 1051 q 513 994 513 1015 q 511 971 513 983 l 406 518 l 320 481 l 296 481 z "},"º":{"ha":648,"x_min":205,"x_max":682,"o":"m 455 831 q 446 766 446 791 q 448 746 446 754 q 488 709 457 709 q 545 746 517 709 q 578 831 565 773 q 587 895 587 871 q 585 916 587 907 q 544 953 576 953 q 486 916 511 953 q 455 831 469 891 m 359 831 q 414 952 376 904 q 564 1038 480 1038 q 674 952 647 1038 q 682 899 682 928 q 673 831 682 868 q 618 709 655 757 q 468 624 551 624 q 359 707 391 624 q 350 761 350 730 q 359 831 350 791 m 205 450 l 208 457 l 289 574 l 678 574 l 677 567 l 595 450 l 205 450 z "},"»":{"ha":819,"x_min":196,"x_max":842,"o":"m 308 206 l 301 206 l 196 262 l 425 539 l 324 815 l 454 871 l 461 871 l 581 537 l 308 206 m 569 206 l 562 206 l 457 262 l 686 539 l 585 815 l 715 871 l 722 871 l 842 537 l 569 206 z "},"¼":{"ha":997,"x_min":147,"x_max":958,"o":"m 296 481 l 400 933 l 300 860 l 327 975 l 438 1051 q 502 1029 485 1051 q 513 994 513 1015 q 511 971 513 983 l 406 518 l 320 481 l 296 481 m 702 -27 l 733 108 l 583 108 q 513 153 513 108 q 515 171 513 161 q 549 231 522 201 l 841 543 q 907 521 889 543 q 919 484 919 506 q 916 463 919 475 l 856 199 l 914 199 l 909 175 l 861 108 l 835 108 l 812 9 l 726 -27 l 702 -27 m 754 199 l 795 377 l 632 199 l 754 199 m 233 -27 l 147 19 l 867 1051 l 873 1051 l 958 1005 l 239 -27 l 233 -27 z "},"½":{"ha":1053,"x_min":147,"x_max":989,"o":"m 637 0 q 568 22 587 0 q 554 60 554 37 q 557 84 554 72 q 773 281 588 208 q 881 366 871 319 q 884 394 884 382 q 878 425 884 411 q 820 451 863 451 q 720 387 768 451 l 703 387 l 636 422 q 841 543 731 543 q 967 488 932 543 q 989 410 989 454 q 983 362 989 385 q 806 200 960 266 q 694 141 727 166 q 655 98 659 115 q 659 92 654 92 l 814 92 q 860 132 842 92 l 880 132 l 940 100 q 793 0 892 0 l 637 0 m 296 481 l 400 933 l 300 860 l 327 975 l 438 1051 q 502 1029 485 1051 q 513 994 513 1015 q 511 971 513 983 l 406 518 l 320 481 l 296 481 m 233 -27 l 147 19 l 867 1051 l 873 1051 l 958 1005 l 239 -27 l 233 -27 z "},"¾":{"ha":1130,"x_min":243,"x_max":1091,"o":"m 835 -27 l 866 108 l 716 108 q 646 153 646 108 q 648 171 646 160 q 682 231 654 199 l 974 543 q 1040 521 1022 543 q 1052 484 1052 506 q 1049 463 1052 475 l 989 199 l 1047 199 l 1042 175 l 994 108 l 968 108 l 945 9 l 859 -27 l 835 -27 m 887 199 l 928 377 l 765 199 l 887 199 m 243 610 l 326 646 l 343 646 q 416 573 357 573 q 487 602 456 573 q 523 665 514 627 q 525 682 525 673 q 515 711 525 698 q 444 732 500 732 l 401 785 l 532 932 l 368 932 l 374 957 l 422 1024 l 590 1024 q 655 979 655 1024 q 652 960 655 972 q 601 882 646 930 l 538 817 q 599 781 574 808 q 629 702 629 747 q 625 665 629 685 q 545 536 608 588 q 392 483 479 483 q 243 610 277 483 m 366 -27 l 280 19 l 1000 1051 l 1006 1051 l 1091 1005 l 372 -27 l 366 -27 z "},"¿":{"ha":833,"x_min":163,"x_max":797,"o":"m 746 955 q 709 896 738 920 q 645 871 680 871 q 593 896 610 871 q 580 935 580 913 q 583 955 580 943 q 620 1013 593 991 q 684 1038 650 1038 q 736 1013 718 1038 q 749 977 749 996 q 746 955 749 967 m 797 195 q 433 -14 635 -14 q 204 85 271 -14 q 163 225 163 145 q 174 313 163 267 q 479 622 221 515 q 551 716 535 645 l 697 779 l 704 779 q 528 534 661 597 q 309 313 340 446 q 300 245 300 275 q 320 167 300 198 q 459 102 361 102 q 692 248 583 102 l 699 248 l 797 195 z "},"À":{"ha":986,"x_min":116,"x_max":1027,"o":"m 116 -27 l 240 512 q 378 829 286 709 q 743 1038 541 1038 q 1010 829 945 1038 q 1027 705 1027 775 q 1002 512 1027 620 q 865 212 956 311 q 752 115 809 150 l 945 115 l 943 109 l 867 0 l 492 0 l 494 7 l 570 115 q 745 243 669 146 q 852 454 827 347 l 363 454 l 266 34 l 123 -27 l 116 -27 m 391 570 l 879 570 q 891 692 891 639 q 882 776 891 740 q 716 922 843 922 q 483 777 589 922 q 391 570 428 701 m 732 1333 l 739 1333 l 795 1099 l 707 1062 l 701 1062 l 600 1276 l 732 1333 z "},"Á":{"ha":986,"x_min":116,"x_max":1027,"o":"m 116 -27 l 240 512 q 378 829 286 709 q 743 1038 541 1038 q 1010 829 945 1038 q 1027 705 1027 775 q 1002 512 1027 620 q 865 212 956 311 q 752 115 809 150 l 945 115 l 943 109 l 867 0 l 492 0 l 494 7 l 570 115 q 745 243 669 146 q 852 454 827 347 l 363 454 l 266 34 l 123 -27 l 116 -27 m 391 570 l 879 570 q 891 692 891 639 q 882 776 891 740 q 716 922 843 922 q 483 777 589 922 q 391 570 428 701 m 882 1333 l 889 1333 l 995 1276 l 796 1062 l 789 1062 l 718 1099 l 882 1333 z "},"Â":{"ha":986,"x_min":116,"x_max":1027,"o":"m 116 -27 l 240 512 q 378 829 286 709 q 743 1038 541 1038 q 1010 829 945 1038 q 1027 705 1027 775 q 1002 512 1027 620 q 865 212 956 311 q 752 115 809 150 l 945 115 l 943 109 l 867 0 l 492 0 l 494 7 l 570 115 q 745 243 669 146 q 852 454 827 347 l 363 454 l 266 34 l 123 -27 l 116 -27 m 391 570 l 879 570 q 891 692 891 639 q 882 776 891 740 q 716 922 843 922 q 483 777 589 922 q 391 570 428 701 m 568 1099 l 713 1276 l 846 1333 l 852 1333 l 943 1099 l 856 1062 l 849 1062 l 780 1203 l 647 1062 l 640 1062 l 568 1099 z "},"Ã":{"ha":986,"x_min":116,"x_max":1027,"o":"m 116 -27 l 240 512 q 378 829 286 709 q 743 1038 541 1038 q 1010 829 945 1038 q 1027 705 1027 775 q 1002 512 1027 620 q 865 212 956 311 q 752 115 809 150 l 945 115 l 943 109 l 867 0 l 492 0 l 494 7 l 570 115 q 745 243 669 146 q 852 454 827 347 l 363 454 l 266 34 l 123 -27 l 116 -27 m 391 570 l 879 570 q 891 692 891 639 q 882 776 891 740 q 716 922 843 922 q 483 777 589 922 q 391 570 428 701 m 596 1111 q 736 1305 641 1305 q 819 1257 780 1305 q 862 1224 846 1224 q 896 1273 885 1224 l 978 1305 l 982 1305 q 842 1111 937 1111 q 760 1158 798 1111 q 717 1192 733 1192 q 682 1143 694 1192 l 600 1111 l 596 1111 z "},"Ä":{"ha":986,"x_min":116,"x_max":1027,"o":"m 804 1222 q 842 1281 812 1257 q 905 1305 871 1305 q 958 1281 940 1305 q 970 1242 970 1263 q 968 1222 970 1234 q 930 1164 958 1186 q 866 1139 901 1139 q 814 1164 832 1139 q 802 1200 802 1181 q 804 1222 802 1210 m 600 1222 q 637 1281 608 1257 q 701 1305 667 1305 q 753 1281 736 1305 q 766 1242 766 1263 q 764 1222 766 1234 q 726 1164 753 1186 q 662 1139 696 1139 q 610 1164 628 1139 q 597 1200 597 1181 q 600 1222 597 1210 m 116 -27 l 240 512 q 378 829 286 709 q 743 1038 541 1038 q 1010 829 945 1038 q 1027 705 1027 775 q 1002 512 1027 620 q 865 212 956 311 q 752 115 809 150 l 945 115 l 943 109 l 867 0 l 492 0 l 494 7 l 570 115 q 745 243 669 146 q 852 454 827 347 l 363 454 l 266 34 l 123 -27 l 116 -27 m 391 570 l 879 570 q 891 692 891 639 q 882 776 891 740 q 716 922 843 922 q 483 777 589 922 q 391 570 428 701 z "},"Å":{"ha":986,"x_min":116,"x_max":1027,"o":"m 116 -27 l 240 512 q 378 829 286 709 q 743 1038 541 1038 q 1010 829 945 1038 q 1027 705 1027 775 q 1002 512 1027 620 q 865 212 956 311 q 752 115 809 150 l 945 115 l 943 109 l 867 0 l 492 0 l 494 7 l 570 115 q 745 243 669 146 q 852 454 827 347 l 363 454 l 266 34 l 123 -27 l 116 -27 m 391 570 l 879 570 q 891 692 891 639 q 882 776 891 740 q 716 922 843 922 q 483 777 589 922 q 391 570 428 701 m 749 1077 q 663 1110 693 1077 q 640 1175 640 1137 q 643 1205 640 1189 q 707 1300 654 1260 q 806 1333 751 1333 q 890 1300 861 1333 q 914 1237 914 1274 q 910 1205 914 1222 q 848 1109 896 1145 q 749 1077 805 1077 m 790 1263 q 750 1249 767 1263 q 726 1205 732 1234 q 724 1184 724 1193 q 730 1161 724 1168 q 763 1147 743 1147 q 802 1162 785 1147 q 825 1205 819 1176 q 828 1226 828 1217 q 821 1249 828 1240 q 790 1263 810 1262 z "},"Æ":{"ha":1572,"x_min":116,"x_max":1636,"o":"m 391 570 l 879 570 q 891 692 891 639 q 882 776 891 740 q 716 922 843 922 q 484 777 591 922 q 391 570 426 697 m 1565 321 q 1489 195 1537 258 q 1125 -14 1329 -14 q 859 189 926 -14 q 574 -27 730 22 l 568 -27 l 540 74 q 760 248 673 131 q 852 454 815 324 l 363 454 l 266 34 l 123 -27 l 116 -27 l 240 512 q 378 829 286 709 q 743 1038 541 1038 q 1008 835 943 1038 q 1368 1038 1168 1038 q 1636 829 1571 1038 l 1514 776 l 1507 776 q 1341 922 1468 922 q 1108 776 1215 922 q 1016 570 1053 701 l 1421 570 l 1420 563 l 1344 454 l 989 454 q 977 328 977 382 q 986 248 977 281 q 1152 102 1028 102 q 1385 248 1278 102 l 1558 321 l 1565 321 z "},"Ç":{"ha":926,"x_min":195,"x_max":990,"o":"m 919 321 q 844 195 892 258 q 524 -11 701 9 q 548 -97 548 -51 q 543 -140 548 -118 q 431 -305 523 -232 l 425 -305 l 310 -244 q 433 -103 414 -186 q 437 -74 437 -89 q 422 -9 437 -43 q 212 195 268 18 q 195 319 195 249 q 220 512 195 404 q 358 829 266 710 q 722 1038 521 1038 q 990 829 925 1038 l 868 776 l 861 776 q 696 922 822 922 q 463 776 570 922 q 355 512 394 683 q 331 329 331 404 q 340 248 331 283 q 507 102 380 102 q 739 248 632 102 l 912 321 l 919 321 z "},"È":{"ha":926,"x_min":195,"x_max":990,"o":"m 919 321 q 844 195 892 258 q 479 -14 683 -14 q 212 195 277 -14 q 195 319 195 249 q 220 512 195 404 q 358 829 266 710 q 722 1038 521 1038 q 990 829 925 1038 l 868 776 l 861 776 q 696 922 822 922 q 463 776 570 922 q 370 570 408 701 l 776 570 l 774 563 l 699 454 l 344 454 q 331 328 331 382 q 340 248 331 281 q 507 102 382 102 q 739 248 632 102 l 912 321 l 919 321 m 709 1333 l 716 1333 l 772 1099 l 684 1062 l 677 1062 l 577 1276 l 709 1333 z "},"É":{"ha":926,"x_min":195,"x_max":990,"o":"m 919 321 q 844 195 892 258 q 479 -14 683 -14 q 212 195 277 -14 q 195 319 195 249 q 220 512 195 404 q 358 829 266 710 q 722 1038 521 1038 q 990 829 925 1038 l 868 776 l 861 776 q 696 922 822 922 q 463 776 570 922 q 370 570 408 701 l 776 570 l 774 563 l 699 454 l 344 454 q 331 328 331 382 q 340 248 331 281 q 507 102 382 102 q 739 248 632 102 l 912 321 l 919 321 m 870 1333 l 877 1333 l 983 1276 l 784 1062 l 777 1062 l 707 1099 l 870 1333 z "},"Ê":{"ha":926,"x_min":195,"x_max":990,"o":"m 919 321 q 844 195 892 258 q 479 -14 683 -14 q 212 195 277 -14 q 195 319 195 249 q 220 512 195 404 q 358 829 266 710 q 722 1038 521 1038 q 990 829 925 1038 l 868 776 l 861 776 q 696 922 822 922 q 463 776 570 922 q 370 570 408 701 l 776 570 l 774 563 l 699 454 l 344 454 q 331 328 331 382 q 340 248 331 281 q 507 102 382 102 q 739 248 632 102 l 912 321 l 919 321 m 559 1099 l 704 1276 l 836 1333 l 843 1333 l 934 1099 l 846 1062 l 840 1062 l 770 1203 l 637 1062 l 631 1062 l 559 1099 z "},"Ë":{"ha":926,"x_min":195,"x_max":990,"o":"m 804 1222 q 842 1281 812 1257 q 905 1305 871 1305 q 958 1281 940 1305 q 970 1242 970 1263 q 968 1222 970 1234 q 930 1164 958 1186 q 866 1139 901 1139 q 814 1164 832 1139 q 802 1200 802 1181 q 804 1222 802 1210 m 600 1222 q 637 1281 608 1257 q 701 1305 667 1305 q 753 1281 736 1305 q 766 1242 766 1263 q 764 1222 766 1234 q 726 1164 753 1186 q 662 1139 696 1139 q 610 1164 628 1139 q 597 1200 597 1181 q 600 1222 597 1210 m 919 321 q 844 195 892 258 q 479 -14 683 -14 q 212 195 277 -14 q 195 319 195 249 q 220 512 195 404 q 358 829 266 710 q 722 1038 521 1038 q 990 829 925 1038 l 868 776 l 861 776 q 696 922 822 922 q 463 776 570 922 q 370 570 408 701 l 776 570 l 774 563 l 699 454 l 344 454 q 331 328 331 382 q 340 248 331 281 q 507 102 382 102 q 739 248 632 102 l 912 321 l 919 321 z "},"Ì":{"ha":407,"x_min":130,"x_max":534,"o":"m 472 1333 l 479 1333 l 534 1099 l 447 1062 l 440 1062 l 339 1276 l 472 1333 m 130 -27 l 364 990 l 507 1051 l 514 1051 l 279 34 l 136 -27 l 130 -27 z "},"Í":{"ha":407,"x_min":130,"x_max":656,"o":"m 544 1333 l 551 1333 l 656 1276 l 458 1062 l 451 1062 l 380 1099 l 544 1333 m 130 -27 l 364 990 l 507 1051 l 514 1051 l 279 34 l 136 -27 l 130 -27 z "},"Î":{"ha":407,"x_min":130,"x_max":644,"o":"m 130 -27 l 364 990 l 507 1051 l 514 1051 l 279 34 l 136 -27 l 130 -27 m 270 1099 l 414 1276 l 547 1333 l 553 1333 l 644 1099 l 557 1062 l 550 1062 l 481 1203 l 348 1062 l 341 1062 l 270 1099 z "},"Ï":{"ha":407,"x_min":130,"x_max":671,"o":"m 505 1222 q 543 1281 513 1257 q 606 1305 572 1305 q 659 1281 641 1305 q 671 1242 671 1263 q 669 1222 671 1234 q 631 1164 659 1186 q 567 1139 602 1139 q 515 1164 533 1139 q 503 1200 503 1181 q 505 1222 503 1210 m 301 1222 q 338 1281 309 1257 q 402 1305 368 1305 q 454 1281 437 1305 q 467 1242 467 1263 q 465 1222 467 1234 q 427 1164 454 1186 q 363 1139 397 1139 q 311 1164 329 1139 q 298 1200 298 1181 q 301 1222 298 1210 m 130 -27 l 364 990 l 507 1051 l 514 1051 l 279 34 l 136 -27 l 130 -27 z "},"Ð":{"ha":986,"x_min":116,"x_max":1027,"o":"m 116 -27 l 227 454 l 139 454 l 140 461 l 216 570 l 255 570 q 378 829 300 727 q 743 1038 540 1038 q 1010 829 947 1038 q 1027 706 1027 775 q 1002 512 1027 622 q 867 213 964 342 q 503 0 707 0 l 372 0 l 374 7 l 450 115 l 530 115 q 762 266 655 115 q 867 512 833 365 q 891 693 891 618 q 882 776 891 740 q 716 922 843 922 q 483 776 590 922 q 391 570 427 700 l 709 570 l 707 563 l 631 454 l 362 454 l 266 34 l 123 -27 l 116 -27 z "},"Ñ":{"ha":986,"x_min":116,"x_max":1027,"o":"m 116 -27 l 240 512 q 378 829 286 709 q 743 1038 541 1038 q 1010 829 945 1038 q 1027 705 1027 775 q 1002 512 1027 620 q 865 212 956 311 q 752 115 809 150 l 945 115 l 943 109 l 867 0 l 492 0 l 494 7 l 570 115 q 745 243 669 146 q 867 512 829 348 q 891 693 891 618 q 882 776 891 740 q 716 922 843 922 q 483 776 589 922 q 376 512 416 684 l 266 34 l 123 -27 l 116 -27 m 596 1111 q 736 1305 641 1305 q 819 1257 780 1305 q 862 1224 846 1224 q 896 1273 885 1224 l 978 1305 l 982 1305 q 842 1111 937 1111 q 760 1158 798 1111 q 717 1192 733 1192 q 682 1143 694 1192 l 600 1111 l 596 1111 z "},"Ò":{"ha":966,"x_min":195,"x_max":1006,"o":"m 355 512 q 331 329 331 404 q 340 248 331 282 q 507 102 380 102 q 739 248 631 102 q 846 512 806 339 q 871 693 871 618 q 861 776 871 740 q 696 922 823 922 q 463 776 570 922 q 355 512 394 683 m 220 511 q 358 829 265 709 q 722 1038 521 1038 q 990 829 926 1038 q 1006 706 1006 775 q 982 512 1006 622 q 844 195 937 315 q 479 -14 681 -14 q 212 195 278 -14 q 195 319 195 248 q 220 511 195 406 m 712 1333 l 719 1333 l 774 1099 l 687 1062 l 680 1062 l 579 1276 l 712 1333 z "},"Ó":{"ha":966,"x_min":195,"x_max":1006,"o":"m 355 512 q 331 329 331 404 q 340 248 331 282 q 507 102 380 102 q 739 248 631 102 q 846 512 806 339 q 871 693 871 618 q 861 776 871 740 q 696 922 823 922 q 463 776 570 922 q 355 512 394 683 m 220 511 q 358 829 265 709 q 722 1038 521 1038 q 990 829 926 1038 q 1006 706 1006 775 q 982 512 1006 622 q 844 195 937 315 q 479 -14 681 -14 q 212 195 278 -14 q 195 319 195 248 q 220 511 195 406 m 862 1333 l 869 1333 l 975 1276 l 776 1062 l 769 1062 l 698 1099 l 862 1333 z "},"Ô":{"ha":966,"x_min":195,"x_max":1006,"o":"m 355 512 q 331 329 331 404 q 340 248 331 282 q 507 102 380 102 q 739 248 631 102 q 846 512 806 339 q 871 693 871 618 q 861 776 871 740 q 696 922 823 922 q 463 776 570 922 q 355 512 394 683 m 220 511 q 358 829 265 709 q 722 1038 521 1038 q 990 829 926 1038 q 1006 706 1006 775 q 982 512 1006 622 q 844 195 937 315 q 479 -14 681 -14 q 212 195 278 -14 q 195 319 195 248 q 220 511 195 406 m 548 1099 l 692 1276 l 825 1333 l 832 1333 l 922 1099 l 836 1062 l 829 1062 l 760 1203 l 627 1062 l 620 1062 l 548 1099 z "},"Õ":{"ha":966,"x_min":195,"x_max":1006,"o":"m 355 512 q 331 329 331 404 q 340 248 331 282 q 507 102 380 102 q 739 248 631 102 q 846 512 806 339 q 871 693 871 618 q 861 776 871 740 q 696 922 823 922 q 463 776 570 922 q 355 512 394 683 m 220 511 q 358 829 265 709 q 722 1038 521 1038 q 990 829 926 1038 q 1006 706 1006 775 q 982 512 1006 622 q 844 195 937 315 q 479 -14 681 -14 q 212 195 278 -14 q 195 319 195 248 q 220 511 195 406 m 576 1111 q 716 1305 621 1305 q 798 1257 760 1305 q 842 1224 825 1224 q 876 1273 865 1224 l 958 1305 l 962 1305 q 821 1111 917 1111 q 739 1158 777 1111 q 696 1192 713 1192 q 662 1143 673 1192 l 580 1111 l 576 1111 z "},"Ö":{"ha":966,"x_min":195,"x_max":1006,"o":"m 355 512 q 331 329 331 404 q 340 248 331 282 q 507 102 380 102 q 739 248 631 102 q 846 512 806 339 q 871 693 871 618 q 861 776 871 740 q 696 922 823 922 q 463 776 570 922 q 355 512 394 683 m 220 511 q 358 829 265 709 q 722 1038 521 1038 q 990 829 926 1038 q 1006 706 1006 775 q 982 512 1006 622 q 844 195 937 315 q 479 -14 681 -14 q 212 195 278 -14 q 195 319 195 248 q 220 511 195 406 m 804 1222 q 842 1281 812 1257 q 905 1305 871 1305 q 958 1281 940 1305 q 970 1242 970 1263 q 968 1222 970 1234 q 930 1164 958 1186 q 866 1139 901 1139 q 814 1164 832 1139 q 802 1200 802 1181 q 804 1222 802 1210 m 600 1222 q 637 1281 608 1257 q 701 1305 667 1305 q 753 1281 736 1305 q 766 1242 766 1263 q 764 1222 766 1234 q 726 1164 753 1186 q 662 1139 696 1139 q 610 1164 628 1139 q 597 1200 597 1181 q 600 1222 597 1210 z "},"×":{"ha":729,"x_min":180,"x_max":786,"o":"m 183 332 l 180 336 l 395 512 l 260 688 l 267 692 l 397 736 l 503 600 l 671 736 l 783 692 l 786 688 l 570 512 l 705 336 l 699 332 l 568 288 l 463 425 l 294 288 l 183 332 z "},"Ø":{"ha":966,"x_min":195,"x_max":1007,"o":"m 273 -27 l 266 -27 l 203 7 l 262 92 q 212 195 231 136 q 195 319 195 249 q 220 512 195 404 q 358 829 266 710 q 722 1038 521 1038 q 886 989 821 1038 l 930 1051 l 937 1051 l 999 1017 l 940 932 q 990 829 971 890 q 1007 705 1007 774 q 982 512 1007 619 q 844 195 936 315 q 479 -14 683 -14 q 316 35 382 -14 l 273 -27 m 357 512 q 331 326 331 401 q 340 248 331 281 q 351 219 344 237 l 809 878 q 696 922 766 922 q 464 776 575 922 q 357 512 397 689 m 852 806 l 394 147 q 507 102 437 102 q 739 248 631 102 q 846 512 804 336 q 872 696 872 620 q 863 777 872 742 q 852 806 859 791 z "},"Ù":{"ha":1000,"x_min":195,"x_max":1107,"o":"m 1107 1051 l 982 512 q 844 195 937 316 q 479 -14 682 -14 q 212 195 277 -14 q 195 319 195 250 q 220 512 195 405 q 357 812 267 713 q 470 909 414 875 l 277 909 l 279 916 l 355 1024 l 730 1024 l 728 1017 l 652 909 q 477 781 553 878 q 355 512 392 673 q 331 330 331 405 q 340 248 331 282 q 507 102 381 102 q 739 248 631 102 q 846 512 807 340 l 957 990 l 1100 1051 l 1107 1051 m 780 1333 l 787 1333 l 842 1099 l 755 1062 l 748 1062 l 647 1276 l 780 1333 z "},"Ú":{"ha":1000,"x_min":195,"x_max":1107,"o":"m 1107 1051 l 982 512 q 844 195 937 316 q 479 -14 682 -14 q 212 195 277 -14 q 195 319 195 250 q 220 512 195 405 q 357 812 267 713 q 470 909 414 875 l 277 909 l 279 916 l 355 1024 l 730 1024 l 728 1017 l 652 909 q 477 781 553 878 q 355 512 392 673 q 331 330 331 405 q 340 248 331 282 q 507 102 381 102 q 739 248 631 102 q 846 512 807 340 l 957 990 l 1100 1051 l 1107 1051 m 930 1333 l 937 1333 l 1042 1276 l 844 1062 l 837 1062 l 766 1099 l 930 1333 z "},"Û":{"ha":1000,"x_min":195,"x_max":1107,"o":"m 1107 1051 l 982 512 q 844 195 937 316 q 479 -14 682 -14 q 212 195 277 -14 q 195 319 195 250 q 220 512 195 405 q 357 812 267 713 q 470 909 414 875 l 277 909 l 279 916 l 355 1024 l 730 1024 l 728 1017 l 652 909 q 477 781 553 878 q 355 512 392 673 q 331 330 331 405 q 340 248 331 282 q 507 102 381 102 q 739 248 631 102 q 846 512 807 340 l 957 990 l 1100 1051 l 1107 1051 m 616 1099 l 760 1276 l 893 1333 l 900 1333 l 990 1099 l 903 1062 l 897 1062 l 827 1203 l 694 1062 l 688 1062 l 616 1099 z "},"Ü":{"ha":1000,"x_min":195,"x_max":1107,"o":"m 1107 1051 l 982 512 q 844 195 937 316 q 479 -14 682 -14 q 212 195 277 -14 q 195 319 195 250 q 220 512 195 405 q 357 812 267 713 q 470 909 414 875 l 277 909 l 279 916 l 355 1024 l 730 1024 l 728 1017 l 652 909 q 477 781 553 878 q 355 512 392 673 q 331 330 331 405 q 340 248 331 282 q 507 102 381 102 q 739 248 631 102 q 846 512 807 340 l 957 990 l 1100 1051 l 1107 1051 m 847 1222 q 884 1281 855 1257 q 948 1305 913 1305 q 1000 1281 983 1305 q 1013 1242 1013 1263 q 1010 1222 1013 1234 q 973 1164 1000 1186 q 909 1139 943 1139 q 857 1164 875 1139 q 844 1200 844 1181 q 847 1222 844 1210 m 643 1222 q 680 1281 651 1257 q 744 1305 709 1305 q 796 1281 779 1305 q 809 1242 809 1263 q 806 1222 809 1234 q 769 1164 796 1186 q 705 1139 739 1139 q 652 1164 671 1139 q 640 1200 640 1181 q 643 1222 640 1210 z "},"Ý":{"ha":930,"x_min":218,"x_max":1038,"o":"m 366 647 q 356 566 356 604 q 388 451 356 498 q 532 376 437 376 q 702 446 625 376 q 799 606 778 515 l 888 990 l 1031 1051 l 1038 1051 l 803 34 l 660 -27 l 653 -27 l 742 359 q 506 260 634 260 q 254 399 331 260 q 218 546 218 464 q 231 647 218 593 q 311 803 250 734 q 470 909 370 869 l 277 909 l 279 916 l 355 1024 l 730 1024 l 728 1017 l 652 909 q 454 800 541 882 q 366 647 387 736 m 862 1333 l 869 1333 l 975 1276 l 776 1062 l 769 1062 l 698 1099 l 862 1333 z "},"Þ":{"ha":945,"x_min":130,"x_max":1001,"o":"m 130 -27 l 364 990 l 507 1051 l 514 1051 l 455 795 q 726 904 580 904 q 963 779 894 904 q 1001 632 1001 711 q 991 548 1001 591 q 858 330 964 432 q 530 205 728 205 l 399 205 l 401 212 l 477 321 l 557 321 q 753 383 684 321 q 855 548 835 456 q 863 617 863 585 q 831 726 863 680 q 699 789 785 789 q 466 642 573 789 q 359 378 398 549 l 279 34 l 136 -27 l 130 -27 z "},"ß":{"ha":847,"x_min":116,"x_max":873,"o":"m 116 -27 l 273 651 q 374 881 304 791 q 647 1038 496 1038 q 825 972 766 1038 q 873 845 873 920 q 864 777 873 812 q 705 586 836 656 q 773 546 743 577 q 829 399 829 488 q 819 320 829 363 q 666 87 788 189 q 400 -14 548 -12 l 346 -14 l 348 -7 l 422 101 q 587 168 505 101 q 681 317 660 229 q 690 384 690 355 q 673 452 690 426 q 530 517 636 517 l 531 524 l 611 640 q 675 677 646 651 q 729 778 714 712 q 735 826 735 804 q 715 889 735 863 q 629 929 681 929 q 478 833 551 929 q 410 661 437 779 l 266 34 l 123 -27 l 116 -27 z "},"à":{"ha":795,"x_min":171,"x_max":779,"o":"m 385 -14 q 184 143 234 -14 q 171 239 171 186 q 188 373 171 300 q 290 603 222 516 q 564 760 412 760 q 764 603 717 760 q 777 507 777 559 q 760 373 777 446 l 701 118 q 726 88 694 88 l 779 88 l 777 81 l 701 -27 q 559 75 559 -27 q 565 118 559 94 l 624 373 q 643 509 643 457 q 638 555 643 535 q 536 644 613 644 q 394 555 460 644 q 323 373 353 498 q 304 239 304 291 q 310 191 304 211 q 410 102 334 102 l 463 102 l 460 95 l 385 -14 m 538 1062 l 545 1062 l 600 828 l 512 791 l 505 791 l 405 1005 l 538 1062 z "},"á":{"ha":795,"x_min":171,"x_max":808,"o":"m 385 -14 q 184 143 234 -14 q 171 239 171 186 q 188 373 171 300 q 290 603 222 516 q 564 760 412 760 q 764 603 717 760 q 777 507 777 559 q 760 373 777 446 l 701 118 q 726 88 694 88 l 779 88 l 777 81 l 701 -27 q 559 75 559 -27 q 565 118 559 94 l 624 373 q 643 509 643 457 q 638 555 643 535 q 536 644 613 644 q 394 555 460 644 q 323 373 353 498 q 304 239 304 291 q 310 191 304 211 q 410 102 334 102 l 463 102 l 460 95 l 385 -14 m 695 1062 l 702 1062 l 808 1005 l 608 791 l 602 791 l 531 828 l 695 1062 z "},"â":{"ha":795,"x_min":171,"x_max":779,"o":"m 385 -14 q 184 143 234 -14 q 171 239 171 186 q 188 373 171 300 q 290 603 222 516 q 564 760 412 760 q 764 603 717 760 q 777 507 777 559 q 760 373 777 446 l 701 118 q 726 88 694 88 l 779 88 l 777 81 l 701 -27 q 559 75 559 -27 q 565 118 559 94 l 624 373 q 643 509 643 457 q 638 555 643 535 q 536 644 613 644 q 394 555 460 644 q 323 373 353 498 q 304 239 304 291 q 310 191 304 211 q 410 102 334 102 l 463 102 l 460 95 l 385 -14 m 377 828 l 522 1005 l 654 1062 l 661 1062 l 751 828 l 664 791 l 657 791 l 588 932 l 455 791 l 448 791 l 377 828 z "},"ã":{"ha":795,"x_min":171,"x_max":797,"o":"m 385 -14 q 184 143 234 -14 q 171 239 171 186 q 188 373 171 300 q 290 603 222 516 q 564 760 412 760 q 764 603 717 760 q 777 507 777 559 q 760 373 777 446 l 701 118 q 726 88 694 88 l 779 88 l 777 81 l 701 -27 q 559 75 559 -27 q 565 118 559 94 l 624 373 q 643 509 643 457 q 638 555 643 535 q 536 644 613 644 q 394 555 460 644 q 323 373 353 498 q 304 239 304 291 q 310 191 304 211 q 410 102 334 102 l 463 102 l 460 95 l 385 -14 m 411 836 q 551 1029 456 1029 q 633 982 595 1029 q 677 949 661 949 q 711 998 700 949 l 793 1029 l 797 1029 q 656 836 752 836 q 575 883 614 836 q 532 916 548 916 q 497 867 509 916 l 415 836 l 411 836 z "},"ä":{"ha":795,"x_min":171,"x_max":791,"o":"m 625 954 q 663 1013 633 989 q 726 1038 692 1038 q 779 1013 761 1038 q 791 975 791 996 q 789 954 791 966 q 751 896 779 918 q 687 871 722 871 q 635 897 653 871 q 623 932 623 913 q 625 954 623 942 m 421 954 q 458 1013 429 989 q 522 1038 488 1038 q 574 1013 557 1038 q 587 975 587 996 q 585 954 587 966 q 547 896 574 918 q 483 871 517 871 q 431 897 449 871 q 418 932 418 913 q 421 954 418 942 m 385 -14 q 184 143 234 -14 q 171 239 171 186 q 188 373 171 300 q 290 603 222 516 q 564 760 412 760 q 764 603 717 760 q 777 507 777 559 q 760 373 777 446 l 701 118 q 726 88 694 88 l 779 88 l 777 81 l 701 -27 q 559 75 559 -27 q 565 118 559 94 l 624 373 q 643 509 643 457 q 638 555 643 535 q 536 644 613 644 q 394 555 460 644 q 323 373 353 498 q 304 239 304 291 q 310 191 304 211 q 410 102 334 102 l 463 102 l 460 95 l 385 -14 z "},"å":{"ha":795,"x_min":171,"x_max":779,"o":"m 561 806 q 475 839 505 806 q 452 903 452 866 q 455 934 452 918 q 519 1029 467 989 q 618 1062 564 1062 q 703 1029 673 1062 q 726 966 726 1002 q 722 934 726 951 q 661 838 708 874 q 561 806 617 806 m 602 991 q 562 977 579 991 q 538 934 545 962 q 536 913 536 922 q 543 890 536 897 q 575 876 555 876 q 614 891 597 876 q 637 934 631 905 q 640 955 640 946 q 633 978 640 969 q 602 991 623 991 m 385 -14 q 184 143 234 -14 q 171 239 171 186 q 188 373 171 300 q 290 603 222 516 q 564 760 412 760 q 764 603 717 760 q 777 507 777 559 q 760 373 777 446 l 701 118 q 726 88 694 88 l 779 88 l 777 81 l 701 -27 q 559 75 559 -27 q 565 118 559 94 l 624 373 q 643 509 643 457 q 638 555 643 535 q 536 644 613 644 q 394 555 460 644 q 323 373 353 498 q 304 239 304 291 q 310 191 304 211 q 410 102 334 102 l 463 102 l 460 95 l 385 -14 z "},"æ":{"ha":1201,"x_min":171,"x_max":1213,"o":"m 532 -27 l 624 373 q 643 510 643 458 q 638 555 643 536 q 536 644 612 644 q 394 555 460 644 q 323 373 353 498 q 304 239 304 291 q 310 191 304 211 q 410 102 334 102 l 463 102 l 460 95 l 385 -14 q 184 143 234 -14 q 171 239 171 186 q 188 373 171 298 q 290 603 220 515 q 564 760 412 760 q 752 634 696 760 q 999 760 863 760 q 1170 687 1115 760 q 1213 566 1213 631 q 1206 517 1213 542 q 1094 336 1181 413 q 880 259 1007 259 l 827 259 l 829 266 l 905 374 q 1019 414 978 374 q 1075 518 1059 452 q 1079 549 1079 534 q 1061 606 1079 582 q 972 644 1034 644 q 829 555 889 644 q 760 373 786 490 q 741 237 741 289 q 745 191 741 210 q 847 102 771 102 q 989 191 924 102 l 1152 256 l 1158 256 q 1094 143 1131 191 q 820 -14 972 -14 q 681 38 734 -14 l 538 -27 l 532 -27 z "},"ç":{"ha":745,"x_min":170,"x_max":763,"o":"m 722 256 q 658 143 695 191 q 429 -10 554 10 q 453 -95 453 -49 q 448 -140 453 -117 q 336 -305 425 -233 l 329 -305 l 214 -244 q 338 -103 319 -185 q 341 -73 341 -88 q 326 -7 341 -42 q 184 143 225 19 q 170 237 170 184 q 188 373 170 298 q 290 603 219 511 q 563 760 410 760 q 763 605 715 760 l 644 555 l 637 555 q 536 644 613 644 q 393 555 459 644 q 323 373 352 498 q 304 237 304 289 q 309 191 304 210 q 411 102 335 102 q 553 191 488 102 l 715 256 l 722 256 z "},"è":{"ha":765,"x_min":170,"x_max":777,"o":"m 722 256 q 658 143 695 191 q 384 -14 536 -14 q 184 143 236 -14 q 170 237 170 184 q 188 373 170 299 q 290 603 219 511 q 563 760 410 760 q 734 687 679 760 q 777 566 777 631 q 770 517 777 542 q 658 336 745 413 q 444 259 571 259 l 391 259 l 393 266 l 469 374 q 583 414 542 374 q 639 518 623 452 q 643 549 643 534 q 625 606 643 583 q 536 644 597 644 q 393 555 453 644 q 323 373 350 490 q 304 237 304 289 q 309 191 304 210 q 411 102 335 102 q 553 191 488 102 l 715 256 l 722 256 m 551 1062 l 558 1062 l 614 828 l 526 791 l 519 791 l 418 1005 l 551 1062 z "},"é":{"ha":765,"x_min":170,"x_max":821,"o":"m 722 256 q 658 143 695 191 q 384 -14 536 -14 q 184 143 236 -14 q 170 237 170 184 q 188 373 170 299 q 290 603 219 511 q 563 760 410 760 q 734 687 679 760 q 777 566 777 631 q 770 517 777 542 q 658 336 745 413 q 444 259 571 259 l 391 259 l 393 266 l 469 374 q 583 414 542 374 q 639 518 623 452 q 643 549 643 534 q 625 606 643 583 q 536 644 597 644 q 393 555 453 644 q 323 373 350 490 q 304 237 304 289 q 309 191 304 210 q 411 102 335 102 q 553 191 488 102 l 715 256 l 722 256 m 709 1062 l 715 1062 l 821 1005 l 622 791 l 615 791 l 545 828 l 709 1062 z "},"ê":{"ha":765,"x_min":170,"x_max":777,"o":"m 722 256 q 658 143 695 191 q 384 -14 536 -14 q 184 143 236 -14 q 170 237 170 184 q 188 373 170 299 q 290 603 219 511 q 563 760 410 760 q 734 687 679 760 q 777 566 777 631 q 770 517 777 542 q 658 336 745 413 q 444 259 571 259 l 391 259 l 393 266 l 469 374 q 583 414 542 374 q 639 518 623 452 q 643 549 643 534 q 625 606 643 583 q 536 644 597 644 q 393 555 453 644 q 323 373 350 490 q 304 237 304 289 q 309 191 304 210 q 411 102 335 102 q 553 191 488 102 l 715 256 l 722 256 m 391 828 l 535 1005 l 668 1062 l 675 1062 l 765 828 l 677 791 l 671 791 l 602 932 l 469 791 l 462 791 l 391 828 z "},"ë":{"ha":765,"x_min":170,"x_max":791,"o":"m 625 954 q 663 1013 633 989 q 726 1038 692 1038 q 779 1013 761 1038 q 791 975 791 996 q 789 954 791 966 q 751 896 779 918 q 687 871 722 871 q 635 897 653 871 q 623 932 623 913 q 625 954 623 942 m 421 954 q 458 1013 429 989 q 522 1038 488 1038 q 574 1013 557 1038 q 587 975 587 996 q 585 954 587 966 q 547 896 574 918 q 483 871 517 871 q 431 897 449 871 q 418 932 418 913 q 421 954 418 942 m 722 256 q 658 143 695 191 q 384 -14 536 -14 q 184 143 236 -14 q 170 237 170 184 q 188 373 170 299 q 290 603 219 511 q 563 760 410 760 q 734 687 679 760 q 777 566 777 631 q 770 517 777 542 q 658 336 745 413 q 444 259 571 259 l 391 259 l 393 266 l 469 374 q 583 414 542 374 q 639 518 623 452 q 643 549 643 534 q 625 606 643 583 q 536 644 597 644 q 393 555 453 644 q 323 373 350 490 q 304 237 304 289 q 309 191 304 210 q 411 102 335 102 q 553 191 488 102 l 715 256 l 722 256 z "},"ì":{"ha":407,"x_min":157,"x_max":472,"o":"m 299 -27 q 157 75 157 -27 q 163 118 157 94 l 300 712 l 443 773 l 450 773 l 298 118 q 324 88 292 88 l 376 88 l 375 81 l 299 -27 m 410 1062 l 416 1062 l 472 828 l 384 791 l 377 791 l 277 1005 l 410 1062 z "},"í":{"ha":407,"x_min":157,"x_max":594,"o":"m 299 -27 q 157 75 157 -27 q 163 118 157 94 l 300 712 l 443 773 l 450 773 l 298 118 q 324 88 292 88 l 376 88 l 375 81 l 299 -27 m 481 1062 l 488 1062 l 594 1005 l 395 791 l 388 791 l 317 828 l 481 1062 z "},"î":{"ha":407,"x_min":157,"x_max":582,"o":"m 299 -27 q 157 75 157 -27 q 163 118 157 94 l 300 712 l 443 773 l 450 773 l 298 118 q 324 88 292 88 l 376 88 l 375 81 l 299 -27 m 208 828 l 352 1005 l 485 1062 l 492 1062 l 582 828 l 494 791 l 488 791 l 418 932 l 286 791 l 279 791 l 208 828 z "},"ï":{"ha":407,"x_min":157,"x_max":610,"o":"m 444 954 q 481 1013 452 989 q 545 1038 510 1038 q 597 1013 579 1038 q 610 975 610 996 q 607 954 610 966 q 570 896 597 918 q 505 871 540 871 q 453 897 471 871 q 441 932 441 913 q 444 954 441 942 m 239 954 q 277 1013 248 989 q 340 1038 306 1038 q 393 1013 375 1038 q 406 975 406 996 q 403 954 406 966 q 366 896 393 918 q 301 871 336 871 q 249 897 267 871 q 237 932 237 913 q 239 954 237 942 m 299 -27 q 157 75 157 -27 q 163 118 157 94 l 300 712 l 443 773 l 450 773 l 298 118 q 324 88 292 88 l 376 88 l 375 81 l 299 -27 z "},"ð":{"ha":800,"x_min":160,"x_max":932,"o":"m 173 307 q 266 497 199 416 q 531 624 372 624 l 583 624 l 582 617 l 506 509 q 374 442 434 509 q 308 305 329 391 q 298 233 298 266 q 311 168 298 195 q 411 102 339 102 q 541 168 481 102 q 608 305 588 220 l 655 512 q 682 701 682 630 q 670 778 682 750 l 555 705 l 549 705 l 453 751 l 629 863 q 530 950 592 918 l 605 1051 l 612 1051 q 749 940 696 1019 l 829 991 l 836 991 l 932 945 l 791 854 q 799 829 797 838 q 814 700 814 769 q 791 512 814 612 l 743 305 q 650 113 717 191 q 384 -14 541 -14 q 178 112 229 -14 q 160 208 160 155 q 173 307 160 254 z "},"ñ":{"ha":775,"x_min":96,"x_max":810,"o":"m 566 115 q 734 115 566 115 l 732 109 l 656 0 l 339 0 l 340 7 l 416 115 q 554 227 512 173 q 624 373 606 293 q 643 509 643 456 q 637 555 643 536 q 536 644 614 644 q 393 555 459 644 q 323 373 353 499 l 245 34 l 102 -27 l 96 -27 l 188 373 q 290 603 220 515 q 563 760 412 760 q 763 603 718 760 q 777 502 777 556 q 760 373 777 441 q 566 115 722 209 m 425 836 q 565 1029 469 1029 q 647 982 608 1029 q 690 949 674 949 q 725 998 713 949 l 806 1029 l 810 1029 q 670 836 766 836 q 589 883 627 836 q 545 916 562 916 q 511 867 522 916 l 429 836 l 425 836 z "},"ò":{"ha":775,"x_min":170,"x_max":777,"o":"m 323 373 q 304 237 304 289 q 309 191 304 210 q 411 102 335 102 q 553 191 487 102 q 624 373 595 248 q 643 509 643 456 q 637 555 643 536 q 536 644 614 644 q 391 553 456 644 q 323 373 352 498 m 188 372 q 290 603 220 515 q 563 760 412 760 q 763 603 713 760 q 777 507 777 560 q 760 373 777 448 q 658 143 725 228 q 384 -14 534 -14 q 184 142 236 -14 q 170 235 170 184 q 188 372 170 294 m 551 1062 l 558 1062 l 614 828 l 526 791 l 519 791 l 418 1005 l 551 1062 z "},"ó":{"ha":775,"x_min":170,"x_max":821,"o":"m 323 373 q 304 237 304 289 q 309 191 304 210 q 411 102 335 102 q 553 191 487 102 q 624 373 595 248 q 643 509 643 456 q 637 555 643 536 q 536 644 614 644 q 391 553 456 644 q 323 373 352 498 m 188 372 q 290 603 220 515 q 563 760 412 760 q 763 603 713 760 q 777 507 777 560 q 760 373 777 448 q 658 143 725 228 q 384 -14 534 -14 q 184 142 236 -14 q 170 235 170 184 q 188 372 170 294 m 709 1062 l 715 1062 l 821 1005 l 622 791 l 615 791 l 545 828 l 709 1062 z "},"ô":{"ha":775,"x_min":170,"x_max":777,"o":"m 323 373 q 304 237 304 289 q 309 191 304 210 q 411 102 335 102 q 553 191 487 102 q 624 373 595 248 q 643 509 643 456 q 637 555 643 536 q 536 644 614 644 q 391 553 456 644 q 323 373 352 498 m 188 372 q 290 603 220 515 q 563 760 412 760 q 763 603 713 760 q 777 507 777 560 q 760 373 777 448 q 658 143 725 228 q 384 -14 534 -14 q 184 142 236 -14 q 170 235 170 184 q 188 372 170 294 m 391 828 l 535 1005 l 668 1062 l 675 1062 l 765 828 l 677 791 l 671 791 l 602 932 l 469 791 l 462 791 l 391 828 z "},"õ":{"ha":775,"x_min":170,"x_max":810,"o":"m 323 373 q 304 237 304 289 q 309 191 304 210 q 411 102 335 102 q 553 191 487 102 q 624 373 595 248 q 643 509 643 456 q 637 555 643 536 q 536 644 614 644 q 391 553 456 644 q 323 373 352 498 m 188 372 q 290 603 220 515 q 563 760 412 760 q 763 603 713 760 q 777 507 777 560 q 760 373 777 448 q 658 143 725 228 q 384 -14 534 -14 q 184 142 236 -14 q 170 235 170 184 q 188 372 170 294 m 425 836 q 565 1029 469 1029 q 647 982 608 1029 q 690 949 674 949 q 725 998 713 949 l 806 1029 l 810 1029 q 670 836 766 836 q 589 883 627 836 q 545 916 562 916 q 511 867 522 916 l 429 836 l 425 836 z "},"ö":{"ha":775,"x_min":170,"x_max":791,"o":"m 323 373 q 304 237 304 289 q 309 191 304 210 q 411 102 335 102 q 553 191 487 102 q 624 373 595 248 q 643 509 643 456 q 637 555 643 536 q 536 644 614 644 q 391 553 456 644 q 323 373 352 498 m 188 372 q 290 603 220 515 q 563 760 412 760 q 763 603 713 760 q 777 507 777 560 q 760 373 777 448 q 658 143 725 228 q 384 -14 534 -14 q 184 142 236 -14 q 170 235 170 184 q 188 372 170 294 m 625 954 q 663 1013 633 989 q 726 1038 692 1038 q 779 1013 761 1038 q 791 975 791 996 q 789 954 791 966 q 751 896 779 918 q 687 871 722 871 q 635 897 653 871 q 623 932 623 913 q 625 954 623 942 m 421 954 q 458 1013 429 989 q 522 1038 488 1038 q 574 1013 557 1038 q 587 975 587 996 q 585 954 587 966 q 547 896 574 918 q 483 871 517 871 q 431 897 449 871 q 418 932 418 913 q 421 954 418 942 z "},"÷":{"ha":823,"x_min":205,"x_max":854,"o":"m 500 737 q 538 796 509 772 q 602 821 567 821 q 654 796 636 821 q 667 758 667 779 q 664 736 667 748 q 627 679 655 702 q 562 654 597 654 q 510 680 528 654 q 498 715 498 696 q 500 737 498 725 m 397 290 q 435 349 406 324 q 498 373 464 373 q 551 349 533 373 q 564 310 564 331 q 562 290 564 299 q 524 231 554 256 q 459 207 494 207 q 407 232 425 207 q 395 267 395 249 q 397 290 395 277 m 205 450 l 208 457 l 289 574 l 854 574 l 852 567 l 770 450 l 205 450 z "},"ø":{"ha":775,"x_min":170,"x_max":777,"o":"m 241 -27 l 235 -27 l 172 7 l 217 72 q 184 143 197 102 q 170 236 170 183 q 188 373 170 296 q 290 603 220 514 q 563 760 411 760 q 674 730 629 760 l 705 773 l 711 773 l 774 739 l 730 675 q 763 603 750 644 q 777 506 777 559 q 760 373 777 446 q 658 143 726 231 q 384 -14 536 -14 q 272 17 318 -14 l 241 -27 m 600 623 q 536 644 574 644 q 393 554 458 644 q 323 373 352 497 q 304 237 304 290 q 307 201 304 217 l 600 623 m 640 545 l 347 124 q 411 102 372 102 q 553 191 486 102 q 626 373 602 254 q 643 503 643 456 q 640 545 643 527 z "},"ù":{"ha":795,"x_min":172,"x_max":852,"o":"m 852 773 l 760 373 q 658 143 727 231 q 385 -14 535 -14 q 184 143 229 -14 q 172 242 172 189 q 188 373 172 303 q 381 631 227 538 l 214 631 l 215 637 l 291 746 l 608 746 l 607 739 l 531 631 q 393 519 436 574 q 323 373 342 454 q 304 239 304 291 q 310 191 304 211 q 412 102 334 102 q 554 191 488 102 q 624 373 595 247 l 702 712 l 845 773 l 852 773 m 606 1062 l 612 1062 l 668 828 l 580 791 l 573 791 l 473 1005 l 606 1062 z "},"ú":{"ha":795,"x_min":172,"x_max":876,"o":"m 852 773 l 760 373 q 658 143 727 231 q 385 -14 535 -14 q 184 143 229 -14 q 172 242 172 189 q 188 373 172 303 q 381 631 227 538 l 214 631 l 215 637 l 291 746 l 608 746 l 607 739 l 531 631 q 393 519 436 574 q 323 373 342 454 q 304 239 304 291 q 310 191 304 211 q 412 102 334 102 q 554 191 488 102 q 624 373 595 247 l 702 712 l 845 773 l 852 773 m 763 1062 l 770 1062 l 876 1005 l 676 791 l 669 791 l 599 828 l 763 1062 z "},"û":{"ha":795,"x_min":172,"x_max":852,"o":"m 852 773 l 760 373 q 658 143 727 231 q 385 -14 535 -14 q 184 143 229 -14 q 172 242 172 189 q 188 373 172 303 q 381 631 227 538 l 214 631 l 215 637 l 291 746 l 608 746 l 607 739 l 531 631 q 393 519 436 574 q 323 373 342 454 q 304 239 304 291 q 310 191 304 211 q 412 102 334 102 q 554 191 488 102 q 624 373 595 247 l 702 712 l 845 773 l 852 773 m 445 828 l 589 1005 l 722 1062 l 729 1062 l 819 828 l 732 791 l 725 791 l 656 932 l 523 791 l 516 791 l 445 828 z "},"ü":{"ha":795,"x_min":172,"x_max":852,"o":"m 852 773 l 760 373 q 658 143 727 231 q 385 -14 535 -14 q 184 143 229 -14 q 172 242 172 189 q 188 373 172 303 q 381 631 227 538 l 214 631 l 215 637 l 291 746 l 608 746 l 607 739 l 531 631 q 393 519 436 574 q 323 373 342 454 q 304 239 304 291 q 310 191 304 211 q 412 102 334 102 q 554 191 488 102 q 624 373 595 247 l 702 712 l 845 773 l 852 773 m 680 954 q 718 1013 688 989 q 781 1038 747 1038 q 833 1013 816 1038 q 846 975 846 996 q 844 954 846 966 q 806 896 833 918 q 742 871 777 871 q 690 897 708 871 q 677 932 677 913 q 680 954 677 942 m 476 954 q 513 1013 484 989 q 577 1038 543 1038 q 629 1013 612 1038 q 642 975 642 996 q 640 954 642 966 q 602 896 629 918 q 538 871 572 871 q 486 897 504 871 q 473 932 473 913 q 476 954 473 942 z "},"ý":{"ha":809,"x_min":157,"x_max":876,"o":"m 852 773 l 695 95 q 594 -135 663 -44 q 321 -292 475 -292 l 157 -292 l 159 -285 l 235 -176 l 347 -176 q 490 -87 432 -176 q 547 54 529 -26 q 384 -14 465 -14 q 184 143 232 -14 q 171 238 171 185 q 188 373 171 298 q 381 631 224 537 l 214 631 l 215 637 l 291 746 l 608 746 l 607 739 l 531 631 q 393 519 436 574 q 323 373 342 454 q 304 239 304 291 q 310 191 304 211 q 412 102 334 102 q 554 191 488 102 q 624 373 595 247 l 702 712 l 845 773 l 852 773 m 763 1062 l 770 1062 l 876 1005 l 676 791 l 669 791 l 599 828 l 763 1062 z "},"þ":{"ha":809,"x_min":65,"x_max":811,"o":"m 65 -305 l 364 990 l 507 1051 l 514 1051 l 431 689 q 597 760 515 760 q 798 603 745 760 q 811 509 811 562 q 793 373 811 448 q 692 143 762 232 q 418 -14 571 -14 l 366 -14 l 368 -7 l 444 102 q 588 191 522 102 q 659 373 630 248 q 677 509 677 456 q 672 555 677 536 q 570 644 648 644 q 427 554 493 644 q 358 373 387 499 l 215 -244 l 72 -305 l 65 -305 z "},"ÿ":{"ha":809,"x_min":157,"x_max":852,"o":"m 852 773 l 695 95 q 594 -135 663 -44 q 321 -292 475 -292 l 157 -292 l 159 -285 l 235 -176 l 347 -176 q 490 -87 432 -176 q 547 54 529 -26 q 384 -14 465 -14 q 184 143 232 -14 q 171 238 171 185 q 188 373 171 298 q 381 631 224 537 l 214 631 l 215 637 l 291 746 l 608 746 l 607 739 l 531 631 q 393 519 436 574 q 323 373 342 454 q 304 239 304 291 q 310 191 304 211 q 412 102 334 102 q 554 191 488 102 q 624 373 595 247 l 702 712 l 845 773 l 852 773 m 680 954 q 718 1013 688 989 q 781 1038 747 1038 q 833 1013 816 1038 q 846 975 846 996 q 844 954 846 966 q 806 896 833 918 q 742 871 777 871 q 690 897 708 871 q 677 932 677 913 q 680 954 677 942 m 476 954 q 513 1013 484 989 q 577 1038 543 1038 q 629 1013 612 1038 q 642 975 642 996 q 640 954 642 966 q 602 896 629 918 q 538 871 572 871 q 486 897 504 871 q 473 932 473 913 q 476 954 473 942 z "},"Ā":{"ha":986,"x_min":116,"x_max":1027,"o":"m 116 -27 l 240 512 q 378 829 286 709 q 743 1038 541 1038 q 1010 829 945 1038 q 1027 705 1027 775 q 1002 512 1027 620 q 865 212 956 311 q 752 115 809 150 l 945 115 l 943 109 l 867 0 l 492 0 l 494 7 l 570 115 q 745 243 669 146 q 852 454 827 347 l 363 454 l 266 34 l 123 -27 l 116 -27 m 391 570 l 879 570 q 891 692 891 639 q 882 776 891 740 q 716 922 843 922 q 483 777 589 922 q 391 570 428 701 m 593 1111 l 595 1118 l 677 1234 l 987 1234 l 986 1227 l 904 1111 l 593 1111 z "},"ā":{"ha":795,"x_min":171,"x_max":790,"o":"m 385 -14 q 184 143 234 -14 q 171 239 171 186 q 188 373 171 300 q 290 603 222 516 q 564 760 412 760 q 764 603 717 760 q 777 507 777 559 q 760 373 777 446 l 701 118 q 726 88 694 88 l 779 88 l 777 81 l 701 -27 q 559 75 559 -27 q 565 118 559 94 l 624 373 q 643 509 643 457 q 638 555 643 535 q 536 644 613 644 q 394 555 460 644 q 323 373 353 498 q 304 239 304 291 q 310 191 304 211 q 410 102 334 102 l 463 102 l 460 95 l 385 -14 m 396 836 l 398 842 l 479 959 l 790 959 l 789 952 l 707 836 l 396 836 z "},"Ă":{"ha":986,"x_min":116,"x_max":1027,"o":"m 116 -27 l 240 512 q 378 829 286 709 q 743 1038 541 1038 q 1010 829 945 1038 q 1027 705 1027 775 q 1002 512 1027 620 q 865 212 956 311 q 752 115 809 150 l 945 115 l 943 109 l 867 0 l 492 0 l 494 7 l 570 115 q 745 243 669 146 q 852 454 827 347 l 363 454 l 266 34 l 123 -27 l 116 -27 m 391 570 l 879 570 q 891 692 891 639 q 882 776 891 740 q 716 922 843 922 q 483 777 589 922 q 391 570 428 701 m 618 1213 l 619 1219 l 693 1320 q 789 1230 721 1230 q 926 1320 857 1230 l 954 1219 l 953 1213 q 760 1111 860 1111 q 618 1213 655 1111 z "},"ă":{"ha":795,"x_min":171,"x_max":779,"o":"m 385 -14 q 184 143 234 -14 q 171 239 171 186 q 188 373 171 300 q 290 603 222 516 q 564 760 412 760 q 764 603 717 760 q 777 507 777 559 q 760 373 777 446 l 701 118 q 726 88 694 88 l 779 88 l 777 81 l 701 -27 q 559 75 559 -27 q 565 118 559 94 l 624 373 q 643 509 643 457 q 638 555 643 535 q 536 644 613 644 q 394 555 460 644 q 323 373 353 498 q 304 239 304 291 q 310 191 304 211 q 410 102 334 102 l 463 102 l 460 95 l 385 -14 m 420 937 l 421 944 l 495 1045 q 591 954 523 954 q 728 1045 659 954 l 756 944 l 755 937 q 562 836 662 836 q 420 937 457 836 z "},"Ą":{"ha":986,"x_min":116,"x_max":1027,"o":"m 391 570 l 879 570 q 891 692 891 639 q 882 776 891 740 q 716 922 843 922 q 483 777 589 922 q 391 570 428 701 m 116 -27 l 240 512 q 378 829 286 709 q 743 1038 541 1038 q 1010 829 945 1038 q 1027 705 1027 775 q 1002 512 1027 620 q 865 212 956 311 q 752 115 809 150 l 945 115 l 943 109 l 867 0 l 865 0 q 805 -103 821 -38 q 801 -134 801 -119 q 863 -244 801 -197 l 720 -305 l 713 -305 q 673 -189 673 -253 q 678 -140 673 -165 q 769 0 696 -62 l 492 0 l 494 7 l 570 115 q 745 243 669 146 q 852 454 827 347 l 363 454 l 266 34 l 123 -27 l 116 -27 z "},"ą":{"ha":795,"x_min":171,"x_max":779,"o":"m 385 -14 q 184 143 234 -14 q 171 239 171 186 q 188 373 171 300 q 290 603 222 516 q 564 760 412 760 q 764 603 717 760 q 777 507 777 559 q 760 373 777 446 l 701 118 q 726 88 694 88 l 779 88 l 777 81 l 701 -27 q 669 -26 684 -27 q 629 -103 639 -64 q 625 -134 625 -119 q 688 -244 627 -198 l 545 -305 l 538 -305 q 496 -188 496 -252 q 502 -140 496 -165 q 593 0 518 -64 q 559 75 559 25 q 565 118 559 94 l 624 373 q 643 509 643 457 q 638 555 643 535 q 536 644 613 644 q 394 555 460 644 q 323 373 353 498 q 304 239 304 292 q 310 191 304 211 q 410 102 334 102 l 463 102 l 460 95 l 385 -14 z "},"Ć":{"ha":926,"x_min":195,"x_max":990,"o":"m 919 321 q 844 195 892 258 q 479 -14 683 -14 q 212 195 277 -14 q 195 319 195 249 q 220 512 195 404 q 358 829 266 710 q 722 1038 521 1038 q 990 829 925 1038 l 868 776 l 861 776 q 696 922 822 922 q 463 776 570 922 q 355 512 394 683 q 331 329 331 404 q 340 248 331 283 q 507 102 380 102 q 739 248 632 102 l 912 321 l 919 321 m 862 1333 l 869 1333 l 975 1276 l 776 1062 l 769 1062 l 698 1099 l 862 1333 z "},"ć":{"ha":745,"x_min":170,"x_max":821,"o":"m 722 256 q 658 143 695 191 q 384 -14 536 -14 q 184 143 236 -14 q 170 237 170 184 q 188 373 170 298 q 290 603 219 511 q 563 760 410 760 q 763 605 715 760 l 644 555 l 637 555 q 536 644 613 644 q 393 555 459 644 q 323 373 352 498 q 304 237 304 289 q 309 191 304 210 q 411 102 335 102 q 553 191 488 102 l 715 256 l 722 256 m 709 1062 l 715 1062 l 821 1005 l 622 791 l 615 791 l 545 828 l 709 1062 z "},"Ĉ":{"ha":926,"x_min":195,"x_max":990,"o":"m 919 321 q 844 195 892 258 q 479 -14 683 -14 q 212 195 277 -14 q 195 319 195 249 q 220 512 195 404 q 358 829 266 710 q 722 1038 521 1038 q 990 829 925 1038 l 868 776 l 861 776 q 696 922 822 922 q 463 776 570 922 q 355 512 394 683 q 331 329 331 404 q 340 248 331 283 q 507 102 380 102 q 739 248 632 102 l 912 321 l 919 321 m 548 1099 l 692 1276 l 825 1333 l 832 1333 l 922 1099 l 836 1062 l 829 1062 l 760 1203 l 627 1062 l 620 1062 l 548 1099 z "},"ĉ":{"ha":745,"x_min":170,"x_max":765,"o":"m 722 256 q 658 143 695 191 q 384 -14 536 -14 q 184 143 236 -14 q 170 237 170 184 q 188 373 170 298 q 290 603 219 511 q 563 760 410 760 q 763 605 715 760 l 644 555 l 637 555 q 536 644 613 644 q 393 555 459 644 q 323 373 352 498 q 304 237 304 289 q 309 191 304 210 q 411 102 335 102 q 553 191 488 102 l 715 256 l 722 256 m 391 828 l 535 1005 l 668 1062 l 675 1062 l 765 828 l 677 791 l 671 791 l 602 932 l 469 791 l 462 791 l 391 828 z "},"Ċ":{"ha":926,"x_min":195,"x_max":990,"o":"m 680 1222 q 718 1281 688 1257 q 781 1305 747 1305 q 833 1281 816 1305 q 846 1242 846 1263 q 844 1222 846 1234 q 806 1164 833 1186 q 742 1139 777 1139 q 690 1164 708 1139 q 677 1200 677 1181 q 680 1222 677 1210 m 919 321 q 844 195 892 258 q 479 -14 683 -14 q 212 195 277 -14 q 195 319 195 249 q 220 512 195 404 q 358 829 266 710 q 722 1038 521 1038 q 990 829 925 1038 l 868 776 l 861 776 q 696 922 822 922 q 463 776 570 922 q 355 512 394 683 q 331 329 331 404 q 340 248 331 283 q 507 102 380 102 q 739 248 632 102 l 912 321 l 919 321 z "},"ċ":{"ha":745,"x_min":170,"x_max":763,"o":"m 522 954 q 559 1013 530 989 q 623 1038 589 1038 q 675 1013 658 1038 q 688 975 688 996 q 686 954 688 966 q 648 896 675 918 q 584 871 618 871 q 532 897 550 871 q 519 932 519 913 q 522 954 519 942 m 722 256 q 658 143 695 191 q 384 -14 536 -14 q 184 143 236 -14 q 170 237 170 184 q 188 373 170 298 q 290 603 219 511 q 563 760 410 760 q 763 605 715 760 l 644 555 l 637 555 q 536 644 613 644 q 393 555 459 644 q 323 373 352 498 q 304 237 304 289 q 309 191 304 210 q 411 102 335 102 q 553 191 488 102 l 715 256 l 722 256 z "},"Č":{"ha":926,"x_min":195,"x_max":990,"o":"m 919 321 q 844 195 892 258 q 479 -14 683 -14 q 212 195 277 -14 q 195 319 195 249 q 220 512 195 404 q 358 829 266 710 q 722 1038 521 1038 q 990 829 925 1038 l 868 776 l 861 776 q 696 922 822 922 q 463 776 570 922 q 355 512 394 683 q 331 329 331 404 q 340 248 331 283 q 507 102 380 102 q 739 248 632 102 l 912 321 l 919 321 m 684 1062 l 593 1296 l 681 1333 l 688 1333 l 757 1192 l 890 1333 l 897 1333 l 968 1296 l 823 1119 l 691 1062 l 684 1062 z "},"č":{"ha":745,"x_min":170,"x_max":792,"o":"m 722 256 q 658 143 695 191 q 384 -14 536 -14 q 184 143 236 -14 q 170 237 170 184 q 188 373 170 298 q 290 603 219 511 q 563 760 410 760 q 763 605 715 760 l 644 555 l 637 555 q 536 644 613 644 q 393 555 459 644 q 323 373 352 498 q 304 237 304 289 q 309 191 304 210 q 411 102 335 102 q 553 191 488 102 l 715 256 l 722 256 m 508 791 l 418 1025 l 505 1062 l 512 1062 l 581 921 l 714 1062 l 721 1062 l 792 1025 l 648 848 l 515 791 l 508 791 z "},"Ď":{"ha":986,"x_min":116,"x_max":1027,"o":"m 116 -27 l 240 512 q 378 829 286 709 q 743 1038 541 1038 q 1010 829 947 1038 q 1027 706 1027 775 q 1002 512 1027 622 q 867 213 964 341 q 503 0 707 0 l 372 0 l 374 7 l 450 115 l 530 115 q 762 266 655 115 q 867 512 833 365 q 891 693 891 618 q 882 776 891 740 q 716 922 843 922 q 483 776 590 922 q 376 512 416 684 l 266 34 l 123 -27 l 116 -27 m 671 1062 l 581 1296 l 668 1333 l 675 1333 l 744 1192 l 877 1333 l 884 1333 l 955 1296 l 810 1119 l 678 1062 l 671 1062 z "},"ď":{"ha":821,"x_min":171,"x_max":1154,"o":"m 917 1051 l 760 373 q 659 143 728 231 q 385 -14 536 -14 q 184 143 236 -14 q 171 238 171 184 q 188 373 171 298 q 381 631 226 537 l 214 631 l 215 637 l 291 746 l 608 746 l 607 739 l 531 631 q 393 519 436 574 q 323 373 342 454 q 304 239 304 291 q 310 191 304 211 q 412 102 334 102 q 555 192 489 102 q 624 373 595 247 l 767 990 l 910 1051 l 917 1051 m 1042 1062 l 1048 1062 l 1154 1005 l 955 791 l 948 791 l 878 828 l 1042 1062 z "},"Đ":{"ha":986,"x_min":116,"x_max":1027,"o":"m 116 -27 l 227 454 l 139 454 l 140 461 l 216 570 l 255 570 q 378 829 300 727 q 743 1038 540 1038 q 1010 829 947 1038 q 1027 706 1027 775 q 1002 512 1027 622 q 867 213 964 342 q 503 0 707 0 l 372 0 l 374 7 l 450 115 l 530 115 q 762 266 655 115 q 867 512 833 365 q 891 693 891 618 q 882 776 891 740 q 716 922 843 922 q 483 776 590 922 q 391 570 427 700 l 709 570 l 707 563 l 631 454 l 362 454 l 266 34 l 123 -27 l 116 -27 z "},"đ":{"ha":795,"x_min":171,"x_max":981,"o":"m 564 834 l 565 841 l 641 949 l 758 949 l 767 990 l 910 1051 l 917 1051 l 893 949 l 981 949 l 979 943 l 903 834 l 867 834 l 760 373 q 659 143 728 231 q 385 -14 536 -14 q 184 143 236 -14 q 171 238 171 184 q 188 373 171 298 q 381 631 226 537 l 214 631 l 215 637 l 291 746 l 608 746 l 607 739 l 531 631 q 393 519 436 574 q 323 373 342 454 q 304 239 304 291 q 310 191 304 211 q 412 102 334 102 q 555 192 489 102 q 624 373 595 247 l 731 834 l 564 834 z "},"Ē":{"ha":926,"x_min":195,"x_max":990,"o":"m 919 321 q 844 195 892 258 q 479 -14 683 -14 q 212 195 277 -14 q 195 319 195 249 q 220 512 195 404 q 358 829 266 710 q 722 1038 521 1038 q 990 829 925 1038 l 868 776 l 861 776 q 696 922 822 922 q 463 776 570 922 q 370 570 408 701 l 776 570 l 774 563 l 699 454 l 344 454 q 331 328 331 382 q 340 248 331 281 q 507 102 382 102 q 739 248 632 102 l 912 321 l 919 321 m 578 1111 l 579 1118 l 661 1234 l 972 1234 l 970 1227 l 888 1111 l 578 1111 z "},"ē":{"ha":765,"x_min":170,"x_max":804,"o":"m 722 256 q 658 143 695 191 q 384 -14 536 -14 q 184 143 236 -14 q 170 237 170 184 q 188 373 170 299 q 290 603 219 511 q 563 760 410 760 q 734 687 679 760 q 777 566 777 631 q 770 517 777 542 q 658 336 745 413 q 444 259 571 259 l 391 259 l 393 266 l 469 374 q 583 414 542 374 q 639 518 623 452 q 643 549 643 534 q 625 606 643 583 q 536 644 597 644 q 393 555 453 644 q 323 373 350 490 q 304 237 304 289 q 309 191 304 210 q 411 102 335 102 q 553 191 488 102 l 715 256 l 722 256 m 410 836 l 412 842 l 493 959 l 804 959 l 802 952 l 720 836 l 410 836 z "},"Ĕ":{"ha":926,"x_min":195,"x_max":990,"o":"m 919 321 q 844 195 892 258 q 479 -14 683 -14 q 212 195 277 -14 q 195 319 195 249 q 220 512 195 404 q 358 829 266 710 q 722 1038 521 1038 q 990 829 925 1038 l 868 776 l 861 776 q 696 922 822 922 q 463 776 570 922 q 370 570 408 701 l 776 570 l 774 563 l 699 454 l 344 454 q 331 328 331 382 q 340 248 331 281 q 507 102 382 102 q 739 248 632 102 l 912 321 l 919 321 m 600 1213 l 602 1219 l 675 1320 q 770 1230 703 1230 q 908 1320 838 1230 l 937 1219 l 935 1213 q 742 1111 842 1111 q 600 1213 637 1111 z "},"ĕ":{"ha":765,"x_min":170,"x_max":777,"o":"m 722 256 q 658 143 695 191 q 384 -14 536 -14 q 184 143 236 -14 q 170 237 170 184 q 188 373 170 299 q 290 603 219 511 q 563 760 410 760 q 734 687 679 760 q 777 566 777 631 q 770 517 777 542 q 658 336 745 413 q 444 259 571 259 l 391 259 l 393 266 l 469 374 q 583 414 542 374 q 639 518 623 452 q 643 549 643 534 q 625 606 643 583 q 536 644 597 644 q 393 555 453 644 q 323 373 350 490 q 304 237 304 289 q 309 191 304 210 q 411 102 335 102 q 553 191 488 102 l 715 256 l 722 256 m 433 937 l 435 944 l 509 1045 q 604 954 536 954 q 742 1045 672 954 l 770 944 l 768 937 q 575 836 675 836 q 433 937 471 836 z "},"Ė":{"ha":926,"x_min":195,"x_max":990,"o":"m 680 1222 q 718 1281 688 1257 q 781 1305 747 1305 q 833 1281 816 1305 q 846 1242 846 1263 q 844 1222 846 1234 q 806 1164 833 1186 q 742 1139 777 1139 q 690 1164 708 1139 q 677 1200 677 1181 q 680 1222 677 1210 m 919 321 q 844 195 892 258 q 479 -14 683 -14 q 212 195 277 -14 q 195 319 195 249 q 220 512 195 404 q 358 829 266 710 q 722 1038 521 1038 q 990 829 925 1038 l 868 776 l 861 776 q 696 922 822 922 q 463 776 570 922 q 370 570 408 701 l 776 570 l 774 563 l 699 454 l 344 454 q 331 328 331 382 q 340 248 331 281 q 507 102 382 102 q 739 248 632 102 l 912 321 l 919 321 z "},"ė":{"ha":765,"x_min":170,"x_max":777,"o":"m 522 954 q 559 1013 530 989 q 623 1038 589 1038 q 675 1013 658 1038 q 688 975 688 996 q 686 954 688 966 q 648 896 675 918 q 584 871 618 871 q 532 897 550 871 q 519 932 519 913 q 522 954 519 942 m 722 256 q 658 143 695 191 q 384 -14 536 -14 q 184 143 236 -14 q 170 237 170 184 q 188 373 170 299 q 290 603 219 511 q 563 760 410 760 q 734 687 679 760 q 777 566 777 631 q 770 517 777 542 q 658 336 745 413 q 444 259 571 259 l 391 259 l 393 266 l 469 374 q 583 414 542 374 q 639 518 623 452 q 643 549 643 534 q 625 606 643 583 q 536 644 597 644 q 393 555 453 644 q 323 373 350 490 q 304 237 304 289 q 309 191 304 210 q 411 102 335 102 q 553 191 488 102 l 715 256 l 722 256 z "},"Ę":{"ha":802,"x_min":195,"x_max":990,"o":"m 919 321 q 844 195 892 258 q 695 53 774 104 q 612 -103 637 -2 q 608 -135 608 -119 q 670 -244 608 -197 l 527 -305 l 520 -305 q 478 -189 478 -252 q 484 -140 478 -165 q 573 -2 503 -63 q 479 -14 528 -14 q 212 195 277 -14 q 195 319 195 249 q 220 512 195 404 q 358 829 266 710 q 722 1038 521 1038 q 990 829 925 1038 l 868 776 l 861 776 q 696 922 822 922 q 463 776 570 922 q 370 570 408 701 l 776 570 l 774 563 l 699 454 l 344 454 q 331 328 331 382 q 340 248 331 281 q 507 102 382 102 q 739 248 632 102 l 912 321 l 919 321 z "},"ę":{"ha":765,"x_min":170,"x_max":777,"o":"m 722 256 q 658 143 694 190 q 570 54 616 90 q 457 -103 478 -20 q 453 -134 453 -119 q 515 -244 454 -198 l 372 -305 l 366 -305 q 323 -189 323 -252 q 330 -140 323 -165 q 407 -13 347 -69 q 384 -14 395 -14 q 184 143 236 -14 q 170 237 170 184 q 188 373 170 299 q 290 603 219 511 q 563 760 410 760 q 734 687 679 760 q 777 566 777 631 q 770 517 777 542 q 658 336 745 413 q 444 259 571 259 l 391 259 l 393 266 l 469 374 q 583 414 542 374 q 639 518 623 452 q 643 549 643 534 q 625 606 643 581 q 536 644 597 644 q 393 555 453 644 q 323 373 350 490 q 304 237 304 289 q 309 191 304 210 q 411 102 335 102 q 553 191 488 102 l 715 256 l 722 256 z "},"Ě":{"ha":926,"x_min":195,"x_max":990,"o":"m 919 321 q 844 195 892 258 q 479 -14 683 -14 q 212 195 277 -14 q 195 319 195 249 q 220 512 195 404 q 358 829 266 710 q 722 1038 521 1038 q 990 829 925 1038 l 868 776 l 861 776 q 696 922 822 922 q 463 776 570 922 q 370 570 408 701 l 776 570 l 774 563 l 699 454 l 344 454 q 331 328 331 382 q 340 248 331 281 q 507 102 382 102 q 739 248 632 102 l 912 321 l 919 321 m 684 1062 l 593 1296 l 680 1333 l 687 1333 l 756 1192 l 889 1333 l 896 1333 l 968 1296 l 823 1119 l 690 1062 l 684 1062 z "},"ě":{"ha":765,"x_min":170,"x_max":792,"o":"m 722 256 q 658 143 695 191 q 384 -14 536 -14 q 184 143 236 -14 q 170 237 170 184 q 188 373 170 299 q 290 603 219 511 q 563 760 410 760 q 734 687 679 760 q 777 566 777 631 q 770 517 777 542 q 658 336 745 413 q 444 259 571 259 l 391 259 l 393 266 l 469 374 q 583 414 542 374 q 639 518 623 452 q 643 549 643 534 q 625 606 643 583 q 536 644 597 644 q 393 555 453 644 q 323 373 350 490 q 304 237 304 289 q 309 191 304 210 q 411 102 335 102 q 553 191 488 102 l 715 256 l 722 256 m 508 791 l 418 1025 l 505 1062 l 512 1062 l 581 921 l 714 1062 l 721 1062 l 792 1025 l 648 848 l 515 791 l 508 791 z "},"Ĝ":{"ha":966,"x_min":195,"x_max":996,"o":"m 996 570 l 982 512 q 844 195 937 316 q 479 -14 682 -14 q 212 195 277 -14 q 195 319 195 249 q 220 512 195 404 q 358 829 266 710 q 722 1038 521 1038 q 990 829 925 1038 l 868 776 l 861 776 q 696 922 822 922 q 463 776 571 922 q 355 512 394 684 q 331 329 331 404 q 340 248 331 283 q 507 102 380 102 q 739 248 631 102 q 832 454 795 323 l 576 454 l 578 461 l 654 570 l 996 570 m 548 1099 l 692 1276 l 825 1333 l 832 1333 l 922 1099 l 836 1062 l 829 1062 l 760 1203 l 627 1062 l 620 1062 l 548 1099 z "},"ĝ":{"ha":789,"x_min":157,"x_max":777,"o":"m 384 -14 q 184 143 235 -14 q 170 237 170 184 q 188 373 170 299 q 290 603 220 515 q 563 760 412 760 q 763 603 713 760 q 777 507 777 560 q 760 373 777 446 l 695 95 q 594 -135 663 -44 q 321 -292 475 -292 l 157 -292 l 159 -285 l 235 -176 l 347 -176 q 490 -87 431 -176 q 559 95 534 -19 l 624 373 q 643 507 643 455 q 637 555 643 535 q 536 644 613 644 q 393 554 458 644 q 323 373 352 498 q 304 237 304 290 q 309 191 304 211 q 410 102 334 102 l 462 102 l 460 95 l 384 -14 m 391 828 l 535 1005 l 668 1062 l 675 1062 l 765 828 l 677 791 l 671 791 l 602 932 l 469 791 l 462 791 l 391 828 z "},"Ğ":{"ha":966,"x_min":195,"x_max":996,"o":"m 996 570 l 982 512 q 844 195 937 316 q 479 -14 682 -14 q 212 195 277 -14 q 195 319 195 249 q 220 512 195 404 q 358 829 266 710 q 722 1038 521 1038 q 990 829 925 1038 l 868 776 l 861 776 q 696 922 822 922 q 463 776 571 922 q 355 512 394 684 q 331 329 331 404 q 340 248 331 283 q 507 102 380 102 q 739 248 631 102 q 832 454 795 323 l 576 454 l 578 461 l 654 570 l 996 570 m 597 1213 l 599 1219 l 673 1320 q 768 1230 701 1230 q 906 1320 836 1230 l 934 1219 l 932 1213 q 739 1111 840 1111 q 597 1213 635 1111 z "},"ğ":{"ha":789,"x_min":157,"x_max":777,"o":"m 384 -14 q 184 143 235 -14 q 170 237 170 184 q 188 373 170 299 q 290 603 220 515 q 563 760 412 760 q 763 603 713 760 q 777 507 777 560 q 760 373 777 446 l 695 95 q 594 -135 663 -44 q 321 -292 475 -292 l 157 -292 l 159 -285 l 235 -176 l 347 -176 q 490 -87 431 -176 q 559 95 534 -19 l 624 373 q 643 507 643 455 q 637 555 643 535 q 536 644 613 644 q 393 554 458 644 q 323 373 352 498 q 304 237 304 290 q 309 191 304 211 q 410 102 334 102 l 462 102 l 460 95 l 384 -14 m 433 937 l 435 944 l 509 1045 q 604 954 536 954 q 742 1045 672 954 l 770 944 l 768 937 q 575 836 675 836 q 433 937 471 836 z "},"Ġ":{"ha":966,"x_min":195,"x_max":996,"o":"m 680 1222 q 718 1281 688 1257 q 781 1305 747 1305 q 833 1281 816 1305 q 846 1242 846 1263 q 844 1222 846 1234 q 806 1164 833 1186 q 742 1139 777 1139 q 690 1164 708 1139 q 677 1200 677 1181 q 680 1222 677 1210 m 996 570 l 982 512 q 844 195 937 316 q 479 -14 682 -14 q 212 195 277 -14 q 195 319 195 249 q 220 512 195 404 q 358 829 266 710 q 722 1038 521 1038 q 990 829 925 1038 l 868 776 l 861 776 q 696 922 822 922 q 463 776 571 922 q 355 512 394 684 q 331 329 331 404 q 340 248 331 283 q 507 102 380 102 q 739 248 631 102 q 832 454 795 323 l 576 454 l 578 461 l 654 570 l 996 570 z "},"ġ":{"ha":789,"x_min":157,"x_max":777,"o":"m 522 954 q 559 1013 530 989 q 623 1038 589 1038 q 675 1013 658 1038 q 688 975 688 996 q 686 954 688 966 q 648 896 675 918 q 584 871 618 871 q 532 897 550 871 q 519 932 519 913 q 522 954 519 942 m 384 -14 q 184 143 235 -14 q 170 237 170 184 q 188 373 170 299 q 290 603 220 515 q 563 760 412 760 q 763 603 713 760 q 777 507 777 560 q 760 373 777 446 l 695 95 q 594 -135 663 -44 q 321 -292 475 -292 l 157 -292 l 159 -285 l 235 -176 l 347 -176 q 490 -87 431 -176 q 559 95 534 -19 l 624 373 q 643 507 643 455 q 637 555 643 535 q 536 644 613 644 q 393 554 458 644 q 323 373 352 498 q 304 237 304 290 q 309 191 304 211 q 410 102 334 102 l 462 102 l 460 95 l 384 -14 z "},"Ģ":{"ha":966,"x_min":195,"x_max":996,"o":"m 996 570 l 982 512 q 844 195 937 316 q 479 -14 682 -14 q 212 195 277 -14 q 195 319 195 249 q 220 512 195 404 q 358 829 266 710 q 722 1038 521 1038 q 990 829 925 1038 l 868 776 l 861 776 q 696 922 822 922 q 463 776 571 922 q 355 512 394 684 q 331 329 331 404 q 340 248 331 283 q 507 102 380 102 q 739 248 631 102 q 832 454 795 323 l 576 454 l 578 461 l 654 570 l 996 570 m 334 -305 l 327 -305 l 221 -248 l 420 -34 l 427 -34 l 498 -71 l 334 -305 z "},"ģ":{"ha":789,"x_min":157,"x_max":821,"o":"m 384 -14 q 184 143 235 -14 q 170 237 170 184 q 188 373 170 299 q 290 603 220 515 q 563 760 412 760 q 763 603 713 760 q 777 507 777 560 q 760 373 777 446 l 695 95 q 594 -135 663 -44 q 321 -292 475 -292 l 157 -292 l 159 -285 l 235 -176 l 347 -176 q 490 -87 431 -176 q 559 95 534 -19 l 624 373 q 643 507 643 455 q 637 555 643 535 q 536 644 613 644 q 393 554 458 644 q 323 373 352 498 q 304 237 304 290 q 309 191 304 211 q 410 102 334 102 l 462 102 l 460 95 l 384 -14 m 709 1062 l 715 1062 l 821 1005 l 622 791 l 615 791 l 545 828 l 709 1062 z "},"Ĥ":{"ha":986,"x_min":130,"x_max":1027,"o":"m 130 -27 l 364 990 l 507 1051 l 514 1051 l 403 570 l 879 570 q 891 692 891 639 q 882 776 891 740 q 742 950 850 893 l 817 1051 l 823 1051 q 1010 829 960 1001 q 1027 704 1027 774 q 1002 512 1027 620 q 865 212 956 312 q 752 115 810 150 l 945 115 l 943 109 l 867 0 l 492 0 l 494 7 l 570 115 q 745 243 669 146 q 852 454 827 347 l 376 454 l 279 34 l 136 -27 l 130 -27 m 507 1099 l 652 1276 l 785 1333 l 791 1333 l 882 1099 l 795 1062 l 788 1062 l 719 1203 l 586 1062 l 579 1062 l 507 1099 z "},"ĥ":{"ha":809,"x_min":130,"x_max":873,"o":"m 130 -27 l 364 990 l 507 1051 l 514 1051 l 431 689 q 597 760 509 760 q 797 603 753 760 q 809 507 809 559 q 792 373 809 446 q 599 115 754 210 l 766 115 l 765 109 l 689 0 l 372 0 l 373 7 l 449 115 q 587 227 545 173 q 656 373 638 293 q 676 511 676 458 q 671 555 676 537 q 569 644 647 644 q 427 555 493 644 q 357 373 387 499 l 279 34 l 136 -27 l 130 -27 m 498 1099 l 643 1276 l 776 1333 l 783 1333 l 873 1099 l 786 1062 l 779 1062 l 710 1203 l 577 1062 l 570 1062 l 498 1099 z "},"Ħ":{"ha":986,"x_min":130,"x_max":1171,"o":"m 130 -27 l 328 834 l 227 834 l 228 841 l 304 949 l 355 949 l 364 990 l 507 1051 l 514 1051 l 490 949 l 743 949 l 742 950 l 817 1051 l 823 1051 q 954 949 904 1021 l 1171 949 l 1170 943 l 1094 834 l 1009 834 l 1010 829 q 1027 704 1027 774 q 1002 512 1027 620 q 865 212 956 312 q 752 115 810 150 l 945 115 l 943 109 l 867 0 l 492 0 l 494 7 l 570 115 q 745 243 669 146 q 852 454 827 347 l 376 454 l 279 34 l 136 -27 l 130 -27 m 859 834 l 464 834 l 403 570 l 879 570 q 891 692 891 639 q 882 776 891 739 q 859 834 873 807 z "},"ħ":{"ha":809,"x_min":130,"x_max":809,"o":"m 130 -27 l 328 834 l 227 834 l 228 841 l 304 949 l 355 949 l 364 990 l 507 1051 l 514 1051 l 490 949 l 644 949 l 642 943 l 566 834 l 464 834 l 431 689 q 597 760 509 760 q 797 603 753 760 q 809 507 809 559 q 792 373 809 446 q 599 115 754 210 l 766 115 l 765 109 l 689 0 l 372 0 l 373 7 l 449 115 q 587 227 545 173 q 656 373 638 293 q 676 511 676 458 q 671 555 676 537 q 569 644 647 644 q 427 555 493 644 q 357 373 387 499 l 279 34 l 136 -27 l 130 -27 z "},"Ĩ":{"ha":407,"x_min":130,"x_max":675,"o":"m 130 -27 l 364 990 l 507 1051 l 514 1051 l 279 34 l 136 -27 l 130 -27 m 289 1111 q 429 1305 334 1305 q 511 1257 473 1305 q 555 1224 538 1224 q 589 1273 578 1224 l 671 1305 l 675 1305 q 534 1111 630 1111 q 452 1158 490 1111 q 410 1192 426 1192 q 375 1143 387 1192 l 293 1111 l 289 1111 z "},"ĩ":{"ha":407,"x_min":157,"x_max":611,"o":"m 299 -27 q 157 75 157 -27 q 163 118 157 94 l 300 712 l 443 773 l 450 773 l 298 118 q 324 88 292 88 l 376 88 l 375 81 l 299 -27 m 225 836 q 366 1029 270 1029 q 448 982 409 1029 q 491 949 475 949 q 526 998 514 949 l 607 1029 l 611 1029 q 471 836 566 836 q 389 883 428 836 q 346 916 362 916 q 311 867 323 916 l 229 836 l 225 836 z "},"Ī":{"ha":407,"x_min":130,"x_max":671,"o":"m 130 -27 l 364 990 l 507 1051 l 514 1051 l 279 34 l 136 -27 l 130 -27 m 277 1111 l 278 1118 l 360 1234 l 671 1234 l 669 1227 l 587 1111 l 277 1111 z "},"ī":{"ha":407,"x_min":157,"x_max":607,"o":"m 299 -27 q 157 75 157 -27 q 163 118 157 94 l 300 712 l 443 773 l 450 773 l 298 118 q 324 88 292 88 l 376 88 l 375 81 l 299 -27 m 213 836 l 215 842 l 296 959 l 607 959 l 606 952 l 524 836 l 213 836 z "},"Ĭ":{"ha":407,"x_min":130,"x_max":652,"o":"m 130 -27 l 364 990 l 507 1051 l 514 1051 l 279 34 l 136 -27 l 130 -27 m 316 1213 l 317 1219 l 391 1320 q 487 1230 419 1230 q 624 1320 555 1230 l 652 1219 l 651 1213 q 458 1111 558 1111 q 316 1213 353 1111 z "},"ĭ":{"ha":407,"x_min":157,"x_max":589,"o":"m 299 -27 q 157 75 157 -27 q 163 118 157 94 l 300 712 l 443 773 l 450 773 l 298 118 q 324 88 292 88 l 376 88 l 375 81 l 299 -27 m 252 937 l 254 944 l 328 1045 q 423 954 355 954 q 561 1045 491 954 l 589 944 l 587 937 q 394 836 494 836 q 252 937 290 836 z "},"Į":{"ha":407,"x_min":31,"x_max":514,"o":"m 137 7 l 364 990 l 507 1051 l 514 1051 l 279 34 l 250 22 q 165 -103 180 -43 q 161 -134 161 -119 q 223 -244 162 -198 l 80 -305 l 73 -305 q 31 -189 31 -252 q 37 -140 31 -165 q 137 7 57 -58 z "},"į":{"ha":407,"x_min":95,"x_max":508,"o":"m 342 954 q 379 1013 350 989 q 443 1038 408 1038 q 495 1013 477 1038 q 508 975 508 996 q 505 954 508 966 q 468 896 495 918 q 404 871 438 871 q 351 897 370 871 q 339 932 339 913 q 342 954 339 942 m 191 0 q 157 75 157 25 q 163 118 157 94 l 300 712 l 443 773 l 450 773 l 298 118 q 324 88 292 88 l 376 88 l 375 81 l 299 -27 q 267 -26 282 -27 q 227 -103 237 -64 q 223 -135 223 -119 q 285 -244 223 -198 l 142 -305 l 136 -305 q 95 -188 95 -252 q 100 -138 95 -164 q 191 0 119 -60 z "},"İ":{"ha":407,"x_min":130,"x_max":569,"o":"m 403 1222 q 440 1281 411 1257 q 504 1305 469 1305 q 556 1281 538 1305 q 569 1242 569 1263 q 566 1222 569 1234 q 529 1164 556 1186 q 465 1139 499 1139 q 412 1164 431 1139 q 400 1200 400 1181 q 403 1222 400 1210 m 130 -27 l 364 990 l 507 1051 l 514 1051 l 279 34 l 136 -27 l 130 -27 z "},"ı":{"ha":407,"x_min":157,"x_max":450,"o":"m 299 -27 q 157 75 157 -27 q 163 118 157 94 l 300 712 l 443 773 l 450 773 l 298 118 q 324 88 292 88 l 376 88 l 375 81 l 299 -27 z "},"Ĳ":{"ha":1205,"x_min":130,"x_max":1278,"o":"m 417 195 l 539 248 l 546 248 q 712 102 586 102 q 945 248 838 102 q 1052 512 1013 342 l 1137 879 q 1109 909 1143 909 l 749 909 l 751 916 l 827 1024 l 1137 1024 q 1278 923 1278 1024 q 1272 879 1278 903 l 1187 512 q 1049 195 1142 316 q 685 -14 888 -14 q 417 195 482 -14 m 130 -27 l 364 990 l 507 1051 l 514 1051 l 279 34 l 136 -27 l 130 -27 z "},"ĳ":{"ha":746,"x_min":157,"x_max":846,"o":"m 680 954 q 718 1013 688 989 q 781 1038 747 1038 q 833 1013 816 1038 q 846 975 846 996 q 844 954 846 966 q 806 896 833 918 q 742 871 777 871 q 690 897 708 871 q 677 932 677 913 q 680 954 677 942 m 342 954 q 379 1013 350 989 q 443 1038 408 1038 q 495 1013 477 1038 q 508 975 508 996 q 505 954 508 966 q 468 896 495 918 q 404 871 438 871 q 351 897 370 871 q 339 932 339 913 q 342 954 339 942 m 299 -27 q 157 75 157 -27 q 163 118 157 94 l 300 712 l 443 773 l 450 773 l 298 118 q 324 88 292 88 l 376 88 l 375 81 l 299 -27 m 258 -292 l 341 -170 q 425 -94 385 -147 q 495 88 466 -39 l 639 712 l 782 773 l 789 773 l 631 88 q 529 -142 598 -54 q 256 -298 406 -298 l 258 -292 z "},"Ĵ":{"ha":887,"x_min":99,"x_max":960,"o":"m 99 195 l 221 248 l 228 248 q 394 102 268 102 q 627 248 520 102 q 734 512 695 342 l 819 879 q 791 909 825 909 l 431 909 l 433 916 l 509 1024 l 819 1024 q 960 923 960 1024 q 954 879 960 903 l 869 512 q 731 195 824 316 q 367 -14 570 -14 q 99 195 164 -14 m 571 1099 l 715 1276 l 848 1333 l 855 1333 l 945 1099 l 859 1062 l 852 1062 l 783 1203 l 650 1062 l 643 1062 l 571 1099 z "},"ĵ":{"ha":407,"x_min":-83,"x_max":582,"o":"m -81 -292 l 2 -170 q 86 -94 46 -147 q 156 88 127 -39 l 300 712 l 443 773 l 450 773 l 292 88 q 190 -142 259 -54 q -83 -298 67 -298 l -81 -292 m 208 828 l 352 1005 l 485 1062 l 492 1062 l 582 828 l 494 791 l 488 791 l 418 932 l 286 791 l 279 791 l 208 828 z "},"Ķ":{"ha":917,"x_min":130,"x_max":996,"o":"m 130 -27 l 364 990 l 507 1051 l 514 1051 l 396 541 l 882 1051 l 889 1051 l 996 995 l 605 593 q 859 477 776 593 q 895 368 895 428 q 888 317 895 344 q 696 115 859 184 l 876 115 l 874 109 l 798 0 l 423 0 l 425 7 l 500 115 q 652 176 588 130 q 753 317 734 235 q 756 345 756 331 q 726 422 756 387 q 578 477 678 477 q 414 408 490 477 q 332 260 352 350 l 279 34 l 136 -27 l 130 -27 m 334 -305 l 327 -305 l 221 -248 l 420 -34 l 427 -34 l 498 -71 l 334 -305 z "},"ķ":{"ha":800,"x_min":130,"x_max":823,"o":"m 130 -27 l 364 990 l 507 1051 l 514 1051 l 384 486 l 710 773 l 717 773 l 823 717 l 574 510 q 718 447 668 497 q 768 330 768 395 q 763 285 768 308 q 591 115 739 181 l 759 115 l 758 109 l 682 0 l 364 0 l 366 7 l 441 115 q 553 172 502 133 q 627 285 612 216 q 631 313 631 300 q 605 374 631 349 q 510 401 578 401 q 398 366 448 401 q 330 252 347 330 l 279 34 l 136 -27 l 130 -27 m 277 -305 l 271 -305 l 165 -248 l 363 -34 l 370 -34 l 441 -71 l 277 -305 z "},"ĸ":{"ha":800,"x_min":130,"x_max":823,"o":"m 130 -27 l 300 712 l 443 773 l 450 773 l 384 486 l 710 773 l 717 773 l 823 717 l 574 510 q 718 447 668 497 q 768 330 768 395 q 763 285 768 308 q 591 115 739 181 l 759 115 l 758 109 l 682 0 l 364 0 l 366 7 l 441 115 q 553 172 502 133 q 627 285 612 216 q 631 313 631 300 q 605 374 631 349 q 510 401 578 401 q 398 366 448 401 q 330 252 347 330 l 279 34 l 136 -27 l 130 -27 z "},"Ĺ":{"ha":751,"x_min":163,"x_max":782,"o":"m 305 0 q 163 102 163 0 q 169 145 163 121 l 364 990 l 507 1051 l 514 1051 l 304 145 q 332 115 298 115 l 566 115 q 684 195 646 115 l 691 195 l 782 146 q 539 0 707 0 l 305 0 m 544 1333 l 551 1333 l 656 1276 l 458 1062 l 451 1062 l 380 1099 l 544 1333 z "},"ĺ":{"ha":407,"x_min":157,"x_max":656,"o":"m 299 -27 q 157 75 157 -27 q 163 118 157 94 l 364 990 l 507 1051 l 514 1051 l 298 118 q 324 88 292 88 l 376 88 l 375 81 l 299 -27 m 544 1333 l 551 1333 l 656 1276 l 458 1062 l 451 1062 l 380 1099 l 544 1333 z "},"Ļ":{"ha":751,"x_min":163,"x_max":782,"o":"m 305 0 q 163 102 163 0 q 169 145 163 121 l 364 990 l 507 1051 l 514 1051 l 304 145 q 332 115 298 115 l 566 115 q 684 195 646 115 l 691 195 l 782 146 q 539 0 707 0 l 305 0 m 301 -305 l 294 -305 l 189 -248 l 387 -34 l 394 -34 l 465 -71 l 301 -305 z "},"ļ":{"ha":407,"x_min":-12,"x_max":514,"o":"m 299 -27 q 157 75 157 -27 q 163 118 157 94 l 364 990 l 507 1051 l 514 1051 l 298 118 q 324 88 292 88 l 376 88 l 375 81 l 299 -27 m 100 -305 l 94 -305 l -12 -248 l 186 -34 l 193 -34 l 264 -71 l 100 -305 z "},"Ľ":{"ha":751,"x_min":163,"x_max":782,"o":"m 305 0 q 163 102 163 0 q 169 145 163 121 l 364 990 l 507 1051 l 514 1051 l 304 145 q 332 115 298 115 l 566 115 q 684 195 646 115 l 691 195 l 782 146 q 539 0 707 0 l 305 0 m 648 1062 l 655 1062 l 761 1005 l 562 791 l 555 791 l 484 828 l 648 1062 z "},"ľ":{"ha":427,"x_min":157,"x_max":761,"o":"m 299 -27 q 157 75 157 -27 q 163 118 157 94 l 364 990 l 507 1051 l 514 1051 l 298 118 q 324 88 292 88 l 376 88 l 375 81 l 299 -27 m 648 1062 l 655 1062 l 761 1005 l 562 791 l 555 791 l 484 828 l 648 1062 z "},"Ŀ":{"ha":751,"x_min":163,"x_max":782,"o":"m 497 676 q 534 735 505 711 q 598 760 564 760 q 650 735 633 760 q 663 696 663 718 q 661 676 663 688 q 623 618 650 640 q 559 593 593 593 q 507 618 525 593 q 494 654 494 635 q 497 676 494 664 m 305 0 q 163 102 163 0 q 169 145 163 121 l 364 990 l 507 1051 l 514 1051 l 304 145 q 332 115 298 115 l 566 115 q 684 195 646 115 l 691 195 l 782 146 q 539 0 707 0 l 305 0 z "},"ŀ":{"ha":451,"x_min":157,"x_max":663,"o":"m 497 676 q 534 735 505 711 q 598 760 564 760 q 650 735 633 760 q 663 696 663 718 q 661 676 663 688 q 623 618 650 640 q 559 593 593 593 q 507 618 525 593 q 494 654 494 635 q 497 676 494 664 m 299 -27 q 157 75 157 -27 q 163 118 157 94 l 364 990 l 507 1051 l 514 1051 l 298 118 q 324 88 292 88 l 376 88 l 375 81 l 299 -27 z "},"Ł":{"ha":751,"x_min":163,"x_max":782,"o":"m 305 0 q 163 102 163 0 q 169 145 163 121 l 364 990 l 507 1051 l 514 1051 l 384 488 l 665 773 l 671 773 l 766 719 l 343 312 l 304 145 q 332 115 298 115 l 566 115 q 684 195 646 115 l 691 195 l 782 146 q 539 0 707 0 l 305 0 z "},"ł":{"ha":491,"x_min":92,"x_max":644,"o":"m 342 -27 q 200 75 200 -27 q 205 118 200 94 l 263 368 l 193 284 l 186 284 l 92 339 l 304 543 l 407 990 l 550 1051 l 557 1051 l 473 692 l 542 773 l 549 773 l 644 719 l 433 515 l 341 118 q 367 88 334 88 l 419 88 l 418 81 l 342 -27 z "},"Ń":{"ha":986,"x_min":116,"x_max":1027,"o":"m 116 -27 l 240 512 q 378 829 286 709 q 743 1038 541 1038 q 1010 829 945 1038 q 1027 705 1027 775 q 1002 512 1027 620 q 865 212 956 311 q 752 115 809 150 l 945 115 l 943 109 l 867 0 l 492 0 l 494 7 l 570 115 q 745 243 669 146 q 867 512 829 348 q 891 693 891 618 q 882 776 891 740 q 716 922 843 922 q 483 776 589 922 q 376 512 416 684 l 266 34 l 123 -27 l 116 -27 m 882 1333 l 889 1333 l 995 1276 l 796 1062 l 789 1062 l 718 1099 l 882 1333 z "},"ń":{"ha":775,"x_min":96,"x_max":821,"o":"m 566 115 q 734 115 566 115 l 732 109 l 656 0 l 339 0 l 340 7 l 416 115 q 554 227 512 173 q 624 373 606 293 q 643 509 643 456 q 637 555 643 536 q 536 644 614 644 q 393 555 459 644 q 323 373 353 499 l 245 34 l 102 -27 l 96 -27 l 188 373 q 290 603 220 515 q 563 760 412 760 q 763 603 718 760 q 777 502 777 556 q 760 373 777 441 q 566 115 722 209 m 709 1062 l 715 1062 l 821 1005 l 622 791 l 615 791 l 545 828 l 709 1062 z "},"Ņ":{"ha":986,"x_min":116,"x_max":1027,"o":"m 116 -27 l 240 512 q 378 829 286 709 q 743 1038 541 1038 q 1010 829 945 1038 q 1027 705 1027 775 q 1002 512 1027 620 q 865 212 956 311 q 752 115 809 150 l 945 115 l 943 109 l 867 0 l 492 0 l 494 7 l 570 115 q 745 243 669 146 q 867 512 829 348 q 891 693 891 618 q 882 776 891 740 q 716 922 843 922 q 483 776 589 922 q 376 512 416 684 l 266 34 l 123 -27 l 116 -27 m 334 -305 l 327 -305 l 221 -248 l 420 -34 l 427 -34 l 498 -71 l 334 -305 z "},"ņ":{"ha":775,"x_min":96,"x_max":777,"o":"m 566 115 q 734 115 566 115 l 732 109 l 656 0 l 339 0 l 340 7 l 416 115 q 554 227 512 173 q 624 373 606 293 q 643 509 643 456 q 637 555 643 536 q 536 644 614 644 q 393 555 459 644 q 323 373 353 499 l 245 34 l 102 -27 l 96 -27 l 188 373 q 290 603 220 515 q 563 760 412 760 q 763 603 718 760 q 777 502 777 556 q 760 373 777 441 q 566 115 722 209 m 249 -305 l 242 -305 l 136 -248 l 335 -34 l 342 -34 l 413 -71 l 249 -305 z "},"Ň":{"ha":986,"x_min":116,"x_max":1027,"o":"m 116 -27 l 240 512 q 378 829 286 709 q 743 1038 541 1038 q 1010 829 945 1038 q 1027 705 1027 775 q 1002 512 1027 620 q 865 212 956 311 q 752 115 809 150 l 945 115 l 943 109 l 867 0 l 492 0 l 494 7 l 570 115 q 745 243 669 146 q 867 512 829 348 q 891 693 891 618 q 882 776 891 740 q 716 922 843 922 q 483 776 589 922 q 376 512 416 684 l 266 34 l 123 -27 l 116 -27 m 684 1062 l 593 1296 l 681 1333 l 688 1333 l 757 1192 l 890 1333 l 897 1333 l 968 1296 l 823 1119 l 691 1062 l 684 1062 z "},"ň":{"ha":775,"x_min":96,"x_max":792,"o":"m 566 115 q 734 115 566 115 l 732 109 l 656 0 l 339 0 l 340 7 l 416 115 q 554 227 512 173 q 624 373 606 293 q 643 509 643 456 q 637 555 643 536 q 536 644 614 644 q 393 555 459 644 q 323 373 353 499 l 245 34 l 102 -27 l 96 -27 l 188 373 q 290 603 220 515 q 563 760 412 760 q 763 603 718 760 q 777 502 777 556 q 760 373 777 441 q 566 115 722 209 m 508 791 l 418 1025 l 505 1062 l 512 1062 l 581 921 l 714 1062 l 721 1062 l 792 1025 l 648 848 l 515 791 l 508 791 z "},"ŉ":{"ha":775,"x_min":96,"x_max":777,"o":"m 566 115 q 734 115 566 115 l 732 109 l 656 0 l 339 0 l 340 7 l 416 115 q 554 227 512 173 q 624 373 606 293 q 643 509 643 456 q 637 555 643 536 q 536 644 614 644 q 393 555 459 644 q 323 373 353 499 l 245 34 l 102 -27 l 96 -27 l 188 373 q 290 603 220 515 q 563 760 412 760 q 763 603 718 760 q 777 502 777 556 q 760 373 777 441 q 566 115 722 209 m 370 986 l 377 986 l 483 929 l 283 715 l 277 715 l 206 752 l 370 986 z "},"Ŋ":{"ha":1006,"x_min":116,"x_max":1027,"o":"m 116 -27 l 240 512 q 378 829 286 709 q 743 1038 541 1038 q 1010 829 945 1038 q 1027 705 1027 774 q 1002 512 1027 619 l 940 241 q 802 -76 895 47 q 511 -298 671 -248 l 505 -298 l 477 -197 q 697 -23 611 -140 q 804 241 764 68 l 867 512 q 891 693 891 618 q 882 776 891 740 q 716 922 843 922 q 483 776 589 922 q 376 512 416 684 l 266 34 l 123 -27 l 116 -27 z "},"ŋ":{"ha":789,"x_min":96,"x_max":777,"o":"m 96 -27 l 188 373 q 290 603 220 515 q 563 760 412 760 q 763 603 713 760 q 777 507 777 560 q 760 373 777 446 l 729 241 q 591 -76 684 47 q 300 -298 460 -248 l 294 -298 l 267 -197 q 486 -23 407 -138 q 593 241 555 77 l 624 373 q 643 507 643 455 q 637 555 643 535 q 536 644 613 644 q 393 555 459 644 q 323 373 353 499 l 245 34 l 102 -27 l 96 -27 z "},"Ō":{"ha":966,"x_min":195,"x_max":1006,"o":"m 355 512 q 331 329 331 404 q 340 248 331 282 q 507 102 380 102 q 739 248 631 102 q 846 512 806 339 q 871 693 871 618 q 861 776 871 740 q 696 922 823 922 q 463 776 570 922 q 355 512 394 683 m 220 511 q 358 829 265 709 q 722 1038 521 1038 q 990 829 926 1038 q 1006 706 1006 775 q 982 512 1006 622 q 844 195 937 315 q 479 -14 681 -14 q 212 195 278 -14 q 195 319 195 248 q 220 511 195 406 m 573 1111 l 574 1118 l 656 1234 l 967 1234 l 966 1227 l 884 1111 l 573 1111 z "},"ō":{"ha":775,"x_min":170,"x_max":804,"o":"m 323 373 q 304 237 304 289 q 309 191 304 210 q 411 102 335 102 q 553 191 487 102 q 624 373 595 248 q 643 509 643 456 q 637 555 643 536 q 536 644 614 644 q 391 553 456 644 q 323 373 352 498 m 188 372 q 290 603 220 515 q 563 760 412 760 q 763 603 713 760 q 777 507 777 560 q 760 373 777 448 q 658 143 725 228 q 384 -14 534 -14 q 184 142 236 -14 q 170 235 170 184 q 188 372 170 294 m 410 836 l 412 842 l 493 959 l 804 959 l 802 952 l 720 836 l 410 836 z "},"Ŏ":{"ha":966,"x_min":195,"x_max":1006,"o":"m 355 512 q 331 329 331 404 q 340 248 331 282 q 507 102 380 102 q 739 248 631 102 q 846 512 806 339 q 871 693 871 618 q 861 776 871 740 q 696 922 823 922 q 463 776 570 922 q 355 512 394 683 m 220 511 q 358 829 265 709 q 722 1038 521 1038 q 990 829 926 1038 q 1006 706 1006 775 q 982 512 1006 622 q 844 195 937 315 q 479 -14 681 -14 q 212 195 278 -14 q 195 319 195 248 q 220 511 195 406 m 597 1213 l 599 1219 l 673 1320 q 768 1230 701 1230 q 906 1320 836 1230 l 934 1219 l 932 1213 q 739 1111 840 1111 q 597 1213 635 1111 z "},"ŏ":{"ha":775,"x_min":170,"x_max":777,"o":"m 323 373 q 304 237 304 289 q 309 191 304 210 q 411 102 335 102 q 553 191 487 102 q 624 373 595 248 q 643 509 643 456 q 637 555 643 536 q 536 644 614 644 q 391 553 456 644 q 323 373 352 498 m 188 372 q 290 603 220 515 q 563 760 412 760 q 763 603 713 760 q 777 507 777 560 q 760 373 777 448 q 658 143 725 228 q 384 -14 534 -14 q 184 142 236 -14 q 170 235 170 184 q 188 372 170 294 m 433 937 l 435 944 l 509 1045 q 604 954 536 954 q 742 1045 672 954 l 770 944 l 768 937 q 575 836 675 836 q 433 937 471 836 z "},"Ő":{"ha":966,"x_min":195,"x_max":1053,"o":"m 355 512 q 331 329 331 404 q 340 248 331 282 q 507 102 380 102 q 739 248 631 102 q 846 512 806 339 q 871 693 871 618 q 861 776 871 740 q 696 922 823 922 q 463 776 570 922 q 355 512 394 683 m 220 511 q 358 829 265 709 q 722 1038 521 1038 q 990 829 926 1038 q 1006 706 1006 775 q 982 512 1006 622 q 844 195 937 315 q 479 -14 681 -14 q 212 195 278 -14 q 195 319 195 248 q 220 511 195 406 m 941 1333 l 947 1333 l 1053 1276 l 854 1062 l 848 1062 l 777 1099 l 941 1333 m 753 1333 l 760 1333 l 865 1276 l 667 1062 l 660 1062 l 589 1099 l 753 1333 z "},"ő":{"ha":775,"x_min":170,"x_max":880,"o":"m 323 373 q 304 237 304 289 q 309 191 304 210 q 411 102 335 102 q 553 191 487 102 q 624 373 595 248 q 643 509 643 456 q 637 555 643 536 q 536 644 614 644 q 391 553 456 644 q 323 373 352 498 m 188 372 q 290 603 220 515 q 563 760 412 760 q 763 603 713 760 q 777 507 777 560 q 760 373 777 448 q 658 143 725 228 q 384 -14 534 -14 q 184 142 236 -14 q 170 235 170 184 q 188 372 170 294 m 768 1062 l 774 1062 l 880 1005 l 681 791 l 674 791 l 604 828 l 768 1062 m 580 1062 l 587 1062 l 692 1005 l 493 791 l 486 791 l 416 828 l 580 1062 z "},"Œ":{"ha":1553,"x_min":195,"x_max":1617,"o":"m 1546 321 q 1470 195 1518 258 q 1106 -14 1310 -14 q 840 191 907 -14 q 479 -14 680 -14 q 212 195 277 -14 q 195 319 195 249 q 220 512 195 404 q 358 829 266 710 q 722 1038 521 1038 q 989 833 922 1038 q 1349 1038 1149 1038 q 1617 829 1552 1038 l 1495 776 l 1488 776 q 1322 922 1449 922 q 1089 776 1196 922 q 997 570 1034 701 l 1402 570 l 1401 563 l 1325 454 l 970 454 q 958 328 958 382 q 967 248 958 281 q 1133 102 1009 102 q 1366 248 1259 102 l 1539 321 l 1546 321 m 355 512 q 331 331 331 406 q 341 246 331 282 q 507 102 382 102 q 739 248 631 102 q 846 512 806 339 q 871 693 871 618 q 861 776 871 740 q 696 922 823 922 q 463 776 570 922 q 355 512 395 684 z "},"œ":{"ha":1201,"x_min":170,"x_max":1213,"o":"m 1158 256 q 1094 143 1131 191 q 820 -14 972 -14 q 631 112 686 -14 q 384 -14 519 -14 q 184 143 236 -14 q 170 237 170 184 q 188 373 170 298 q 290 603 221 515 q 563 760 411 760 q 751 634 699 760 q 999 760 863 760 q 1170 687 1115 760 q 1213 566 1213 631 q 1206 517 1213 542 q 1094 336 1181 413 q 880 259 1007 259 l 827 259 l 829 266 l 905 374 q 1019 414 978 374 q 1075 518 1059 452 q 1079 549 1079 534 q 1061 606 1079 581 q 972 644 1034 644 q 829 555 889 644 q 760 373 786 490 q 741 237 741 289 q 745 191 741 210 q 847 102 771 102 q 989 191 924 102 l 1152 256 l 1158 256 m 323 373 q 304 237 304 289 q 309 191 304 211 q 411 102 334 102 q 553 191 487 102 q 624 373 595 248 q 643 509 643 456 q 637 555 643 534 q 536 644 614 644 q 393 555 460 644 q 323 373 352 500 z "},"Ŕ":{"ha":975,"x_min":116,"x_max":1018,"o":"m 116 -27 l 240 512 q 378 829 286 709 q 743 1038 541 1038 q 981 913 912 1038 q 1018 767 1018 845 q 1008 682 1018 726 q 876 464 981 565 q 722 368 808 399 l 880 29 l 748 -27 l 741 -27 l 570 339 l 416 339 l 418 346 l 494 454 l 574 454 q 771 517 702 454 q 872 682 850 589 q 881 752 881 720 q 848 859 881 815 q 716 922 802 922 q 483 776 591 922 q 376 512 416 685 l 266 34 l 123 -27 l 116 -27 m 837 1333 l 844 1333 l 949 1276 l 751 1062 l 744 1062 l 673 1099 l 837 1333 z "},"ŕ":{"ha":492,"x_min":96,"x_max":679,"o":"m 96 -27 l 188 373 q 290 603 220 515 q 563 760 412 760 l 654 760 l 652 753 l 576 644 l 536 644 q 393 555 459 644 q 323 373 353 499 l 245 34 l 102 -27 l 96 -27 m 566 1062 l 573 1062 l 679 1005 l 479 791 l 473 791 l 402 828 l 566 1062 z "},"Ŗ":{"ha":975,"x_min":116,"x_max":1018,"o":"m 116 -27 l 240 512 q 378 829 286 709 q 743 1038 541 1038 q 981 913 912 1038 q 1018 767 1018 845 q 1008 682 1018 726 q 876 464 981 565 q 722 368 808 399 l 880 29 l 748 -27 l 741 -27 l 570 339 l 416 339 l 418 346 l 494 454 l 574 454 q 771 517 702 454 q 872 682 850 589 q 881 752 881 720 q 848 859 881 815 q 716 922 802 922 q 483 776 591 922 q 376 512 416 685 l 266 34 l 123 -27 l 116 -27 m 334 -305 l 327 -305 l 221 -248 l 420 -34 l 427 -34 l 498 -71 l 334 -305 z "},"ŗ":{"ha":492,"x_min":-41,"x_max":654,"o":"m 96 -27 l 188 373 q 290 603 220 515 q 563 760 412 760 l 654 760 l 652 753 l 576 644 l 536 644 q 393 555 459 644 q 323 373 353 499 l 245 34 l 102 -27 l 96 -27 m 72 -305 l 65 -305 l -41 -248 l 158 -34 l 165 -34 l 236 -71 l 72 -305 z "},"Ř":{"ha":975,"x_min":116,"x_max":1018,"o":"m 116 -27 l 240 512 q 378 829 286 709 q 743 1038 541 1038 q 981 913 912 1038 q 1018 767 1018 845 q 1008 682 1018 726 q 876 464 981 565 q 722 368 808 399 l 880 29 l 748 -27 l 741 -27 l 570 339 l 416 339 l 418 346 l 494 454 l 574 454 q 771 517 702 454 q 872 682 850 589 q 881 752 881 720 q 848 859 881 815 q 716 922 802 922 q 483 776 591 922 q 376 512 416 685 l 266 34 l 123 -27 l 116 -27 m 698 1062 l 607 1296 l 694 1333 l 701 1333 l 770 1192 l 903 1333 l 910 1333 l 981 1296 l 837 1119 l 705 1062 l 698 1062 z "},"ř":{"ha":492,"x_min":96,"x_max":688,"o":"m 96 -27 l 188 373 q 290 603 220 515 q 563 760 412 760 l 654 760 l 652 753 l 576 644 l 536 644 q 393 555 459 644 q 323 373 353 499 l 245 34 l 102 -27 l 96 -27 m 404 791 l 314 1025 l 401 1062 l 408 1062 l 477 921 l 610 1062 l 617 1062 l 688 1025 l 544 848 l 411 791 l 404 791 z "},"Ś":{"ha":821,"x_min":126,"x_max":896,"o":"m 126 195 q 248 248 126 195 l 255 248 q 421 102 295 102 q 594 180 509 102 q 677 324 655 235 q 682 366 682 347 q 660 438 682 408 q 528 513 620 492 q 366 589 428 535 q 307 715 307 639 q 313 768 307 739 q 448 968 342 890 q 657 1038 541 1038 q 858 883 809 1038 l 739 832 l 732 832 q 631 922 707 922 q 516 881 566 922 q 452 778 467 840 q 448 747 448 761 q 468 692 448 713 q 595 634 505 653 q 779 528 717 608 q 823 396 823 473 q 813 320 823 359 q 662 90 785 193 q 394 -14 540 -14 q 126 195 191 -14 m 783 1333 l 790 1333 l 896 1276 l 697 1062 l 690 1062 l 619 1099 l 783 1333 z "},"ś":{"ha":680,"x_min":114,"x_max":759,"o":"m 114 141 q 233 191 114 141 l 239 191 q 341 102 264 102 q 467 151 415 102 q 521 238 509 190 q 524 265 524 252 q 504 317 524 296 q 408 357 474 347 q 279 409 323 371 q 234 510 234 448 q 240 559 234 532 q 363 715 261 652 q 513 760 434 760 q 677 631 647 760 l 559 581 l 552 581 q 486 644 536 644 q 416 624 446 644 q 370 557 380 600 q 367 537 367 546 q 389 497 367 510 q 488 464 420 479 q 616 404 572 446 q 659 294 659 363 q 652 231 659 265 q 535 62 633 143 q 314 -14 443 -14 q 114 141 162 -14 m 646 1062 l 653 1062 l 759 1005 l 559 791 l 553 791 l 482 828 l 646 1062 z "},"Ŝ":{"ha":821,"x_min":126,"x_max":858,"o":"m 126 195 q 248 248 126 195 l 255 248 q 421 102 295 102 q 594 180 509 102 q 677 324 655 235 q 682 366 682 347 q 660 438 682 408 q 528 513 620 492 q 366 589 428 535 q 307 715 307 639 q 313 768 307 739 q 448 968 342 890 q 657 1038 541 1038 q 858 883 809 1038 l 739 832 l 732 832 q 631 922 707 922 q 516 881 566 922 q 452 778 467 840 q 448 747 448 761 q 468 692 448 713 q 595 634 505 653 q 779 528 717 608 q 823 396 823 473 q 813 320 823 359 q 662 90 785 193 q 394 -14 540 -14 q 126 195 191 -14 m 477 1099 l 622 1276 l 755 1333 l 762 1333 l 852 1099 l 765 1062 l 758 1062 l 689 1203 l 556 1062 l 549 1062 l 477 1099 z "},"ŝ":{"ha":680,"x_min":114,"x_max":704,"o":"m 114 141 q 233 191 114 141 l 239 191 q 341 102 264 102 q 467 151 415 102 q 521 238 509 190 q 524 265 524 252 q 504 317 524 296 q 408 357 474 347 q 279 409 323 371 q 234 510 234 448 q 240 559 234 532 q 363 715 261 652 q 513 760 434 760 q 677 631 647 760 l 559 581 l 552 581 q 486 644 536 644 q 416 624 446 644 q 370 557 380 600 q 367 537 367 546 q 389 497 367 510 q 488 464 420 479 q 616 404 572 446 q 659 294 659 363 q 652 231 659 265 q 535 62 633 143 q 314 -14 443 -14 q 114 141 162 -14 m 330 828 l 474 1005 l 607 1062 l 614 1062 l 704 828 l 616 791 l 610 791 l 541 932 l 408 791 l 401 791 l 330 828 z "},"Ş":{"ha":821,"x_min":126,"x_max":858,"o":"m 126 195 l 248 248 l 255 248 q 421 102 295 102 q 594 180 509 102 q 677 324 655 235 q 682 366 682 347 q 660 438 682 408 q 528 513 620 492 q 366 589 428 535 q 307 715 307 639 q 313 768 307 739 q 448 968 342 890 q 657 1038 541 1038 q 858 883 809 1038 l 739 832 l 732 832 q 631 922 707 922 q 516 881 566 922 q 452 778 467 840 q 448 747 448 761 q 468 692 448 713 q 595 634 505 653 q 779 528 717 608 q 823 396 823 473 q 813 320 823 362 q 662 90 785 193 q 454 -9 566 8 q 479 -94 479 -47 q 473 -140 479 -116 q 361 -305 452 -233 l 355 -305 l 240 -244 q 363 -103 347 -183 q 366 -75 366 -90 q 353 -12 366 -46 q 126 195 184 8 z "},"ş":{"ha":680,"x_min":114,"x_max":677,"o":"m 114 141 l 233 191 l 239 191 q 341 102 264 102 q 467 151 415 102 q 521 238 509 190 q 524 265 524 252 q 504 317 524 296 q 408 357 474 347 q 279 409 322 372 q 234 510 234 448 q 240 559 234 532 q 363 715 261 652 q 513 760 434 760 q 677 631 647 760 l 559 581 l 552 581 q 486 644 536 644 q 416 624 446 644 q 370 557 380 600 q 367 537 367 546 q 389 497 367 510 q 488 464 421 479 q 616 404 573 445 q 659 294 659 363 q 652 231 659 265 q 535 62 633 143 q 368 -10 463 3 q 393 -95 393 -49 q 387 -140 392 -117 q 275 -305 368 -231 l 269 -305 l 154 -244 q 277 -103 258 -186 q 281 -74 281 -89 q 266 -9 280 -42 q 114 141 154 12 z "},"Š":{"ha":821,"x_min":126,"x_max":873,"o":"m 126 195 q 248 248 126 195 l 255 248 q 421 102 295 102 q 594 180 509 102 q 677 324 655 235 q 682 366 682 347 q 660 438 682 408 q 528 513 620 492 q 366 589 428 535 q 307 715 307 639 q 313 768 307 739 q 448 968 342 890 q 657 1038 541 1038 q 858 883 809 1038 l 739 832 l 732 832 q 631 922 707 922 q 516 881 566 922 q 452 778 467 840 q 448 747 448 761 q 468 692 448 713 q 595 634 505 653 q 779 528 717 608 q 823 396 823 473 q 813 320 823 359 q 662 90 785 193 q 394 -14 540 -14 q 126 195 191 -14 m 590 1062 l 499 1296 l 587 1333 l 593 1333 l 663 1192 l 795 1333 l 802 1333 l 873 1296 l 729 1119 l 597 1062 l 590 1062 z "},"š":{"ha":680,"x_min":114,"x_max":718,"o":"m 114 141 q 233 191 114 141 l 239 191 q 341 102 264 102 q 467 151 415 102 q 521 238 509 190 q 524 265 524 252 q 504 317 524 296 q 408 357 474 347 q 279 409 323 371 q 234 510 234 448 q 240 559 234 532 q 363 715 261 652 q 513 760 434 760 q 677 631 647 760 l 559 581 l 552 581 q 486 644 536 644 q 416 624 446 644 q 370 557 380 600 q 367 537 367 546 q 389 497 367 510 q 488 464 420 479 q 616 404 572 446 q 659 294 659 363 q 652 231 659 265 q 535 62 633 143 q 314 -14 443 -14 q 114 141 162 -14 m 434 791 l 344 1025 l 431 1062 l 438 1062 l 507 921 l 640 1062 l 647 1062 l 718 1025 l 574 848 l 441 791 l 434 791 z "},"Ţ":{"ha":723,"x_min":206,"x_max":956,"o":"m 288 -27 l 504 909 l 422 909 q 303 829 341 909 l 296 829 l 206 878 q 449 1024 280 1024 l 956 1024 l 954 1017 l 878 909 l 640 909 l 437 35 q 500 -98 500 -23 q 496 -140 500 -118 q 384 -305 475 -232 l 377 -305 l 262 -244 q 386 -103 366 -186 q 389 -75 389 -89 q 368 4 389 -36 l 294 -27 l 288 -27 z "},"ţ":{"ha":511,"x_min":157,"x_max":670,"o":"m 271 -16 q 210 75 210 7 q 215 118 210 94 l 334 631 l 159 631 l 161 637 l 237 746 l 360 746 l 416 990 l 559 1051 l 566 1051 l 496 746 l 670 746 l 669 739 l 593 631 l 469 631 l 351 118 q 376 88 344 88 l 429 88 l 427 81 l 367 -5 q 395 -97 395 -47 q 390 -140 395 -118 q 278 -305 370 -232 l 271 -305 l 157 -244 q 279 -104 260 -185 q 283 -72 283 -90 q 271 -16 283 -43 z "},"Ť":{"ha":723,"x_min":206,"x_max":956,"o":"m 288 -27 l 504 909 l 422 909 q 303 829 341 909 l 296 829 l 206 878 q 449 1024 280 1024 l 956 1024 l 954 1017 l 878 909 l 640 909 l 437 34 l 294 -27 l 288 -27 m 549 1062 l 458 1296 l 546 1333 l 553 1333 l 622 1192 l 755 1333 l 762 1333 l 833 1296 l 688 1119 l 556 1062 l 549 1062 z "},"ť":{"ha":518,"x_min":159,"x_max":821,"o":"m 351 -27 q 210 75 210 -27 q 215 118 210 94 l 334 631 l 159 631 l 161 637 l 237 746 l 360 746 l 416 990 l 559 1051 l 566 1051 l 496 746 l 670 746 l 669 739 l 593 631 l 469 631 l 351 118 q 376 88 344 88 l 429 88 l 427 81 l 351 -27 m 709 1062 l 715 1062 l 821 1005 l 622 791 l 615 791 l 545 828 l 709 1062 z "},"Ŧ":{"ha":723,"x_min":206,"x_max":956,"o":"m 288 -27 l 381 378 l 254 378 l 255 385 l 331 494 l 408 494 l 504 909 l 422 909 q 303 829 341 909 l 296 829 l 206 878 q 449 1024 280 1024 l 956 1024 l 954 1017 l 878 909 l 640 909 l 544 494 l 671 494 l 669 487 l 593 378 l 517 378 l 437 34 l 294 -27 l 288 -27 z "},"ŧ":{"ha":511,"x_min":148,"x_max":670,"o":"m 351 -27 q 210 75 210 -27 q 215 118 210 94 l 275 378 l 148 378 l 149 385 l 225 494 l 302 494 l 334 631 l 159 631 l 161 637 l 237 746 l 360 746 l 416 990 l 559 1051 l 566 1051 l 496 746 l 670 746 l 669 739 l 593 631 l 469 631 l 437 494 l 565 494 l 564 487 l 488 378 l 411 378 l 351 118 q 376 88 344 88 l 429 88 l 427 81 l 351 -27 z "},"Ũ":{"ha":1000,"x_min":195,"x_max":1107,"o":"m 1107 1051 l 982 512 q 844 195 937 316 q 479 -14 682 -14 q 212 195 277 -14 q 195 319 195 250 q 220 512 195 405 q 357 812 267 713 q 470 909 414 875 l 277 909 l 279 916 l 355 1024 l 730 1024 l 728 1017 l 652 909 q 477 781 553 878 q 355 512 392 673 q 331 330 331 405 q 340 248 331 282 q 507 102 381 102 q 739 248 631 102 q 846 512 807 340 l 957 990 l 1100 1051 l 1107 1051 m 644 1111 q 784 1305 688 1305 q 866 1257 827 1305 q 909 1224 893 1224 q 943 1273 932 1224 l 1025 1305 l 1029 1305 q 889 1111 985 1111 q 807 1158 845 1111 q 764 1192 781 1192 q 730 1143 741 1192 l 648 1111 l 644 1111 z "},"ũ":{"ha":795,"x_min":172,"x_max":865,"o":"m 852 773 l 760 373 q 658 143 727 231 q 385 -14 535 -14 q 184 143 229 -14 q 172 242 172 189 q 188 373 172 303 q 381 631 227 538 l 214 631 l 215 637 l 291 746 l 608 746 l 607 739 l 531 631 q 393 519 436 574 q 323 373 342 454 q 304 239 304 291 q 310 191 304 211 q 412 102 334 102 q 554 191 488 102 q 624 373 595 247 l 702 712 l 845 773 l 852 773 m 479 836 q 619 1029 524 1029 q 701 982 663 1029 q 745 949 728 949 q 779 998 768 949 l 861 1029 l 865 1029 q 724 836 820 836 q 643 883 682 836 q 600 916 616 916 q 565 867 576 916 l 483 836 l 479 836 z "},"Ū":{"ha":1000,"x_min":195,"x_max":1107,"o":"m 1107 1051 l 982 512 q 844 195 937 316 q 479 -14 682 -14 q 212 195 277 -14 q 195 319 195 250 q 220 512 195 405 q 357 812 267 713 q 470 909 414 875 l 277 909 l 279 916 l 355 1024 l 730 1024 l 728 1017 l 652 909 q 477 781 553 878 q 355 512 392 673 q 331 330 331 405 q 340 248 331 282 q 507 102 381 102 q 739 248 631 102 q 846 512 807 340 l 957 990 l 1100 1051 l 1107 1051 m 641 1111 l 642 1118 l 724 1234 l 1035 1234 l 1034 1227 l 951 1111 l 641 1111 z "},"ū":{"ha":795,"x_min":172,"x_max":858,"o":"m 852 773 l 760 373 q 658 143 727 231 q 385 -14 535 -14 q 184 143 229 -14 q 172 242 172 189 q 188 373 172 303 q 381 631 227 538 l 214 631 l 215 637 l 291 746 l 608 746 l 607 739 l 531 631 q 393 519 436 574 q 323 373 342 454 q 304 239 304 291 q 310 191 304 211 q 412 102 334 102 q 554 191 488 102 q 624 373 595 247 l 702 712 l 845 773 l 852 773 m 464 836 l 466 842 l 547 959 l 858 959 l 857 952 l 774 836 l 464 836 z "},"Ŭ":{"ha":1000,"x_min":195,"x_max":1107,"o":"m 1107 1051 l 982 512 q 844 195 937 316 q 479 -14 682 -14 q 212 195 277 -14 q 195 319 195 250 q 220 512 195 405 q 357 812 267 713 q 470 909 414 875 l 277 909 l 279 916 l 355 1024 l 730 1024 l 728 1017 l 652 909 q 477 781 553 878 q 355 512 392 673 q 331 330 331 405 q 340 248 331 282 q 507 102 381 102 q 739 248 631 102 q 846 512 807 340 l 957 990 l 1100 1051 l 1107 1051 m 665 1213 l 667 1219 l 741 1320 q 836 1230 768 1230 q 974 1320 904 1230 l 1002 1219 l 1000 1213 q 807 1111 907 1111 q 665 1213 703 1111 z "},"ŭ":{"ha":795,"x_min":172,"x_max":852,"o":"m 852 773 l 760 373 q 658 143 727 231 q 385 -14 535 -14 q 184 143 229 -14 q 172 242 172 189 q 188 373 172 303 q 381 631 227 538 l 214 631 l 215 637 l 291 746 l 608 746 l 607 739 l 531 631 q 393 519 436 574 q 323 373 342 454 q 304 239 304 291 q 310 191 304 211 q 412 102 334 102 q 554 191 488 102 q 624 373 595 247 l 702 712 l 845 773 l 852 773 m 488 937 l 489 944 l 563 1045 q 659 954 591 954 q 796 1045 726 954 l 824 944 l 823 937 q 629 836 730 836 q 488 937 525 836 z "},"Ů":{"ha":1000,"x_min":195,"x_max":1107,"o":"m 795 1077 q 709 1110 739 1077 q 686 1175 686 1137 q 689 1205 686 1189 q 753 1300 701 1260 q 852 1333 798 1333 q 937 1300 907 1333 q 960 1237 960 1274 q 956 1205 960 1222 q 895 1109 942 1145 q 795 1077 851 1077 m 836 1263 q 796 1249 813 1263 q 772 1205 779 1234 q 770 1184 770 1193 q 777 1161 770 1168 q 809 1147 789 1147 q 848 1162 831 1147 q 871 1205 865 1176 q 874 1226 874 1217 q 867 1249 874 1240 q 836 1263 857 1262 m 1107 1051 l 982 512 q 844 195 937 316 q 479 -14 682 -14 q 212 195 277 -14 q 195 319 195 250 q 220 512 195 405 q 357 812 267 713 q 470 909 414 875 l 277 909 l 279 916 l 355 1024 l 730 1024 l 728 1017 l 652 909 q 477 781 553 878 q 355 512 392 673 q 331 330 331 405 q 340 248 331 282 q 507 102 381 102 q 739 248 631 102 q 846 512 807 340 l 957 990 l 1100 1051 l 1107 1051 z "},"ů":{"ha":795,"x_min":172,"x_max":852,"o":"m 625 806 q 539 839 569 806 q 515 903 515 866 q 519 934 515 918 q 583 1029 530 989 q 682 1062 627 1062 q 766 1029 736 1062 q 790 966 790 1002 q 786 934 790 951 q 724 838 772 874 q 625 806 681 806 m 666 991 q 626 977 643 991 q 602 934 608 962 q 600 913 600 922 q 606 890 600 897 q 639 876 618 876 q 678 891 661 876 q 701 934 695 905 q 704 955 704 946 q 697 978 704 969 q 666 991 686 991 m 852 773 l 760 373 q 658 143 727 231 q 385 -14 535 -14 q 184 143 229 -14 q 172 242 172 189 q 188 373 172 303 q 381 631 227 538 l 214 631 l 215 637 l 291 746 l 608 746 l 607 739 l 531 631 q 393 519 436 574 q 323 373 342 454 q 304 239 304 291 q 310 191 304 211 q 412 102 334 102 q 554 191 488 102 q 624 373 595 247 l 702 712 l 845 773 l 852 773 z "},"Ű":{"ha":1000,"x_min":195,"x_max":1121,"o":"m 1107 1051 l 982 512 q 844 195 937 316 q 479 -14 682 -14 q 212 195 277 -14 q 195 319 195 250 q 220 512 195 405 q 357 812 267 713 q 470 909 414 875 l 277 909 l 279 916 l 355 1024 l 730 1024 l 728 1017 l 652 909 q 477 781 553 878 q 355 512 392 673 q 331 330 331 405 q 340 248 331 282 q 507 102 381 102 q 739 248 631 102 q 846 512 807 340 l 957 990 l 1100 1051 l 1107 1051 m 1008 1333 l 1015 1333 l 1121 1276 l 922 1062 l 916 1062 l 844 1099 l 1008 1333 m 821 1333 l 827 1333 l 933 1276 l 734 1062 l 728 1062 l 656 1099 l 821 1333 z "},"ű":{"ha":795,"x_min":172,"x_max":935,"o":"m 852 773 l 760 373 q 658 143 727 231 q 385 -14 535 -14 q 184 143 229 -14 q 172 242 172 189 q 188 373 172 303 q 381 631 227 538 l 214 631 l 215 637 l 291 746 l 608 746 l 607 739 l 531 631 q 393 519 436 574 q 323 373 342 454 q 304 239 304 291 q 310 191 304 211 q 412 102 334 102 q 554 191 488 102 q 624 373 595 247 l 702 712 l 845 773 l 852 773 m 822 1062 l 829 1062 l 935 1005 l 735 791 l 728 791 l 658 828 l 822 1062 m 634 1062 l 641 1062 l 747 1005 l 547 791 l 541 791 l 470 828 l 634 1062 z "},"Ų":{"ha":1000,"x_min":195,"x_max":1107,"o":"m 1107 1051 l 982 512 q 844 195 937 316 q 683 45 768 98 q 578 -103 597 -29 q 574 -134 574 -119 q 637 -244 576 -198 l 494 -305 l 487 -305 q 445 -189 445 -252 q 451 -140 445 -165 q 530 -10 468 -69 q 479 -14 505 -14 q 212 195 277 -14 q 195 319 195 250 q 220 512 195 405 q 357 812 267 713 q 470 909 414 875 l 277 909 l 279 916 l 355 1024 l 730 1024 l 728 1017 l 652 909 q 477 781 553 878 q 355 512 392 673 q 331 330 331 405 q 340 248 331 282 q 507 102 381 102 q 739 248 631 102 q 846 512 806 340 l 957 990 l 1100 1051 l 1107 1051 z "},"ų":{"ha":795,"x_min":172,"x_max":852,"o":"m 852 773 l 760 373 q 658 143 727 232 q 557 44 610 81 q 456 -103 475 -27 q 452 -134 452 -119 q 515 -244 454 -198 l 372 -305 l 365 -305 q 323 -189 323 -252 q 329 -140 323 -165 q 405 -13 346 -69 q 385 -14 395 -14 q 184 143 229 -14 q 172 242 172 189 q 188 373 172 303 q 381 631 227 538 l 214 631 l 215 637 l 291 746 l 608 746 l 607 739 l 531 631 q 393 519 436 574 q 323 373 342 454 q 304 239 304 291 q 310 191 304 211 q 412 102 334 102 q 554 191 488 102 q 624 373 595 247 l 702 712 l 845 773 l 852 773 z "},"Ŵ":{"ha":1592,"x_min":195,"x_max":1633,"o":"m 1107 1051 l 982 512 q 958 330 958 405 q 967 248 958 282 q 1133 102 1008 102 q 1366 248 1257 102 q 1473 512 1434 340 q 1497 694 1497 619 q 1488 776 1497 741 q 1348 950 1456 893 l 1423 1051 l 1430 1051 q 1617 829 1566 1001 q 1633 704 1633 774 q 1609 512 1633 621 q 1470 195 1563 317 q 1106 -14 1310 -14 q 840 191 907 -14 q 479 -14 679 -14 q 212 195 277 -14 q 195 319 195 250 q 220 512 195 405 q 357 812 267 713 q 470 909 414 875 l 277 909 l 279 916 l 355 1024 l 730 1024 l 728 1017 l 652 909 q 477 781 553 878 q 355 512 392 673 q 331 330 331 405 q 340 248 331 282 q 507 102 381 102 q 739 248 631 102 q 846 512 807 340 l 957 990 l 1100 1051 l 1107 1051 m 866 1099 l 1010 1276 l 1143 1333 l 1150 1333 l 1240 1099 l 1154 1062 l 1147 1062 l 1078 1203 l 945 1062 l 938 1062 l 866 1099 z "},"ŵ":{"ha":1211,"x_min":170,"x_max":1211,"o":"m 852 773 l 760 373 q 741 237 741 290 q 745 191 741 210 q 847 102 768 102 q 989 191 924 102 q 1060 373 1031 247 q 1078 505 1078 448 q 1074 555 1078 532 q 983 672 1057 643 l 1057 773 l 1063 773 q 1200 603 1170 727 q 1211 503 1211 555 q 1196 373 1211 442 q 1094 143 1164 235 q 820 -14 973 -14 q 631 111 685 -14 q 385 -14 519 -14 q 184 143 235 -14 q 170 238 170 185 q 188 373 170 300 q 381 631 226 537 l 214 631 l 215 637 l 291 746 l 608 746 l 607 739 l 531 631 q 393 519 435 573 q 323 373 342 454 q 304 238 304 291 q 310 191 304 210 q 412 102 332 102 q 554 191 488 102 q 624 373 595 247 l 702 712 l 845 773 l 852 773 m 610 828 l 755 1005 l 888 1062 l 895 1062 l 985 828 l 897 791 l 890 791 l 821 932 l 688 791 l 682 791 l 610 828 z "},"Ŷ":{"ha":930,"x_min":218,"x_max":1038,"o":"m 366 647 q 356 566 356 604 q 388 451 356 498 q 532 376 437 376 q 702 446 625 376 q 799 606 778 515 l 888 990 l 1031 1051 l 1038 1051 l 803 34 l 660 -27 l 653 -27 l 742 359 q 506 260 634 260 q 254 399 331 260 q 218 546 218 464 q 231 647 218 593 q 311 803 250 734 q 470 909 370 869 l 277 909 l 279 916 l 355 1024 l 730 1024 l 728 1017 l 652 909 q 454 800 541 882 q 366 647 387 736 m 572 1099 l 717 1276 l 850 1333 l 857 1333 l 947 1099 l 860 1062 l 853 1062 l 784 1203 l 651 1062 l 644 1062 l 572 1099 z "},"ŷ":{"ha":809,"x_min":157,"x_max":852,"o":"m 852 773 l 695 95 q 594 -135 663 -44 q 321 -292 475 -292 l 157 -292 l 159 -285 l 235 -176 l 347 -176 q 490 -87 432 -176 q 547 54 529 -26 q 384 -14 465 -14 q 184 143 232 -14 q 171 238 171 185 q 188 373 171 298 q 381 631 224 537 l 214 631 l 215 637 l 291 746 l 608 746 l 607 739 l 531 631 q 393 519 436 574 q 323 373 342 454 q 304 239 304 291 q 310 191 304 211 q 412 102 334 102 q 554 191 488 102 q 624 373 595 247 l 702 712 l 845 773 l 852 773 m 445 828 l 589 1005 l 722 1062 l 729 1062 l 819 828 l 732 791 l 725 791 l 656 932 l 523 791 l 516 791 l 445 828 z "},"Ÿ":{"ha":930,"x_min":218,"x_max":1038,"o":"m 802 1222 q 840 1281 810 1257 q 903 1305 869 1305 q 956 1281 938 1305 q 968 1242 968 1263 q 966 1222 968 1234 q 928 1164 956 1186 q 864 1139 899 1139 q 812 1164 830 1139 q 800 1200 800 1181 q 802 1222 800 1210 m 598 1222 q 635 1281 606 1257 q 699 1305 665 1305 q 751 1281 734 1305 q 764 1242 764 1263 q 762 1222 764 1234 q 724 1164 751 1186 q 660 1139 694 1139 q 608 1164 626 1139 q 595 1200 595 1181 q 598 1222 595 1210 m 366 647 q 356 566 356 604 q 388 451 356 498 q 532 376 437 376 q 702 446 625 376 q 799 606 778 515 l 888 990 l 1031 1051 l 1038 1051 l 803 34 l 660 -27 l 653 -27 l 742 359 q 506 260 634 260 q 254 399 331 260 q 218 546 218 464 q 231 647 218 593 q 311 803 250 734 q 470 909 370 869 l 277 909 l 279 916 l 355 1024 l 730 1024 l 728 1017 l 652 909 q 454 800 541 882 q 366 647 387 736 z "},"Ź":{"ha":819,"x_min":100,"x_max":909,"o":"m 212 0 q 100 67 100 0 q 102 91 100 78 q 208 265 118 165 l 767 909 l 336 909 l 338 916 l 414 1024 l 794 1024 q 909 956 909 1024 q 907 932 909 945 q 798 759 889 861 l 239 115 l 555 115 q 674 195 635 115 l 681 195 l 772 146 q 529 0 697 0 l 212 0 m 782 1333 l 789 1333 l 895 1276 l 696 1062 l 689 1062 l 618 1099 l 782 1333 z "},"ź":{"ha":714,"x_min":86,"x_max":766,"o":"m 199 0 q 86 67 86 0 q 89 91 86 78 q 213 258 102 157 l 612 631 l 259 631 l 260 637 l 336 746 l 638 746 q 751 679 751 746 q 748 655 751 668 q 625 491 735 595 l 225 115 l 464 115 q 583 195 544 115 l 589 195 l 680 146 q 437 0 606 0 l 199 0 m 654 1062 l 661 1062 l 766 1005 l 567 791 l 560 791 l 490 828 l 654 1062 z "},"Ż":{"ha":819,"x_min":100,"x_max":909,"o":"m 638 1222 q 675 1281 646 1257 q 739 1305 705 1305 q 791 1281 774 1305 q 804 1242 804 1263 q 802 1222 804 1234 q 764 1164 791 1186 q 700 1139 734 1139 q 648 1164 666 1139 q 635 1200 635 1181 q 638 1222 635 1210 m 212 0 q 100 67 100 0 q 102 91 100 78 q 208 265 118 165 l 767 909 l 336 909 l 338 916 l 414 1024 l 794 1024 q 909 956 909 1024 q 907 932 909 945 q 798 759 889 861 l 239 115 l 555 115 q 674 195 635 115 l 681 195 l 772 146 q 529 0 697 0 l 212 0 z "},"ż":{"ha":714,"x_min":86,"x_max":751,"o":"m 503 954 q 540 1013 511 989 q 604 1038 569 1038 q 656 1013 638 1038 q 669 975 669 996 q 666 954 669 966 q 629 896 656 918 q 564 871 599 871 q 512 897 530 871 q 500 932 500 913 q 503 954 500 942 m 199 0 q 86 67 86 0 q 89 91 86 78 q 213 258 102 157 l 612 631 l 259 631 l 260 637 l 336 746 l 638 746 q 751 679 751 746 q 748 655 751 668 q 625 491 735 595 l 225 115 l 464 115 q 583 195 544 115 l 589 195 l 680 146 q 437 0 606 0 l 199 0 z "},"Ž":{"ha":819,"x_min":100,"x_max":915,"o":"m 212 0 q 100 67 100 0 q 102 91 100 78 q 208 265 118 165 l 767 909 l 336 909 l 338 916 l 414 1024 l 794 1024 q 909 956 909 1024 q 907 932 909 945 q 798 759 889 861 l 239 115 l 555 115 q 674 195 635 115 l 681 195 l 772 146 q 529 0 697 0 l 212 0 m 631 1062 l 541 1296 l 628 1333 l 635 1333 l 704 1192 l 837 1333 l 844 1333 l 915 1296 l 770 1119 l 638 1062 l 631 1062 z "},"ž":{"ha":714,"x_min":86,"x_max":792,"o":"m 199 0 q 86 67 86 0 q 89 91 86 78 q 213 258 102 157 l 612 631 l 259 631 l 260 637 l 336 746 l 638 746 q 751 679 751 746 q 748 655 751 668 q 625 491 735 595 l 225 115 l 464 115 q 583 195 544 115 l 589 195 l 680 146 q 437 0 606 0 l 199 0 m 508 791 l 418 1025 l 505 1062 l 512 1062 l 581 921 l 714 1062 l 721 1062 l 792 1025 l 648 848 l 515 791 l 508 791 z "},"ſ":{"ha":581,"x_min":163,"x_max":787,"o":"m 163 -27 l 300 563 l 164 563 l 165 570 l 241 678 l 327 678 q 422 881 359 800 q 694 1038 543 1038 l 786 1038 l 785 1031 l 708 922 l 668 922 q 526 833 593 922 q 461 677 486 781 l 313 34 l 170 -27 l 163 -27 z "},"Ƒ":{"ha":833,"x_min":-97,"x_max":1010,"o":"m -97 -298 l -95 -292 l -12 -170 q 73 -94 35 -146 q 142 88 114 -35 l 240 512 q 378 829 286 711 q 743 1038 542 1038 q 1010 829 945 1038 l 888 776 l 882 776 q 716 922 842 922 q 483 776 590 922 q 391 570 428 701 l 776 570 l 774 563 l 699 454 l 363 454 l 278 88 q 176 -145 244 -58 q -97 -298 55 -298 z "},"ƒ":{"ha":567,"x_min":-97,"x_max":739,"o":"m -95 -292 l -12 -170 q 73 -94 39 -144 q 142 88 116 -27 l 273 651 q 374 881 305 792 q 647 1038 496 1038 l 739 1038 l 737 1031 l 661 922 l 621 922 q 478 833 544 922 q 414 678 442 785 l 656 678 l 654 671 l 578 563 l 388 563 l 278 88 q 176 -142 245 -52 q -97 -298 54 -298 l -95 -292 z "},"Ǥ":{"ha":966,"x_min":195,"x_max":1010,"o":"m 593 225 l 595 232 l 671 340 l 791 340 q 832 454 814 391 l 576 454 l 578 461 l 654 570 l 996 570 l 982 512 q 927 340 960 417 l 1010 340 l 1009 334 l 933 225 l 865 225 q 844 195 854 210 q 479 -14 684 -14 q 212 195 277 -14 q 195 319 195 249 q 220 512 195 404 q 358 829 266 710 q 722 1038 521 1038 q 990 829 925 1038 l 868 776 l 861 776 q 696 922 822 922 q 463 776 571 922 q 355 512 394 684 q 331 329 331 404 q 340 248 331 283 q 507 102 380 102 q 722 225 621 102 l 593 225 z "},"ǥ":{"ha":789,"x_min":157,"x_max":850,"o":"m 384 -14 q 184 143 235 -14 q 170 237 170 184 q 188 373 170 298 q 290 603 221 516 q 563 760 412 760 q 763 603 713 760 q 777 507 777 560 q 768 414 777 463 l 850 414 l 849 407 l 773 298 l 743 298 l 695 95 q 594 -135 663 -45 q 321 -292 475 -292 l 157 -292 l 159 -285 l 235 -176 l 347 -176 q 490 -87 431 -176 q 559 95 533 -20 l 607 298 l 433 298 l 435 305 l 511 414 l 633 414 q 643 507 643 469 q 637 555 643 535 q 536 644 613 644 q 393 554 458 644 q 323 373 352 498 q 304 237 304 290 q 309 191 304 211 q 410 102 334 102 l 462 102 l 460 95 l 384 -14 z "},"Ǽ":{"ha":1572,"x_min":116,"x_max":1636,"o":"m 391 570 l 879 570 q 891 692 891 639 q 882 776 891 740 q 716 922 843 922 q 484 777 591 922 q 391 570 426 697 m 1565 321 q 1489 195 1537 258 q 1125 -14 1329 -14 q 859 189 926 -14 q 574 -27 730 22 l 568 -27 l 540 74 q 760 248 673 131 q 852 454 815 324 l 363 454 l 266 34 l 123 -27 l 116 -27 l 240 512 q 378 829 286 709 q 743 1038 541 1038 q 1008 835 943 1038 q 1368 1038 1168 1038 q 1636 829 1571 1038 l 1514 776 l 1507 776 q 1341 922 1468 922 q 1108 776 1215 922 q 1016 570 1053 701 l 1421 570 l 1420 563 l 1344 454 l 989 454 q 977 328 977 382 q 986 248 977 281 q 1152 102 1028 102 q 1385 248 1278 102 l 1558 321 l 1565 321 m 1145 1333 l 1152 1333 l 1258 1276 l 1059 1062 l 1053 1062 l 981 1099 l 1145 1333 z "},"ǽ":{"ha":1201,"x_min":171,"x_max":1213,"o":"m 532 -27 l 624 373 q 643 510 643 458 q 638 555 643 536 q 536 644 612 644 q 394 555 460 644 q 323 373 353 498 q 304 239 304 291 q 310 191 304 211 q 410 102 334 102 l 463 102 l 460 95 l 385 -14 q 184 143 234 -14 q 171 239 171 186 q 188 373 171 298 q 290 603 220 515 q 564 760 412 760 q 752 634 696 760 q 999 760 863 760 q 1170 687 1115 760 q 1213 566 1213 631 q 1206 517 1213 542 q 1094 336 1181 413 q 880 259 1007 259 l 827 259 l 829 266 l 905 374 q 1019 414 978 374 q 1075 518 1059 452 q 1079 549 1079 534 q 1061 606 1079 582 q 972 644 1034 644 q 829 555 889 644 q 760 373 786 490 q 741 237 741 289 q 745 191 741 210 q 847 102 771 102 q 989 191 924 102 l 1152 256 l 1158 256 q 1094 143 1131 191 q 820 -14 972 -14 q 681 38 734 -14 l 538 -27 l 532 -27 m 863 1062 l 869 1062 l 975 1005 l 776 791 l 769 791 l 699 828 l 863 1062 z "},"Ǿ":{"ha":966,"x_min":195,"x_max":1007,"o":"m 273 -27 l 266 -27 l 203 7 l 262 92 q 212 195 231 136 q 195 319 195 249 q 220 512 195 404 q 358 829 266 710 q 722 1038 521 1038 q 886 989 821 1038 l 930 1051 l 937 1051 l 999 1017 l 940 932 q 990 829 971 890 q 1007 705 1007 774 q 982 512 1007 619 q 844 195 936 315 q 479 -14 683 -14 q 316 35 382 -14 l 273 -27 m 357 512 q 331 326 331 401 q 340 248 331 281 q 351 219 344 237 l 809 878 q 696 922 766 922 q 464 776 575 922 q 357 512 397 689 m 852 806 l 394 147 q 507 102 437 102 q 739 248 631 102 q 846 512 804 336 q 872 696 872 620 q 863 777 872 742 q 852 806 859 791 m 862 1333 l 869 1333 l 975 1276 l 776 1062 l 769 1062 l 698 1099 l 862 1333 z "},"ǿ":{"ha":775,"x_min":170,"x_max":821,"o":"m 241 -27 l 235 -27 l 172 7 l 217 72 q 184 143 197 102 q 170 236 170 183 q 188 373 170 296 q 290 603 220 514 q 563 760 411 760 q 674 730 629 760 l 705 773 l 711 773 l 774 739 l 730 675 q 763 603 750 644 q 777 506 777 559 q 760 373 777 446 q 658 143 726 231 q 384 -14 536 -14 q 272 17 318 -14 l 241 -27 m 600 623 q 536 644 574 644 q 393 554 458 644 q 323 373 352 497 q 304 237 304 290 q 307 201 304 217 l 600 623 m 640 545 l 347 124 q 411 102 372 102 q 553 191 486 102 q 626 373 602 254 q 643 503 643 456 q 640 545 643 527 m 709 1062 l 715 1062 l 821 1005 l 622 791 l 615 791 l 545 828 l 709 1062 z "},"Ș":{"ha":821,"x_min":126,"x_max":858,"o":"m 126 195 q 248 248 126 195 l 255 248 q 421 102 295 102 q 594 180 509 102 q 677 324 655 235 q 682 366 682 347 q 660 438 682 408 q 528 513 620 492 q 366 589 428 535 q 307 715 307 639 q 313 768 307 739 q 448 968 342 890 q 657 1038 541 1038 q 858 883 809 1038 l 739 832 l 732 832 q 631 922 707 922 q 516 881 566 922 q 452 778 467 840 q 448 747 448 761 q 468 692 448 713 q 595 634 505 653 q 779 528 717 608 q 823 396 823 473 q 813 320 823 359 q 662 90 785 193 q 394 -14 540 -14 q 126 195 191 -14 m 269 -305 l 262 -305 l 157 -248 l 355 -34 l 362 -34 l 433 -71 l 269 -305 z "},"ș":{"ha":680,"x_min":64,"x_max":677,"o":"m 114 141 q 233 191 114 141 l 239 191 q 341 102 264 102 q 467 151 415 102 q 521 238 509 190 q 524 265 524 252 q 504 317 524 296 q 408 357 474 347 q 279 409 323 371 q 234 510 234 448 q 240 559 234 532 q 363 715 261 652 q 513 760 434 760 q 677 631 647 760 l 559 581 l 552 581 q 486 644 536 644 q 416 624 446 644 q 370 557 380 600 q 367 537 367 546 q 389 497 367 510 q 488 464 420 479 q 616 404 572 446 q 659 294 659 363 q 652 231 659 265 q 535 62 633 143 q 314 -14 443 -14 q 114 141 162 -14 m 176 -305 l 170 -305 l 64 -248 l 262 -34 l 269 -34 l 340 -71 l 176 -305 z "},"Ț":{"ha":723,"x_min":140,"x_max":956,"o":"m 288 -27 l 504 909 l 422 909 q 303 829 341 909 l 296 829 l 206 878 q 449 1024 280 1024 l 956 1024 l 954 1017 l 878 909 l 640 909 l 437 34 l 294 -27 l 288 -27 m 253 -305 l 246 -305 l 140 -248 l 339 -34 l 346 -34 l 417 -71 l 253 -305 z "},"ț":{"ha":511,"x_min":57,"x_max":670,"o":"m 351 -27 q 210 75 210 -27 q 215 118 210 94 l 334 631 l 159 631 l 161 637 l 237 746 l 360 746 l 416 990 l 559 1051 l 566 1051 l 496 746 l 670 746 l 669 739 l 593 631 l 469 631 l 351 118 q 376 88 344 88 l 429 88 l 427 81 l 351 -27 m 170 -305 l 163 -305 l 57 -248 l 256 -34 l 262 -34 l 334 -71 l 170 -305 z "},"ȷ":{"ha":407,"x_min":-83,"x_max":450,"o":"m -81 -292 l 2 -170 q 86 -94 46 -147 q 156 88 127 -39 l 300 712 l 443 773 l 450 773 l 292 88 q 190 -142 259 -54 q -83 -298 67 -298 l -81 -292 z "},"Δ":{"ha":772,"x_min":52,"x_max":766,"o":"m 165 0 q 52 67 52 0 q 55 91 52 78 q 151 295 68 151 l 546 996 l 676 1051 l 683 1051 l 756 295 q 766 166 766 220 q 759 91 766 121 q 607 0 739 0 l 165 0 m 191 115 l 631 115 l 578 824 l 191 115 z "},"Π":{"ha":943,"x_min":130,"x_max":1015,"o":"m 130 -27 l 338 879 q 542 1024 372 1024 l 874 1024 q 1015 923 1015 1024 q 1010 879 1015 903 l 815 34 l 672 -27 l 665 -27 l 874 879 q 847 909 881 909 l 515 909 q 474 879 481 909 l 279 34 l 136 -27 l 130 -27 z "},"Σ":{"ha":792,"x_min":120,"x_max":876,"o":"m 233 0 q 120 68 120 0 q 123 91 120 79 q 235 245 136 148 l 518 525 l 378 779 q 336 908 336 856 q 338 933 336 922 q 490 1024 360 1024 l 876 1024 l 873 1017 l 798 909 l 463 909 l 675 525 l 259 115 l 576 115 q 694 195 656 115 l 701 195 l 792 146 q 549 0 718 0 l 233 0 z "},"Ω":{"ha":1000,"x_min":102,"x_max":1037,"o":"m 427 0 l 277 0 q 102 146 109 0 l 214 195 l 221 195 q 303 115 224 115 l 344 115 l 359 181 q 236 446 236 267 q 257 609 237 520 q 405 880 291 758 q 739 1038 553 1038 q 1000 880 923 1038 q 1037 718 1037 805 q 1023 609 1036 665 q 724 181 953 302 l 709 115 l 749 115 q 868 195 828 115 l 875 195 l 966 146 q 723 0 891 0 l 572 0 l 630 250 q 888 609 825 338 q 899 703 899 659 q 876 821 899 768 q 715 925 829 925 q 504 821 597 925 q 393 609 420 728 q 375 469 375 532 q 485 250 375 313 l 427 0 z "},"μ":{"ha":816,"x_min":52,"x_max":872,"o":"m 52 -305 l 208 373 q 310 603 237 501 q 525 773 398 727 l 532 773 l 559 672 q 414 555 471 643 q 344 373 370 485 q 325 239 325 291 q 330 191 325 211 q 432 102 355 102 q 574 191 509 102 q 644 373 615 247 l 722 712 l 865 773 l 872 773 l 780 373 q 679 143 747 231 q 405 -14 557 -14 q 266 37 319 -14 l 201 -244 l 58 -305 l 52 -305 z "},"π":{"ha":795,"x_min":130,"x_max":804,"o":"m 130 -27 l 275 601 q 477 746 308 746 l 663 746 q 804 644 804 746 q 799 601 804 625 l 668 34 l 525 -27 l 518 -27 l 663 601 q 636 631 670 631 l 451 631 q 410 601 417 631 l 279 34 l 136 -27 l 130 -27 z "},"Ḃ":{"ha":947,"x_min":116,"x_max":970,"o":"m 670 1222 q 707 1281 678 1257 q 771 1305 736 1305 q 823 1281 806 1305 q 836 1242 836 1263 q 833 1222 836 1234 q 796 1164 823 1186 q 732 1139 766 1139 q 680 1164 698 1139 q 667 1200 667 1181 q 670 1222 667 1210 m 116 -27 l 240 512 q 378 829 286 709 q 743 1038 541 1038 q 919 975 857 1038 q 970 843 970 924 q 962 774 970 811 q 814 580 937 658 q 871 537 846 566 q 927 387 927 474 q 918 313 927 353 q 781 93 886 178 q 503 0 665 0 l 372 0 l 374 7 l 450 115 l 530 115 q 707 182 629 115 q 781 309 762 229 q 789 368 789 340 q 768 444 789 412 q 622 513 724 513 l 491 513 l 492 519 l 568 628 l 648 628 q 768 672 717 628 q 829 777 814 712 q 833 817 833 798 q 814 882 833 854 q 716 922 784 922 q 483 776 590 922 q 376 512 416 684 l 266 34 l 123 -27 l 116 -27 z "},"ḃ":{"ha":795,"x_min":191,"x_max":797,"o":"m 598 954 q 635 1013 606 989 q 699 1038 665 1038 q 751 1013 734 1038 q 764 975 764 996 q 762 954 764 966 q 724 896 751 918 q 660 871 694 871 q 608 897 626 871 q 595 932 595 913 q 598 954 595 942 m 351 990 l 494 1051 l 500 1051 l 344 373 q 325 236 325 288 q 330 191 325 210 q 431 102 355 102 q 574 191 508 102 q 644 373 615 248 q 663 507 663 455 q 658 555 663 535 q 557 644 633 644 l 505 644 l 507 651 l 583 760 q 783 603 734 760 q 797 507 797 560 q 780 373 797 446 q 678 143 747 231 q 404 -14 555 -14 q 204 143 256 -14 q 191 237 191 184 q 208 373 191 296 l 351 990 z "},"Ḋ":{"ha":986,"x_min":116,"x_max":1027,"o":"m 684 1222 q 722 1281 692 1257 q 785 1305 751 1305 q 838 1281 820 1305 q 850 1242 850 1263 q 848 1222 850 1234 q 810 1164 838 1186 q 746 1139 781 1139 q 694 1164 712 1139 q 682 1200 682 1181 q 684 1222 682 1210 m 116 -27 l 240 512 q 378 829 286 709 q 743 1038 541 1038 q 1010 829 947 1038 q 1027 706 1027 775 q 1002 512 1027 622 q 867 213 964 341 q 503 0 707 0 l 372 0 l 374 7 l 450 115 l 530 115 q 762 266 655 115 q 867 512 833 365 q 891 693 891 618 q 882 776 891 740 q 716 922 843 922 q 483 776 590 922 q 376 512 416 684 l 266 34 l 123 -27 l 116 -27 z "},"ḋ":{"ha":795,"x_min":171,"x_max":917,"o":"m 454 954 q 491 1013 462 989 q 555 1038 520 1038 q 607 1013 589 1038 q 620 975 620 996 q 617 954 620 966 q 580 896 607 918 q 515 871 550 871 q 463 897 481 871 q 451 932 451 913 q 454 954 451 942 m 917 1051 l 760 373 q 659 143 728 231 q 385 -14 536 -14 q 184 143 236 -14 q 171 238 171 184 q 188 373 171 298 q 381 631 226 537 l 214 631 l 215 637 l 291 746 l 608 746 l 607 739 l 531 631 q 393 519 436 574 q 323 373 342 454 q 304 239 304 291 q 310 191 304 211 q 412 102 334 102 q 555 192 489 102 q 624 373 595 247 l 767 990 l 910 1051 l 917 1051 z "},"Ḟ":{"ha":833,"x_min":116,"x_max":1010,"o":"m 709 1222 q 746 1281 717 1257 q 810 1305 775 1305 q 862 1281 844 1305 q 875 1242 875 1263 q 872 1222 875 1234 q 835 1164 862 1186 q 770 1139 805 1139 q 718 1164 736 1139 q 706 1200 706 1181 q 709 1222 706 1210 m 116 -27 l 240 512 q 378 829 286 711 q 743 1038 541 1038 q 1010 829 945 1038 l 888 776 l 882 776 q 716 922 842 922 q 483 776 590 922 q 391 570 428 701 l 776 570 l 774 563 l 699 454 l 363 454 l 266 34 l 123 -27 l 116 -27 z "},"ḟ":{"ha":567,"x_min":116,"x_max":739,"o":"m 513 1222 q 550 1281 521 1257 q 614 1305 579 1305 q 666 1281 648 1305 q 679 1242 679 1263 q 676 1222 679 1234 q 639 1164 666 1186 q 574 1139 609 1139 q 522 1164 541 1139 q 510 1200 510 1181 q 513 1222 510 1210 m 116 -27 l 273 651 q 374 881 305 792 q 647 1038 496 1038 l 739 1038 l 737 1031 l 661 922 l 621 922 q 478 833 545 922 q 414 678 442 785 l 656 678 l 654 671 l 578 563 l 388 563 l 266 34 l 123 -27 l 116 -27 z "},"Ṁ":{"ha":1592,"x_min":195,"x_max":1634,"o":"m 1017 1222 q 1055 1281 1025 1257 q 1118 1305 1084 1305 q 1171 1281 1153 1305 q 1183 1242 1183 1263 q 1181 1222 1183 1234 q 1143 1164 1171 1186 q 1079 1139 1114 1139 q 1027 1164 1045 1139 q 1015 1200 1015 1181 q 1017 1222 1015 1210 m 722 -27 l 846 512 q 871 693 871 618 q 861 776 871 740 q 696 922 823 922 q 463 776 570 922 q 355 512 395 683 q 331 330 331 406 q 340 248 331 283 q 480 74 372 131 l 406 -27 l 399 -27 q 212 195 262 23 q 195 320 195 250 q 220 512 195 405 q 358 829 266 710 q 722 1038 520 1038 q 989 833 922 1038 q 1349 1038 1149 1038 q 1617 829 1551 1038 q 1634 705 1634 775 q 1609 512 1634 620 q 1472 212 1562 311 q 1358 115 1415 150 l 1551 115 l 1550 109 l 1474 0 l 1099 0 l 1100 7 l 1176 115 q 1352 243 1275 146 q 1473 512 1435 348 q 1497 693 1497 618 q 1488 776 1497 740 q 1322 922 1449 922 q 1089 776 1196 922 q 982 512 1022 684 l 872 34 l 729 -27 l 722 -27 z "},"ṁ":{"ha":1211,"x_min":172,"x_max":1213,"o":"m 741 954 q 778 1013 749 989 q 842 1038 807 1038 q 894 1013 876 1038 q 907 975 907 996 q 904 954 907 966 q 867 896 894 918 q 802 871 837 871 q 750 897 768 871 q 738 932 738 913 q 741 954 738 942 m 532 -27 l 624 373 q 643 509 643 456 q 638 555 643 536 q 536 644 616 644 q 394 555 460 644 q 323 373 353 499 q 306 241 306 298 q 310 191 306 214 q 401 74 326 102 l 327 -27 l 320 -27 q 184 143 214 19 q 172 243 172 191 q 188 373 172 304 q 290 603 220 513 q 564 760 412 760 q 752 635 699 760 q 999 760 864 760 q 1200 603 1149 760 q 1213 508 1213 561 q 1196 373 1213 446 q 1002 115 1158 209 l 1170 115 l 1168 109 l 1093 0 l 775 0 l 777 7 l 852 115 q 990 227 949 173 q 1060 373 1042 292 q 1079 508 1079 455 q 1074 555 1079 536 q 972 644 1051 644 q 829 555 895 644 q 760 373 789 499 l 682 34 l 538 -27 l 532 -27 z "},"Ṗ":{"ha":932,"x_min":116,"x_max":1018,"o":"m 687 1222 q 724 1281 695 1257 q 788 1305 753 1305 q 840 1281 823 1305 q 853 1242 853 1263 q 850 1222 853 1234 q 813 1164 840 1186 q 749 1139 783 1139 q 696 1164 715 1139 q 684 1200 684 1181 q 687 1222 684 1210 m 116 -27 l 240 512 q 378 829 286 709 q 743 1038 541 1038 q 981 913 912 1038 q 1018 767 1018 845 q 1008 682 1018 726 q 876 464 981 564 q 547 339 745 339 l 416 339 l 418 346 l 494 454 l 574 454 q 771 517 702 454 q 872 682 850 589 q 881 752 881 720 q 848 859 881 815 q 716 922 802 922 q 483 776 591 922 q 376 512 416 685 l 266 34 l 123 -27 l 116 -27 z "},"ṗ":{"ha":789,"x_min":45,"x_max":791,"o":"m 559 954 q 597 1013 568 989 q 661 1038 626 1038 q 713 1013 695 1038 q 726 975 726 996 q 723 954 726 966 q 686 896 713 918 q 621 871 656 871 q 569 897 587 871 q 557 932 557 913 q 559 954 557 942 m 45 -305 l 201 373 q 303 603 234 515 q 577 760 426 760 q 777 603 726 760 q 791 508 791 562 q 774 373 791 449 q 581 115 736 209 l 748 115 l 747 109 l 671 0 l 353 0 l 355 7 l 431 115 q 568 227 526 173 q 638 373 620 293 q 657 509 657 456 q 652 555 657 536 q 550 644 629 644 q 407 554 473 644 q 338 373 367 499 l 195 -244 l 52 -305 l 45 -305 z "},"Ṡ":{"ha":821,"x_min":126,"x_max":858,"o":"m 606 1222 q 643 1281 614 1257 q 707 1305 672 1305 q 759 1281 741 1305 q 772 1242 772 1263 q 769 1222 772 1234 q 732 1164 759 1186 q 667 1139 702 1139 q 615 1164 633 1139 q 603 1200 603 1181 q 606 1222 603 1210 m 126 195 l 248 248 l 255 248 q 421 102 295 102 q 594 180 509 102 q 677 324 655 235 q 682 366 682 347 q 660 438 682 408 q 528 513 620 492 q 366 589 428 535 q 307 715 307 639 q 313 768 307 739 q 448 968 342 890 q 657 1038 541 1038 q 858 883 809 1038 l 739 832 l 732 832 q 631 922 707 922 q 516 881 566 922 q 452 778 467 840 q 448 747 448 761 q 468 692 448 713 q 595 634 505 653 q 779 528 717 608 q 823 396 823 473 q 813 320 823 359 q 662 90 785 193 q 394 -14 540 -14 q 126 195 191 -14 z "},"ṡ":{"ha":680,"x_min":114,"x_max":677,"o":"m 467 954 q 505 1013 475 989 q 568 1038 534 1038 q 621 1013 603 1038 q 633 975 633 996 q 631 954 633 966 q 593 896 621 918 q 529 871 564 871 q 477 897 495 871 q 465 932 465 913 q 467 954 465 942 m 114 141 l 233 191 l 239 191 q 341 102 264 102 q 467 151 415 102 q 521 238 509 190 q 524 265 524 252 q 504 317 524 296 q 408 357 474 347 q 279 409 323 371 q 234 510 234 448 q 240 559 234 532 q 363 715 261 652 q 513 760 434 760 q 677 631 647 760 l 559 581 l 552 581 q 486 644 536 644 q 416 624 446 644 q 370 557 380 600 q 367 537 367 546 q 389 497 367 510 q 488 464 420 479 q 616 404 572 446 q 659 294 659 363 q 652 231 659 265 q 535 62 633 143 q 314 -14 443 -14 q 114 141 162 -14 z "},"Ṫ":{"ha":723,"x_min":206,"x_max":956,"o":"m 557 1222 q 595 1281 566 1257 q 659 1305 624 1305 q 711 1281 693 1305 q 724 1242 724 1263 q 721 1222 724 1234 q 684 1164 711 1186 q 619 1139 654 1139 q 567 1164 585 1139 q 555 1200 555 1181 q 557 1222 555 1210 m 288 -27 l 504 909 l 422 909 q 303 829 341 909 l 296 829 l 206 878 q 449 1024 280 1024 l 956 1024 l 954 1017 l 878 909 l 640 909 l 437 34 l 294 -27 l 288 -27 z "},"ṫ":{"ha":511,"x_min":159,"x_max":670,"o":"m 460 1222 q 498 1281 469 1257 q 562 1305 527 1305 q 614 1281 596 1305 q 627 1242 627 1263 q 624 1222 627 1234 q 587 1164 614 1186 q 522 1139 557 1139 q 470 1164 488 1139 q 458 1200 458 1181 q 460 1222 458 1210 m 351 -27 q 210 75 210 -27 q 215 118 210 94 l 334 631 l 159 631 l 161 637 l 237 746 l 360 746 l 416 990 l 559 1051 l 566 1051 l 496 746 l 670 746 l 669 739 l 593 631 l 469 631 l 351 118 q 376 88 344 88 l 429 88 l 427 81 l 351 -27 z "},"Ẁ":{"ha":1592,"x_min":195,"x_max":1633,"o":"m 1107 1051 l 982 512 q 958 330 958 405 q 967 248 958 282 q 1133 102 1008 102 q 1366 248 1257 102 q 1473 512 1434 340 q 1497 694 1497 619 q 1488 776 1497 741 q 1348 950 1456 893 l 1423 1051 l 1430 1051 q 1617 829 1566 1001 q 1633 704 1633 774 q 1609 512 1633 621 q 1470 195 1563 317 q 1106 -14 1310 -14 q 840 191 907 -14 q 479 -14 679 -14 q 212 195 277 -14 q 195 319 195 250 q 220 512 195 405 q 357 812 267 713 q 470 909 414 875 l 277 909 l 279 916 l 355 1024 l 730 1024 l 728 1017 l 652 909 q 477 781 553 878 q 355 512 392 673 q 331 330 331 405 q 340 248 331 282 q 507 102 381 102 q 739 248 631 102 q 846 512 807 340 l 957 990 l 1100 1051 l 1107 1051 m 1021 1333 l 1027 1333 l 1083 1099 l 996 1062 l 989 1062 l 888 1276 l 1021 1333 z "},"ẁ":{"ha":1211,"x_min":170,"x_max":1211,"o":"m 852 773 l 760 373 q 741 237 741 290 q 745 191 741 210 q 847 102 768 102 q 989 191 924 102 q 1060 373 1031 247 q 1078 505 1078 448 q 1074 555 1078 532 q 983 672 1057 643 l 1057 773 l 1063 773 q 1200 603 1170 727 q 1211 503 1211 555 q 1196 373 1211 442 q 1094 143 1164 235 q 820 -14 973 -14 q 631 111 685 -14 q 385 -14 519 -14 q 184 143 235 -14 q 170 238 170 185 q 188 373 170 300 q 381 631 226 537 l 214 631 l 215 637 l 291 746 l 608 746 l 607 739 l 531 631 q 393 519 435 573 q 323 373 342 454 q 304 238 304 291 q 310 191 304 210 q 412 102 332 102 q 554 191 488 102 q 624 373 595 247 l 702 712 l 845 773 l 852 773 m 808 1062 l 814 1062 l 870 828 l 782 791 l 775 791 l 675 1005 l 808 1062 z "},"Ẃ":{"ha":1592,"x_min":195,"x_max":1633,"o":"m 1107 1051 l 982 512 q 958 330 958 405 q 967 248 958 282 q 1133 102 1008 102 q 1366 248 1257 102 q 1473 512 1434 340 q 1497 694 1497 619 q 1488 776 1497 741 q 1348 950 1456 893 l 1423 1051 l 1430 1051 q 1617 829 1566 1001 q 1633 704 1633 774 q 1609 512 1633 621 q 1470 195 1563 317 q 1106 -14 1310 -14 q 840 191 907 -14 q 479 -14 679 -14 q 212 195 277 -14 q 195 319 195 250 q 220 512 195 405 q 357 812 267 713 q 470 909 414 875 l 277 909 l 279 916 l 355 1024 l 730 1024 l 728 1017 l 652 909 q 477 781 553 878 q 355 512 392 673 q 331 330 331 405 q 340 248 331 282 q 507 102 381 102 q 739 248 631 102 q 846 512 807 340 l 957 990 l 1100 1051 l 1107 1051 m 1158 1333 l 1164 1333 l 1270 1276 l 1072 1062 l 1065 1062 l 994 1099 l 1158 1333 z "},"ẃ":{"ha":1211,"x_min":170,"x_max":1211,"o":"m 852 773 l 760 373 q 741 237 741 290 q 745 191 741 210 q 847 102 768 102 q 989 191 924 102 q 1060 373 1031 247 q 1078 505 1078 448 q 1074 555 1078 532 q 983 672 1057 643 l 1057 773 l 1063 773 q 1200 603 1170 727 q 1211 503 1211 555 q 1196 373 1211 442 q 1094 143 1164 235 q 820 -14 973 -14 q 631 111 685 -14 q 385 -14 519 -14 q 184 143 235 -14 q 170 238 170 185 q 188 373 170 300 q 381 631 226 537 l 214 631 l 215 637 l 291 746 l 608 746 l 607 739 l 531 631 q 393 519 435 573 q 323 373 342 454 q 304 238 304 291 q 310 191 304 210 q 412 102 332 102 q 554 191 488 102 q 624 373 595 247 l 702 712 l 845 773 l 852 773 m 867 1062 l 874 1062 l 980 1005 l 781 791 l 774 791 l 703 828 l 867 1062 z "},"Ẅ":{"ha":1592,"x_min":195,"x_max":1633,"o":"m 1114 1222 q 1151 1281 1122 1257 q 1215 1305 1180 1305 q 1267 1281 1249 1305 q 1280 1242 1280 1263 q 1277 1222 1280 1234 q 1240 1164 1267 1186 q 1175 1139 1210 1139 q 1123 1164 1141 1139 q 1111 1200 1111 1181 q 1114 1222 1111 1210 m 909 1222 q 947 1281 918 1257 q 1010 1305 976 1305 q 1063 1281 1045 1305 q 1076 1242 1076 1263 q 1073 1222 1076 1234 q 1036 1164 1063 1186 q 971 1139 1006 1139 q 919 1164 937 1139 q 907 1200 907 1181 q 909 1222 907 1210 m 1107 1051 l 982 512 q 958 330 958 405 q 967 248 958 282 q 1133 102 1008 102 q 1366 248 1257 102 q 1473 512 1434 340 q 1497 694 1497 619 q 1488 776 1497 741 q 1348 950 1456 893 l 1423 1051 l 1430 1051 q 1617 829 1566 1001 q 1633 704 1633 774 q 1609 512 1633 621 q 1470 195 1563 317 q 1106 -14 1310 -14 q 840 191 907 -14 q 479 -14 679 -14 q 212 195 277 -14 q 195 319 195 250 q 220 512 195 405 q 357 812 267 713 q 470 909 414 875 l 277 909 l 279 916 l 355 1024 l 730 1024 l 728 1017 l 652 909 q 477 781 553 878 q 355 512 392 673 q 331 330 331 405 q 340 248 331 282 q 507 102 381 102 q 739 248 631 102 q 846 512 807 340 l 957 990 l 1100 1051 l 1107 1051 z "},"ẅ":{"ha":1211,"x_min":170,"x_max":1211,"o":"m 831 954 q 869 1013 840 989 q 932 1038 898 1038 q 985 1013 967 1038 q 998 975 998 996 q 995 954 998 966 q 958 896 985 918 q 893 871 928 871 q 841 897 859 871 q 829 932 829 913 q 831 954 829 942 m 627 954 q 665 1013 635 989 q 728 1038 694 1038 q 781 1013 763 1038 q 793 975 793 996 q 791 954 793 966 q 753 896 781 918 q 689 871 724 871 q 637 897 655 871 q 625 932 625 913 q 627 954 625 942 m 852 773 l 760 373 q 741 237 741 290 q 745 191 741 210 q 847 102 768 102 q 989 191 924 102 q 1060 373 1031 247 q 1078 505 1078 448 q 1074 555 1078 532 q 983 672 1057 643 l 1057 773 l 1063 773 q 1200 603 1170 727 q 1211 503 1211 555 q 1196 373 1211 442 q 1094 143 1164 235 q 820 -14 973 -14 q 631 111 685 -14 q 385 -14 519 -14 q 184 143 235 -14 q 170 238 170 185 q 188 373 170 300 q 381 631 226 537 l 214 631 l 215 637 l 291 746 l 608 746 l 607 739 l 531 631 q 393 519 435 573 q 323 373 342 454 q 304 238 304 291 q 310 191 304 210 q 412 102 332 102 q 554 191 488 102 q 624 373 595 247 l 702 712 l 845 773 l 852 773 z "},"Ỳ":{"ha":930,"x_min":218,"x_max":1038,"o":"m 366 647 q 356 566 356 604 q 388 451 356 498 q 532 376 437 376 q 702 446 625 376 q 799 606 778 515 l 888 990 l 1031 1051 l 1038 1051 l 803 34 l 660 -27 l 653 -27 l 742 359 q 506 260 634 260 q 254 399 331 260 q 218 546 218 464 q 231 647 218 593 q 311 803 250 734 q 470 909 370 869 l 277 909 l 279 916 l 355 1024 l 730 1024 l 728 1017 l 652 909 q 454 800 541 882 q 366 647 387 736 m 780 1333 l 787 1333 l 842 1099 l 755 1062 l 748 1062 l 647 1276 l 780 1333 z "},"ỳ":{"ha":795,"x_min":157,"x_max":852,"o":"m 852 773 l 695 95 q 594 -135 663 -44 q 321 -292 475 -292 l 157 -292 l 159 -285 l 235 -176 l 347 -176 q 490 -87 432 -176 q 547 54 529 -26 q 384 -14 465 -14 q 184 143 232 -14 q 171 238 171 185 q 188 373 171 298 q 381 631 224 537 l 214 631 l 215 637 l 291 746 l 608 746 l 607 739 l 531 631 q 393 519 436 574 q 323 373 342 454 q 304 239 304 291 q 310 191 304 211 q 412 102 334 102 q 554 191 488 102 q 624 373 595 247 l 702 712 l 845 773 l 852 773 m 634 1062 l 641 1062 l 696 828 l 608 791 l 602 791 l 501 1005 l 634 1062 z "},"‐":{"ha":823,"x_min":256,"x_max":803,"o":"m 256 450 l 258 457 l 340 574 l 803 574 l 802 567 l 720 450 l 256 450 z "},"‑":{"ha":823,"x_min":256,"x_max":803,"o":"m 256 450 l 258 457 l 340 574 l 803 574 l 802 567 l 720 450 l 256 450 z "},"‒":{"ha":823,"x_min":205,"x_max":854,"o":"m 205 450 l 208 457 l 289 574 l 854 574 l 852 567 l 770 450 l 205 450 z "},"–":{"ha":823,"x_min":205,"x_max":854,"o":"m 205 450 l 208 457 l 289 574 l 854 574 l 852 567 l 770 450 l 205 450 z "},"—":{"ha":823,"x_min":121,"x_max":939,"o":"m 121 450 l 123 457 l 204 574 l 939 574 l 937 567 l 855 450 l 121 450 z "},"―":{"ha":823,"x_min":121,"x_max":939,"o":"m 121 450 l 123 457 l 204 574 l 939 574 l 937 567 l 855 450 l 121 450 z "},"‗":{"ha":823,"x_min":37,"x_max":722,"o":"m 73 -123 l 75 -117 l 157 0 l 722 0 l 720 -7 l 638 -123 l 73 -123 m 37 -278 l 39 -271 l 121 -155 l 686 -155 l 684 -161 l 602 -278 l 37 -278 z "},"‘":{"ha":413,"x_min":288,"x_max":532,"o":"m 511 1051 l 532 1017 q 421 871 439 940 q 417 840 417 854 q 479 730 418 776 l 337 669 l 330 669 q 288 785 288 722 q 294 836 288 810 q 511 1051 325 966 z "},"’":{"ha":413,"x_min":278,"x_max":522,"o":"m 473 1051 l 480 1051 q 522 934 522 998 q 516 886 522 911 q 300 669 488 757 l 278 703 q 389 849 371 779 q 393 880 393 865 q 330 990 391 944 l 473 1051 z "},"‚":{"ha":413,"x_min":79,"x_max":322,"o":"m 274 189 l 281 189 q 322 72 322 136 q 317 23 322 49 q 100 -194 290 -106 l 79 -160 q 189 -14 172 -83 q 193 18 193 3 q 131 127 193 82 l 274 189 z "},"‛":{"ha":413,"x_min":302,"x_max":540,"o":"m 418 1051 l 425 1051 l 540 990 q 416 849 436 932 q 413 820 413 835 q 459 703 414 764 l 422 669 q 302 844 302 741 q 307 887 302 865 q 418 1051 328 979 z "},"“":{"ha":627,"x_min":288,"x_max":745,"o":"m 724 1051 l 745 1017 q 635 871 652 940 q 631 840 631 854 q 693 730 632 776 l 551 669 l 544 669 q 502 785 502 722 q 508 836 502 810 q 724 1051 538 966 m 511 1051 l 532 1017 q 421 871 439 940 q 417 840 417 854 q 479 730 418 776 l 337 669 l 330 669 q 288 785 288 722 q 294 836 288 810 q 511 1051 325 966 z "},"”":{"ha":627,"x_min":278,"x_max":734,"o":"m 686 1051 l 693 1051 q 734 934 734 998 q 729 886 734 911 q 513 669 701 757 l 491 703 q 602 849 584 779 q 606 880 606 865 q 543 990 604 944 l 686 1051 m 473 1051 l 480 1051 q 522 934 522 998 q 516 886 522 911 q 300 669 488 757 l 278 703 q 389 849 371 779 q 393 880 393 865 q 330 990 391 944 l 473 1051 z "},"„":{"ha":627,"x_min":79,"x_max":535,"o":"m 487 189 l 494 189 q 535 71 535 135 q 530 23 535 48 q 313 -194 502 -106 l 292 -160 q 402 -14 385 -83 q 406 18 406 3 q 344 127 405 81 l 487 189 m 274 189 l 281 189 q 322 71 322 135 q 317 23 322 48 q 100 -194 289 -106 l 79 -160 q 189 -14 172 -83 q 193 18 193 3 q 131 127 192 81 l 274 189 z "},"‟":{"ha":627,"x_min":302,"x_max":753,"o":"m 632 1051 l 639 1051 l 753 990 q 630 849 650 932 q 627 820 627 835 q 673 703 627 764 l 636 669 q 515 844 515 741 q 521 887 516 865 q 632 1051 541 979 m 418 1051 l 425 1051 l 540 990 q 416 849 436 932 q 413 820 413 835 q 459 703 414 764 l 422 669 q 302 844 302 741 q 307 887 302 865 q 418 1051 328 979 z "},"†":{"ha":823,"x_min":258,"x_max":906,"o":"m 338 -27 l 500 675 l 258 675 l 259 682 l 341 799 l 528 799 l 572 990 l 715 1051 l 722 1051 l 664 799 l 906 799 l 905 792 l 823 675 l 635 675 l 488 34 l 345 -27 l 338 -27 z "},"‡":{"ha":823,"x_min":154,"x_max":906,"o":"m 338 -27 l 396 225 l 154 225 l 155 232 l 237 349 l 425 349 l 500 675 l 258 675 l 259 682 l 341 799 l 528 799 l 572 990 l 715 1051 l 722 1051 l 664 799 l 906 799 l 905 792 l 823 675 l 635 675 l 560 349 l 802 349 l 800 342 l 719 225 l 532 225 l 488 34 l 345 -27 l 338 -27 z "},"•":{"ha":704,"x_min":211,"x_max":728,"o":"m 220 513 q 345 714 247 631 q 532 783 425 783 q 686 715 638 783 q 728 581 728 656 q 720 511 728 548 q 593 308 690 391 q 407 240 513 240 q 252 309 300 240 q 211 439 211 366 q 220 513 211 476 z "},"‣":{"ha":629,"x_min":193,"x_max":682,"o":"m 193 245 l 314 774 l 682 519 l 193 245 z "},"․":{"ha":407,"x_min":135,"x_max":304,"o":"m 138 69 q 175 128 146 104 q 239 153 204 153 q 291 128 273 153 q 304 90 304 111 q 301 69 304 81 q 264 11 291 33 q 199 -14 234 -14 q 147 12 165 -14 q 135 47 135 28 q 138 69 135 57 z "},"‥":{"ha":643,"x_min":135,"x_max":540,"o":"m 374 69 q 411 128 382 104 q 475 153 440 153 q 527 128 509 153 q 540 90 540 111 q 537 69 540 81 q 500 11 527 33 q 435 -14 470 -14 q 383 12 401 -14 q 371 47 371 28 q 374 69 371 57 m 138 69 q 175 128 146 104 q 239 153 204 153 q 291 128 273 153 q 304 90 304 111 q 301 69 304 81 q 264 11 291 33 q 199 -14 234 -14 q 147 12 165 -14 q 135 47 135 28 q 138 69 135 57 z "},"…":{"ha":879,"x_min":135,"x_max":776,"o":"m 610 69 q 647 128 618 104 q 711 153 676 153 q 763 128 745 153 q 776 90 776 111 q 773 69 776 81 q 736 11 763 33 q 671 -14 706 -14 q 619 12 637 -14 q 607 47 607 28 q 610 69 607 57 m 374 69 q 411 128 382 104 q 475 153 440 153 q 527 128 509 153 q 540 90 540 111 q 537 69 540 81 q 500 11 527 33 q 435 -14 470 -14 q 383 12 401 -14 q 371 47 371 28 q 374 69 371 57 m 138 69 q 175 128 146 104 q 239 153 204 153 q 291 128 273 153 q 304 90 304 111 q 301 69 304 81 q 264 11 291 33 q 199 -14 234 -14 q 147 12 165 -14 q 135 47 135 28 q 138 69 135 57 z "},"‧":{"ha":407,"x_min":237,"x_max":406,"o":"m 240 511 q 277 570 248 545 q 341 594 307 594 q 393 570 376 594 q 406 531 406 552 q 404 511 406 523 q 366 452 393 475 q 302 428 336 428 q 250 453 268 428 q 237 489 237 469 q 240 511 237 498 z "},"‰":{"ha":1929,"x_min":271,"x_max":1895,"o":"m 1754 258 q 1763 326 1763 296 q 1747 391 1763 366 q 1676 429 1724 429 q 1590 393 1629 429 q 1520 258 1541 347 q 1511 190 1511 220 q 1528 122 1511 149 q 1597 86 1551 86 q 1685 123 1646 86 q 1754 258 1733 168 m 1388 260 q 1512 460 1415 378 q 1699 529 1593 529 q 1854 461 1806 529 q 1895 327 1895 403 q 1887 258 1895 294 q 1761 54 1858 137 q 1575 -14 1681 -14 q 1419 55 1468 -14 q 1379 186 1379 113 q 1388 260 1379 222 m 1216 258 q 1225 326 1225 296 q 1209 391 1225 366 q 1139 429 1186 429 q 1053 393 1091 429 q 982 258 1003 347 q 973 190 973 220 q 990 122 973 149 q 1059 86 1013 86 q 1147 123 1108 86 q 1216 258 1195 168 m 850 260 q 975 460 877 378 q 1162 529 1055 529 q 1316 461 1268 529 q 1358 327 1358 403 q 1350 258 1358 294 q 1223 54 1320 137 q 1037 -14 1143 -14 q 882 55 930 -14 q 841 186 841 113 q 850 260 841 222 m 646 766 q 654 834 654 804 q 639 900 654 874 q 568 938 616 938 q 482 902 521 938 q 412 766 433 855 q 403 699 403 728 q 420 631 403 657 q 489 595 443 595 q 576 631 538 595 q 646 766 625 677 m 279 768 q 404 969 307 886 q 591 1038 485 1038 q 746 970 698 1038 q 787 836 787 911 q 779 766 787 803 q 652 563 750 646 q 467 495 572 495 q 311 564 359 495 q 271 694 271 621 q 279 768 271 731 m 497 -27 l 412 19 l 1131 1051 l 1138 1051 l 1223 1005 l 504 -27 l 497 -27 z "},"′":{"ha":461,"x_min":276,"x_max":589,"o":"m 476 1051 l 483 1051 l 589 994 l 353 718 l 347 718 l 276 755 l 476 1051 z "},"″":{"ha":677,"x_min":276,"x_max":804,"o":"m 692 1051 l 699 1051 l 804 994 l 569 718 l 562 718 l 492 755 l 692 1051 m 476 1051 l 483 1051 l 589 994 l 353 718 l 347 718 l 276 755 l 476 1051 z "},"‴":{"ha":892,"x_min":276,"x_max":1020,"o":"m 907 1051 l 914 1051 l 1020 994 l 785 718 l 778 718 l 707 755 l 907 1051 m 692 1051 l 699 1051 l 804 994 l 569 718 l 562 718 l 492 755 l 692 1051 m 476 1051 l 483 1051 l 589 994 l 353 718 l 347 718 l 276 755 l 476 1051 z "},"‵":{"ha":461,"x_min":331,"x_max":534,"o":"m 464 1051 l 471 1051 l 534 755 l 446 718 l 439 718 l 331 994 l 464 1051 z "},"‶":{"ha":677,"x_min":331,"x_max":749,"o":"m 464 1051 l 471 1051 l 534 755 l 446 718 l 439 718 l 331 994 l 464 1051 m 680 1051 l 686 1051 l 749 755 l 661 718 l 654 718 l 547 994 l 680 1051 z "},"‷":{"ha":892,"x_min":331,"x_max":965,"o":"m 464 1051 l 471 1051 l 534 755 l 446 718 l 439 718 l 331 994 l 464 1051 m 680 1051 l 686 1051 l 749 755 l 661 718 l 654 718 l 547 994 l 680 1051 m 895 1051 l 902 1051 l 965 755 l 877 718 l 870 718 l 762 994 l 895 1051 z "},"‹":{"ha":558,"x_min":226,"x_max":611,"o":"m 345 206 l 226 537 l 498 871 l 505 871 l 611 815 l 383 539 l 483 262 l 352 206 l 345 206 z "},"›":{"ha":558,"x_min":196,"x_max":581,"o":"m 301 206 l 196 262 l 425 539 l 324 815 l 454 871 l 461 871 l 581 537 l 308 206 l 301 206 z "},"⁃":{"ha":802,"x_min":198,"x_max":844,"o":"m 387 208 l 434 410 l 289 336 l 200 410 l 198 416 l 397 517 l 245 619 l 250 625 l 372 699 l 484 625 l 517 772 l 647 827 l 654 827 l 607 625 l 752 699 l 842 625 l 844 619 l 644 517 l 797 416 l 792 410 l 669 336 l 557 410 l 523 262 l 394 208 l 387 208 z "},"⁄":{"ha":661,"x_min":-5,"x_max":901,"o":"m -5 -49 l 809 1119 l 816 1119 l 901 1073 l 87 -95 l 81 -95 l -5 -49 z "},"€":{"ha":1073,"x_min":181,"x_max":1116,"o":"m 829 467 l 828 460 l 746 344 l 457 344 q 457 331 457 338 q 467 248 457 286 q 633 102 507 102 q 865 248 758 102 l 1038 321 l 1045 321 q 970 195 1018 258 q 606 -14 809 -14 q 338 195 404 -14 q 321 319 321 249 q 321 344 321 332 l 181 344 l 182 351 l 264 467 l 336 467 q 346 512 341 493 q 359 562 354 545 l 231 562 l 233 568 l 315 685 l 401 685 q 484 829 437 767 q 848 1038 645 1038 q 1116 829 1051 1038 l 994 776 l 987 776 q 822 922 948 922 q 589 776 694 922 q 537 685 561 737 l 880 685 l 878 678 l 796 562 l 494 562 q 481 512 486 532 q 472 467 476 488 l 829 467 z "},"℅":{"ha":1173,"x_min":265,"x_max":1145,"o":"m 1059 99 q 861 -14 971 -14 q 714 100 750 -14 q 705 168 705 130 q 718 267 705 212 q 791 433 742 371 q 989 545 879 545 q 1136 431 1100 545 q 1145 364 1145 401 q 1133 265 1145 319 q 1059 99 1108 161 m 879 77 q 981 141 932 77 q 1031 265 1014 185 q 1042 352 1042 319 q 1038 389 1042 377 q 971 454 1019 454 q 869 391 918 454 q 819 267 838 349 q 808 180 808 214 q 812 142 808 157 q 879 77 831 77 m 666 675 q 620 590 648 628 q 421 479 539 479 q 275 593 311 479 q 265 660 265 623 q 278 759 265 705 q 351 925 302 863 q 550 1038 439 1038 q 702 909 669 1038 l 619 873 l 602 873 q 532 947 587 947 q 430 883 478 947 q 380 759 398 841 q 368 672 368 707 q 372 635 368 651 q 444 571 391 571 q 542 635 494 571 l 638 675 l 666 675 m 383 -27 l 298 19 l 1017 1051 l 1024 1051 l 1109 1005 l 390 -27 l 383 -27 z "},"ℓ":{"ha":751,"x_min":102,"x_max":833,"o":"m 471 456 q 600 666 526 526 q 712 942 682 821 q 589 746 663 884 q 471 456 500 581 m 102 0 q 277 201 193 99 q 295 301 281 245 q 359 497 319 406 q 616 979 538 907 q 762 1038 682 1038 q 818 1016 796 1038 q 833 966 833 1000 q 825 907 833 942 q 766 741 810 844 q 397 184 667 507 q 397 174 397 179 q 433 79 397 79 q 465 95 446 79 q 522 155 492 118 l 641 155 q 515 27 567 66 q 405 -14 462 -14 q 286 55 318 -14 l 238 0 l 102 0 z "},"™":{"ha":1306,"x_min":318,"x_max":1360,"o":"m 719 478 q 616 598 645 505 q 607 664 607 627 q 620 765 608 710 q 692 931 642 866 q 892 1044 779 1044 q 1028 958 988 1044 q 1205 1044 1108 1044 q 1352 931 1318 1044 q 1360 865 1360 902 q 1348 765 1360 819 q 1275 598 1324 661 q 1116 478 1204 507 l 1099 478 l 1078 553 q 1196 640 1151 579 q 1246 765 1227 684 q 1257 851 1257 816 q 1253 889 1258 872 q 1183 953 1236 953 q 1084 889 1127 953 q 1034 765 1052 840 l 977 515 l 890 478 l 867 478 l 932 765 q 945 852 945 817 q 940 889 945 873 q 870 953 920 953 q 771 889 817 953 q 721 765 739 845 q 709 677 709 711 q 713 640 708 655 q 791 553 733 587 l 736 478 l 719 478 m 361 478 l 469 946 l 445 946 q 398 906 415 946 l 378 906 l 318 938 q 466 1038 366 1038 l 736 1038 l 731 1013 l 684 946 l 570 946 l 471 515 l 385 478 l 361 478 z "},"Ω":{"ha":1000,"x_min":102,"x_max":1037,"o":"m 427 0 l 277 0 q 102 146 109 0 l 214 195 l 221 195 q 303 115 224 115 l 344 115 l 359 181 q 236 446 236 267 q 257 609 237 520 q 405 880 291 758 q 739 1038 553 1038 q 1000 880 923 1038 q 1037 718 1037 805 q 1023 609 1036 665 q 724 181 953 302 l 709 115 l 749 115 q 868 195 828 115 l 875 195 l 966 146 q 723 0 891 0 l 572 0 l 630 250 q 888 609 825 338 q 899 703 899 659 q 876 821 899 768 q 715 925 829 925 q 504 821 597 925 q 393 609 420 728 q 375 469 375 532 q 485 250 375 313 l 427 0 z "},"℮":{"ha":921,"x_min":175,"x_max":917,"o":"m 345 373 l 286 121 q 469 39 349 39 q 776 206 642 39 l 818 177 q 625 24 709 59 q 458 -10 542 -10 q 224 98 298 -10 q 175 267 175 170 q 188 373 175 316 q 351 648 228 541 q 635 756 475 756 q 861 660 779 756 q 917 482 917 593 q 905 373 917 432 l 345 373 m 760 423 l 807 625 q 623 707 739 707 q 402 624 504 707 l 356 423 l 760 423 z "},"∂":{"ha":859,"x_min":146,"x_max":895,"o":"m 311 0 q 174 62 218 0 q 146 159 146 100 q 156 235 146 194 q 320 498 189 378 q 681 656 493 656 q 752 654 705 656 q 777 814 777 763 q 777 832 777 823 q 760 928 777 890 q 705 968 742 968 q 613 913 660 968 q 533 785 578 873 l 451 825 q 600 978 522 930 q 741 1024 675 1024 q 873 930 831 1024 q 895 812 895 882 q 873 645 895 741 q 733 297 828 453 q 522 73 644 149 q 311 0 406 0 m 345 62 q 461 128 396 62 q 581 267 515 183 q 738 588 667 377 q 663 599 713 599 q 496 512 590 599 q 387 394 433 454 q 298 226 315 302 q 285 136 285 170 q 286 120 285 127 q 345 62 291 64 z "},"∆":{"ha":772,"x_min":52,"x_max":766,"o":"m 165 0 q 52 67 52 0 q 55 91 52 78 q 151 295 68 151 l 546 996 l 676 1051 l 683 1051 l 756 295 q 766 166 766 220 q 759 91 766 121 q 607 0 739 0 l 165 0 m 191 115 l 631 115 l 578 824 l 191 115 z "},"∏":{"ha":943,"x_min":65,"x_max":1015,"o":"m 65 -305 l 338 879 q 542 1024 372 1024 l 874 1024 q 1015 923 1015 1024 q 1010 879 1015 903 l 751 -244 l 608 -305 l 601 -305 l 874 879 q 847 909 881 909 l 515 909 q 474 879 481 909 l 215 -244 l 72 -305 l 65 -305 z "},"∑":{"ha":792,"x_min":55,"x_max":876,"o":"m 168 -278 q 55 -212 55 -278 q 58 -188 56 -201 q 152 -28 72 -125 l 491 404 l 361 777 q 335 897 335 847 q 339 933 336 918 q 491 1024 359 1024 l 876 1024 l 874 1017 l 798 909 l 464 909 l 638 399 l 195 -163 l 512 -163 q 631 -83 592 -163 l 637 -83 l 728 -132 q 485 -278 653 -278 l 168 -278 z "},"−":{"ha":823,"x_min":205,"x_max":854,"o":"m 205 450 l 208 457 l 289 574 l 854 574 l 852 567 l 770 450 l 205 450 z "},"∕":{"ha":661,"x_min":-5,"x_max":901,"o":"m -5 -49 l 809 1119 l 816 1119 l 901 1073 l 87 -95 l 81 -95 l -5 -49 z "},"∗":{"ha":802,"x_min":198,"x_max":844,"o":"m 387 208 l 434 410 l 289 336 l 200 410 l 198 416 l 397 517 l 245 619 l 250 625 l 372 699 l 484 625 l 517 772 l 647 827 l 654 827 l 607 625 l 752 699 l 842 625 l 844 619 l 644 517 l 797 416 l 792 410 l 669 336 l 557 410 l 523 262 l 394 208 l 387 208 z "},"∘":{"ha":704,"x_min":211,"x_max":728,"o":"m 586 511 q 595 579 595 549 q 579 645 595 619 q 509 683 556 683 q 422 647 461 683 q 352 511 373 600 q 343 444 343 473 q 360 376 343 402 q 429 340 383 340 q 517 376 478 340 q 586 511 565 422 m 220 513 q 345 714 247 631 q 532 783 425 783 q 686 715 638 783 q 728 581 728 656 q 720 511 728 548 q 593 308 690 391 q 407 240 513 240 q 252 309 300 240 q 211 439 211 366 q 220 513 211 476 z "},"∙":{"ha":407,"x_min":237,"x_max":406,"o":"m 240 511 q 277 570 248 545 q 341 594 307 594 q 393 570 376 594 q 406 531 406 552 q 404 511 406 523 q 366 452 393 475 q 302 428 336 428 q 250 453 268 428 q 237 489 237 469 q 240 511 237 498 z "},"√":{"ha":985,"x_min":157,"x_max":1187,"o":"m 350 -27 l 343 -27 l 298 386 l 157 386 l 159 393 l 240 509 l 428 509 l 453 184 l 954 1024 l 1187 1024 l 1185 1017 l 1104 901 l 1007 901 l 480 28 l 350 -27 z "},"∛":{"ha":985,"x_min":157,"x_max":1187,"o":"m 319 652 l 394 684 l 410 684 q 475 618 422 618 q 539 644 511 618 q 572 701 564 665 q 565 743 577 724 q 501 762 552 762 l 463 809 l 581 941 l 433 941 l 438 964 l 481 1024 l 632 1024 q 690 983 690 1024 q 688 966 690 976 q 642 896 682 939 l 585 838 q 640 805 617 830 q 668 733 668 774 q 664 701 668 718 q 591 585 646 628 q 453 536 532 536 q 319 652 351 536 m 350 -27 l 343 -27 l 298 386 l 157 386 l 159 393 l 240 509 l 428 509 l 453 184 l 954 1024 l 1187 1024 l 1185 1017 l 1104 901 l 1007 901 l 480 28 l 350 -27 z "},"∞":{"ha":1071,"x_min":210,"x_max":1095,"o":"m 954 511 q 962 579 962 549 q 947 645 962 618 q 876 683 924 683 q 790 647 828 683 q 720 511 740 600 q 711 444 711 473 q 728 376 711 401 q 797 340 751 340 q 885 378 846 340 q 954 511 932 424 m 587 511 q 595 579 595 549 q 580 645 595 618 q 509 683 557 683 q 423 647 461 683 q 353 511 373 600 q 344 444 344 473 q 361 376 344 400 q 430 340 385 340 q 518 378 478 340 q 587 511 566 423 m 219 513 q 347 715 245 628 q 532 783 425 783 q 687 715 636 783 q 696 700 693 707 q 713 715 701 704 q 899 783 789 783 q 1054 715 1006 783 q 1095 581 1095 656 q 1087 511 1095 549 q 960 308 1059 393 q 774 240 881 240 q 620 308 669 240 q 610 323 614 315 q 593 308 607 320 q 408 240 518 240 q 252 307 300 240 q 210 440 210 366 q 219 513 210 474 z "},"≈":{"ha":772,"x_min":164,"x_max":844,"o":"m 164 269 q 381 514 220 514 q 517 446 472 514 q 591 389 553 389 q 655 459 640 389 l 782 514 l 789 514 q 572 269 732 269 q 436 338 481 269 q 362 394 399 394 q 297 324 313 394 l 171 269 l 164 269 m 219 507 q 436 752 275 752 q 572 684 527 752 q 646 627 608 627 q 710 697 694 627 l 837 752 l 844 752 q 627 507 787 507 q 491 576 536 507 q 417 632 454 632 q 352 562 368 632 l 226 507 l 219 507 z "},"≠":{"ha":823,"x_min":177,"x_max":882,"o":"m 177 327 l 179 334 l 260 450 l 425 450 l 511 574 l 234 574 l 236 581 l 317 697 l 597 697 l 730 888 l 736 888 l 822 842 l 720 697 l 882 697 l 881 690 l 799 574 l 635 574 l 549 450 l 825 450 l 824 444 l 742 327 l 463 327 l 330 136 l 323 136 l 238 182 l 339 327 l 177 327 z "},"≡":{"ha":823,"x_min":149,"x_max":911,"o":"m 149 203 l 151 210 l 232 327 l 797 327 l 795 320 l 713 203 l 149 203 m 262 697 l 264 704 l 346 821 l 911 821 l 909 814 l 827 697 l 262 697 m 205 450 l 208 457 l 289 574 l 854 574 l 852 567 l 770 450 l 205 450 z "},"≤":{"ha":907,"x_min":132,"x_max":954,"o":"m 227 543 l 229 550 l 311 667 l 925 905 l 954 788 l 952 781 l 452 593 l 865 406 l 864 399 l 781 281 l 227 543 m 132 130 l 133 136 l 215 253 l 830 253 l 829 246 l 747 130 l 132 130 z "},"≥":{"ha":907,"x_min":165,"x_max":957,"o":"m 957 655 l 956 648 l 873 531 l 259 293 l 231 410 l 232 417 l 732 605 l 319 793 l 320 800 l 403 917 l 957 655 m 165 130 l 167 136 l 249 253 l 864 253 l 863 246 l 781 130 l 165 130 z "},"◊":{"ha":796,"x_min":197,"x_max":831,"o":"m 452 195 l 690 492 l 581 814 l 340 511 l 452 195 m 398 0 l 197 500 l 635 1024 l 831 503 l 398 0 z "}}}
